<svg xmlns="http://www.w3.org/2000/svg" xmlns:xlink="http://www.w3.org/1999/xlink" width="500" zoomAndPan="magnify" viewBox="0 0 375 374.999991" height="500" preserveAspectRatio="xMidYMid meet" version="1.0"><defs><clipPath id="68e51db1b7"><path d="M 63.636719 19.261719 L 311.136719 19.261719 L 311.136719 356 L 63.636719 356 Z M 63.636719 19.261719 " clip-rule="nonzero"/></clipPath></defs><g clip-path="url(#68e51db1b7)"><path fill="#000000" d="M 187.386719 107.945312 C 211.792969 107.945312 231.582031 88.125 231.582031 63.671875 C 231.582031 39.222656 211.792969 19.398438 187.386719 19.398438 C 162.976562 19.398438 143.1875 39.222656 143.1875 63.671875 C 143.1875 88.125 162.976562 107.945312 187.386719 107.945312 Z M 226.527344 344.734375 L 195.433594 276.207031 C 192.292969 269.289062 182.480469 269.289062 179.339844 276.207031 L 148.242188 344.734375 C 145.164062 351.519531 138.414062 355.875 130.972656 355.875 C 119 355.875 110.023438 344.902344 112.371094 333.144531 L 139.394531 197.796875 C 141.65625 186.46875 136.347656 174.976562 126.269531 169.367188 L 73.136719 139.796875 C 67.273438 136.535156 63.636719 130.34375 63.636719 123.621094 C 63.636719 111.328125 75.382812 102.453125 87.179688 105.832031 L 165.445312 128.230469 C 179.785156 132.335938 194.984375 132.335938 209.328125 128.230469 L 287.589844 105.832031 C 299.390625 102.453125 311.136719 111.328125 311.136719 123.621094 C 311.136719 130.34375 307.5 136.535156 301.632812 139.796875 L 248.503906 169.367188 C 238.421875 174.976562 233.117188 186.46875 235.378906 197.796875 L 262.398438 333.144531 C 264.75 344.902344 255.769531 355.875 243.796875 355.875 C 236.359375 355.875 229.605469 351.519531 226.527344 344.734375 Z M 226.527344 344.734375 " fill-opacity="1" fill-rule="evenodd"/></g></svg>