<svg xmlns="http://www.w3.org/2000/svg" xmlns:xlink="http://www.w3.org/1999/xlink" width="500" zoomAndPan="magnify" viewBox="0 0 375 374.999991" height="500" preserveAspectRatio="xMidYMid meet" version="1.0"><defs><clipPath id="76184225e6"><path d="M 30.011719 66 L 273 66 L 273 336 L 30.011719 336 Z M 30.011719 66 " clip-rule="nonzero"/></clipPath><clipPath id="4cf1220b8a"><path d="M 232 38 L 345.011719 38 L 345.011719 151 L 232 151 Z M 232 38 " clip-rule="nonzero"/></clipPath></defs><g clip-path="url(#76184225e6)"><path fill="#231f20" d="M 111.199219 229.503906 L 149.890625 121.785156 L 189.292969 229.503906 Z M 196.246094 115.375 C 193.03125 106.949219 190.378906 100.214844 188.316406 95.164062 C 186.226562 90.121094 183.679688 85.402344 180.644531 81.011719 C 177.613281 76.625 173.632812 73.03125 168.695312 70.242188 C 163.765625 67.457031 157.609375 66.058594 150.25 66.058594 C 142.996094 66.058594 136.910156 67.457031 131.972656 70.242188 C 127.042969 73.03125 123.0625 76.675781 120.027344 81.195312 C 116.996094 85.703125 114.144531 91.371094 111.472656 98.191406 C 108.800781 105.015625 106.503906 110.863281 104.609375 115.734375 L 37.757812 285.234375 C 35.015625 292.007812 33.058594 297.28125 31.871094 301.085938 C 30.679688 304.878906 30.085938 308.554688 30.085938 312.117188 C 30.085938 318.296875 32.636719 323.8125 37.757812 328.683594 C 42.867188 333.542969 48.742188 335.980469 55.402344 335.980469 C 63.242188 335.980469 68.886719 333.695312 72.34375 329.125 C 75.789062 324.554688 79.941406 315.738281 84.816406 302.683594 L 97.292969 269.210938 L 203.550781 269.210938 L 216.027344 301.972656 C 217.691406 306.007812 219.6875 310.667969 222.003906 315.949219 C 224.320312 321.234375 226.488281 325.148438 228.515625 327.695312 C 230.53125 330.253906 233.027344 332.265625 235.992188 333.753906 C 238.964844 335.234375 242.53125 335.980469 246.695312 335.980469 C 253.828125 335.980469 259.914062 333.453125 264.964844 328.410156 C 270.023438 323.367188 272.542969 317.824219 272.542969 311.761719 C 272.542969 305.945312 269.871094 296.625 264.519531 283.8125 L 196.246094 115.375 " fill-opacity="1" fill-rule="nonzero"/></g><g clip-path="url(#4cf1220b8a)"><path fill="#231f20" d="M 327.214844 76.523438 L 307.007812 76.523438 L 307.007812 56.355469 C 307.007812 46.429688 298.957031 38.390625 289.03125 38.390625 C 279.09375 38.390625 271.042969 46.429688 271.042969 56.355469 L 271.042969 76.523438 L 250.855469 76.523438 C 240.917969 76.523438 232.867188 84.566406 232.867188 94.480469 C 232.867188 104.402344 240.917969 112.445312 250.855469 112.445312 L 271.042969 112.445312 L 271.042969 132.605469 C 271.042969 142.527344 279.09375 150.570312 289.03125 150.570312 C 298.957031 150.570312 307.007812 142.527344 307.007812 132.605469 L 307.007812 112.445312 L 327.214844 112.445312 C 337.140625 112.445312 345.191406 104.402344 345.191406 94.480469 C 345.191406 84.566406 337.140625 76.523438 327.214844 76.523438 " fill-opacity="1" fill-rule="nonzero"/></g></svg>