<svg xmlns="http://www.w3.org/2000/svg" xmlns:xlink="http://www.w3.org/1999/xlink" width="500" zoomAndPan="magnify" viewBox="0 0 375 374.999991" height="500" preserveAspectRatio="xMidYMid meet" version="1.0"><defs><clipPath id="9501c42846"><path d="M 34.523438 186 L 70 186 L 70 221 L 34.523438 221 Z M 34.523438 186 " clip-rule="nonzero"/></clipPath><clipPath id="4018161598"><path d="M 148 149 L 340 149 L 340 340.15625 L 148 340.15625 Z M 148 149 " clip-rule="nonzero"/></clipPath></defs><path fill="#212121" d="M 190.722656 69.527344 C 191.179688 69.527344 191.617188 69.46875 192.050781 69.328125 C 199.28125 67.203125 206.929688 67.203125 214.15625 69.328125 C 215.828125 69.824219 217.632812 69.347656 218.863281 68.117188 C 220.09375 66.886719 220.554688 65.078125 220.078125 63.410156 C 217.953125 56.179688 217.953125 48.535156 220.078125 41.285156 C 220.574219 39.617188 220.097656 37.808594 218.863281 36.578125 C 217.632812 35.34375 215.828125 34.886719 214.15625 35.363281 C 206.929688 37.488281 199.28125 37.488281 192.050781 35.363281 C 190.382812 34.867188 188.578125 35.34375 187.34375 36.578125 C 186.113281 37.808594 185.65625 39.617188 186.132812 41.285156 C 188.257812 48.515625 188.257812 56.160156 186.132812 63.410156 C 185.636719 65.078125 186.113281 66.886719 187.34375 68.117188 C 188.257812 69.050781 189.46875 69.527344 190.722656 69.527344 Z M 209.371094 46.113281 C 208.835938 50.261719 208.835938 54.453125 209.371094 58.625 C 205.21875 58.089844 201.027344 58.089844 196.859375 58.625 C 197.394531 54.472656 197.394531 50.28125 196.859375 46.113281 C 201.03125 46.648438 205.21875 46.648438 209.371094 46.113281 Z M 209.371094 46.113281 " fill-opacity="1" fill-rule="evenodd"/><g clip-path="url(#9501c42846)"><path fill="#212121" d="M 39.777344 220.476562 C 40.234375 220.476562 40.671875 220.417969 41.109375 220.277344 C 48.339844 218.152344 55.984375 218.152344 63.234375 220.277344 C 64.902344 220.773438 66.710938 220.296875 67.941406 219.066406 C 69.171875 217.835938 69.628906 216.027344 69.152344 214.359375 C 67.027344 207.128906 67.027344 199.484375 69.152344 192.234375 C 69.648438 190.566406 69.171875 188.757812 67.941406 187.527344 C 66.710938 186.296875 64.902344 185.839844 63.234375 186.316406 C 56.003906 188.441406 48.359375 188.441406 41.109375 186.316406 C 39.441406 185.820312 37.632812 186.292969 36.402344 187.527344 C 35.171875 188.757812 34.714844 190.566406 35.191406 192.234375 C 37.316406 199.464844 37.316406 207.109375 35.191406 214.359375 C 34.695312 216.027344 35.171875 217.835938 36.402344 219.066406 C 37.316406 220 38.527344 220.476562 39.777344 220.476562 Z M 58.429688 197.058594 C 57.890625 201.210938 57.890625 205.402344 58.429688 209.574219 C 54.277344 209.039062 50.066406 209.039062 45.917969 209.574219 C 46.453125 205.421875 46.453125 201.230469 45.917969 197.058594 C 50.066406 197.597656 54.277344 197.597656 58.429688 197.058594 Z M 58.429688 197.058594 " fill-opacity="1" fill-rule="evenodd"/></g><path fill="#212121" d="M 270.960938 81.167969 C 273.601562 81.167969 275.726562 79.042969 275.726562 76.402344 L 275.726562 67.027344 C 275.726562 64.382812 273.601562 62.257812 270.960938 62.257812 C 268.316406 62.257812 266.195312 64.382812 266.195312 67.027344 L 266.195312 76.402344 C 266.195312 79.042969 268.320312 81.167969 270.960938 81.167969 Z M 270.960938 81.167969 " fill-opacity="1" fill-rule="evenodd"/><path fill="#212121" d="M 270.960938 114.933594 C 273.601562 114.933594 275.726562 112.808594 275.726562 110.164062 L 275.726562 100.789062 C 275.726562 98.148438 273.601562 96.023438 270.960938 96.023438 C 268.316406 96.023438 266.195312 98.148438 266.195312 100.789062 L 266.195312 110.167969 C 266.195312 112.785156 268.320312 114.933594 270.960938 114.933594 Z M 270.960938 114.933594 " fill-opacity="1" fill-rule="evenodd"/><path fill="#212121" d="M 283.136719 93.363281 L 292.507812 93.363281 C 295.152344 93.363281 297.277344 91.238281 297.277344 88.59375 C 297.277344 85.953125 295.152344 83.828125 292.507812 83.828125 L 283.136719 83.828125 C 280.492188 83.828125 278.367188 85.953125 278.367188 88.59375 C 278.367188 91.238281 280.511719 93.363281 283.136719 93.363281 Z M 283.136719 93.363281 " fill-opacity="1" fill-rule="evenodd"/><path fill="#212121" d="M 249.390625 93.363281 L 258.765625 93.363281 C 261.40625 93.363281 263.53125 91.238281 263.53125 88.59375 C 263.53125 85.953125 261.40625 83.828125 258.765625 83.828125 L 249.390625 83.828125 C 246.75 83.828125 244.625 85.953125 244.625 88.59375 C 244.625 91.238281 246.75 93.363281 249.390625 93.363281 Z M 249.390625 93.363281 " fill-opacity="1" fill-rule="evenodd"/><path fill="#212121" d="M 88.398438 263.734375 C 91.039062 263.734375 93.164062 261.609375 93.164062 258.96875 L 93.164062 249.59375 C 93.164062 246.953125 91.039062 244.828125 88.398438 244.828125 C 85.757812 244.828125 83.632812 246.953125 83.632812 249.59375 L 83.632812 258.96875 C 83.632812 261.609375 85.757812 263.734375 88.398438 263.734375 Z M 88.398438 263.734375 " fill-opacity="1" fill-rule="evenodd"/><path fill="#212121" d="M 88.398438 297.480469 C 91.039062 297.480469 93.164062 295.355469 93.164062 292.714844 L 93.164062 283.339844 C 93.164062 280.699219 91.039062 278.574219 88.398438 278.574219 C 85.757812 278.574219 83.632812 280.699219 83.632812 283.339844 L 83.632812 292.714844 C 83.632812 295.355469 85.757812 297.480469 88.398438 297.480469 Z M 88.398438 297.480469 " fill-opacity="1" fill-rule="evenodd"/><path fill="#212121" d="M 100.59375 275.929688 L 109.96875 275.929688 C 112.609375 275.929688 114.734375 273.804688 114.734375 271.164062 C 114.734375 268.523438 112.609375 266.398438 109.96875 266.398438 L 100.59375 266.398438 C 97.953125 266.398438 95.828125 268.523438 95.828125 271.164062 C 95.828125 273.804688 97.953125 275.929688 100.59375 275.929688 Z M 100.59375 275.929688 " fill-opacity="1" fill-rule="evenodd"/><path fill="#212121" d="M 66.828125 275.929688 L 76.203125 275.929688 C 78.847656 275.929688 80.96875 273.804688 80.96875 271.164062 C 80.96875 268.523438 78.84375 266.398438 76.203125 266.398438 L 66.828125 266.398438 C 64.1875 266.398438 62.0625 268.523438 62.0625 271.164062 C 62.0625 273.804688 64.207031 275.929688 66.828125 275.929688 Z M 66.828125 275.929688 " fill-opacity="1" fill-rule="evenodd"/><path fill="#212121" d="M 113.917969 101.644531 C 115.132812 101.644531 116.363281 101.1875 117.296875 100.253906 L 123.929688 93.621094 C 125.796875 91.753906 125.796875 88.734375 123.929688 86.886719 C 122.0625 85.019531 119.046875 85.019531 117.199219 86.886719 L 110.566406 93.519531 C 108.699219 95.386719 108.699219 98.40625 110.566406 100.253906 C 111.476562 101.167969 112.6875 101.644531 113.917969 101.644531 Z M 113.917969 101.644531 " fill-opacity="1" fill-rule="evenodd"/><path fill="#212121" d="M 90.046875 125.5 C 91.257812 125.5 92.488281 125.042969 93.421875 124.109375 L 100.054688 117.472656 C 101.921875 115.605469 101.921875 112.589844 100.054688 110.742188 C 98.191406 108.875 95.171875 108.875 93.324219 110.742188 L 86.691406 117.375 C 84.824219 119.242188 84.824219 122.261719 86.691406 124.105469 C 87.605469 125.042969 88.835938 125.5 90.046875 125.5 Z M 90.046875 125.5 " fill-opacity="1" fill-rule="evenodd"/><path fill="#212121" d="M 120.53125 125.5 C 121.746094 125.5 122.976562 125.042969 123.910156 124.109375 C 125.777344 122.242188 125.777344 119.222656 123.910156 117.375 L 117.277344 110.742188 C 115.410156 108.875 112.390625 108.875 110.542969 110.742188 C 108.675781 112.609375 108.675781 115.628906 110.542969 117.476562 L 117.175781 124.109375 C 118.109375 125.042969 119.320312 125.5 120.53125 125.5 Z M 120.53125 125.5 " fill-opacity="1" fill-rule="evenodd"/><path fill="#212121" d="M 96.679688 101.644531 C 97.894531 101.644531 99.125 101.1875 100.054688 100.253906 C 101.921875 98.386719 101.921875 95.367188 100.054688 93.519531 L 93.421875 86.886719 C 91.554688 85.019531 88.539062 85.019531 86.691406 86.886719 C 84.824219 88.753906 84.824219 91.773438 86.691406 93.621094 L 93.324219 100.253906 C 94.238281 101.167969 95.449219 101.644531 96.679688 101.644531 Z M 96.679688 101.644531 " fill-opacity="1" fill-rule="evenodd"/><g clip-path="url(#4018161598)"><path fill="#212121" d="M 335.148438 340.125 C 336.382812 340.125 337.613281 339.648438 338.527344 338.734375 C 339.9375 337.324219 340.316406 335.179688 339.480469 333.371094 L 256.125 151.894531 C 255.03125 149.511719 252.191406 148.457031 249.808594 149.550781 C 247.425781 150.644531 246.371094 153.484375 247.464844 155.867188 L 325.457031 325.644531 L 155.6875 247.648438 C 153.304688 246.554688 150.464844 247.589844 149.371094 249.992188 C 148.277344 252.375 149.3125 255.214844 151.714844 256.308594 L 333.183594 339.667969 C 333.800781 339.984375 334.476562 340.125 335.148438 340.125 Z M 335.148438 340.125 " fill-opacity="1" fill-rule="evenodd"/></g><path fill="#212121" d="M 156.363281 257.679688 C 158.269531 257.679688 160.453125 257.222656 162.917969 256.308594 C 166.867188 254.839844 171.753906 252.136719 177.453125 248.285156 C 188.757812 240.636719 202.300781 229.117188 215.628906 215.789062 C 228.953125 202.460938 240.472656 188.917969 248.121094 177.617188 C 251.972656 171.933594 254.65625 167.03125 256.144531 163.078125 C 258.25 157.4375 257.933594 153.207031 255.210938 150.503906 C 252.492188 147.785156 248.261719 147.464844 242.640625 149.570312 C 238.6875 151.042969 233.800781 153.742188 228.101562 157.59375 C 216.800781 165.242188 203.253906 176.761719 189.929688 190.089844 C 176.621094 203.398438 165.082031 216.960938 157.4375 228.265625 C 153.582031 233.945312 150.902344 238.851562 149.410156 242.800781 C 147.304688 248.445312 147.625 252.675781 150.34375 255.375 C 151.855469 256.902344 153.878906 257.679688 156.363281 257.679688 Z M 247.742188 157.953125 C 247.207031 160.195312 245.242188 165.261719 238.308594 175.015625 C 231.039062 185.261719 220.574219 197.339844 208.875 209.058594 C 197.175781 220.777344 185.082031 231.222656 174.832031 238.492188 C 165.082031 245.425781 160.015625 247.390625 157.773438 247.925781 C 158.308594 245.683594 160.273438 240.617188 167.207031 230.867188 C 174.476562 220.617188 184.941406 208.539062 196.640625 196.824219 C 208.339844 185.105469 220.433594 174.65625 230.660156 167.386719 C 240.433594 160.457031 245.5 158.488281 247.742188 157.953125 Z M 247.742188 157.953125 " fill-opacity="1" fill-rule="evenodd"/><path fill="#212121" d="M 262.398438 306.714844 C 263.09375 306.714844 263.789062 306.578125 264.445312 306.257812 C 278.269531 299.707031 295.191406 296.089844 314.792969 295.515625 C 317.414062 295.433594 319.5 293.25 319.421875 290.609375 C 319.339844 287.988281 317.15625 285.902344 314.515625 285.980469 C 293.601562 286.597656 275.371094 290.507812 260.355469 297.640625 C 257.96875 298.773438 256.957031 301.613281 258.089844 303.996094 C 258.925781 305.703125 260.632812 306.714844 262.398438 306.714844 Z M 262.398438 306.714844 " fill-opacity="1" fill-rule="evenodd"/><path fill="#212121" d="M 217.195312 285.941406 C 217.453125 285.941406 217.714844 285.921875 217.972656 285.882812 C 259.003906 279.109375 285.339844 264.90625 296.261719 243.636719 C 297.453125 241.292969 296.539062 238.414062 294.195312 237.21875 C 291.855469 236.007812 288.972656 236.941406 287.78125 239.285156 C 278.328125 257.71875 254.316406 270.230469 216.421875 276.488281 C 213.820312 276.921875 212.074219 279.367188 212.488281 281.96875 C 212.867188 284.273438 214.894531 285.941406 217.195312 285.941406 Z M 217.195312 285.941406 " fill-opacity="1" fill-rule="evenodd"/><path fill="#212121" d="M 192.050781 274.382812 C 193.484375 274.382812 194.910156 273.726562 195.847656 272.515625 C 204.007812 261.808594 214.832031 252.890625 228.039062 245.980469 C 244.027344 237.617188 255.46875 229.710938 263.054688 221.789062 C 270.183594 214.339844 274.316406 206.574219 276.023438 197.378906 C 276.082031 197.121094 276.105469 196.859375 276.105469 196.601562 C 276.144531 195.332031 275.6875 194.101562 274.8125 193.1875 C 273.003906 191.261719 269.988281 191.160156 268.078125 192.96875 C 267.285156 193.703125 266.808594 194.65625 266.628906 195.648438 C 264.542969 206.8125 257.851562 219.601562 223.609375 237.519531 C 209.152344 245.085938 197.253906 254.898438 188.257812 266.714844 C 186.667969 268.800781 187.066406 271.800781 189.152344 273.386719 C 190.027344 274.0625 191.039062 274.382812 192.050781 274.382812 Z M 192.050781 274.382812 " fill-opacity="1" fill-rule="evenodd"/><path fill="#212121" d="M 216.125 148.179688 C 217.472656 148.179688 218.824219 147.605469 219.757812 146.492188 C 221.46875 144.488281 221.207031 141.46875 219.203125 139.78125 C 200.652344 124.046875 208.457031 104.265625 208.539062 104.066406 C 209.53125 101.625 208.378906 98.84375 205.9375 97.851562 C 203.492188 96.859375 200.714844 98.011719 199.71875 100.453125 C 199.601562 100.730469 196.980469 107.265625 197.335938 116.222656 C 197.675781 124.503906 200.652344 136.5625 213.046875 147.046875 C 213.9375 147.824219 215.03125 148.179688 216.125 148.179688 Z M 216.125 148.179688 " fill-opacity="1" fill-rule="evenodd"/><path fill="#212121" d="M 188.816406 150.425781 C 190.105469 150.425781 191.398438 149.890625 192.351562 148.855469 C 194.117188 146.910156 193.980469 143.890625 192.035156 142.121094 C 171.535156 123.53125 163.316406 106.410156 160 95.328125 C 156.601562 83.929688 157.65625 76.660156 157.675781 76.578125 C 158.113281 73.976562 156.34375 71.535156 153.761719 71.097656 C 151.160156 70.660156 148.71875 72.429688 148.28125 75.011719 C 148.21875 75.386719 146.789062 84.363281 150.882812 98.03125 C 153.226562 105.875 156.898438 113.761719 161.824219 121.484375 C 167.902344 131.019531 175.925781 140.335938 185.636719 149.152344 C 186.53125 150.007812 187.683594 150.425781 188.816406 150.425781 Z M 188.816406 150.425781 " fill-opacity="1" fill-rule="evenodd"/><path fill="#212121" d="M 148.972656 185.820312 C 140.15625 176.105469 130.839844 168.082031 121.308594 162.003906 C 113.582031 157.078125 105.695312 153.40625 97.851562 151.0625 C 84.167969 146.988281 75.210938 148.398438 74.832031 148.460938 C 72.230469 148.894531 70.484375 151.339844 70.921875 153.941406 C 71.359375 156.542969 73.800781 158.289062 76.402344 157.855469 C 76.480469 157.832031 83.730469 156.78125 95.132812 160.175781 C 106.214844 163.476562 123.3125 171.71875 141.921875 192.214844 C 143.691406 194.160156 146.710938 194.320312 148.65625 192.53125 C 149.691406 191.597656 150.226562 190.308594 150.226562 188.996094 C 150.226562 187.882812 149.808594 186.734375 148.972656 185.820312 Z M 148.972656 185.820312 " fill-opacity="1" fill-rule="evenodd"/><path fill="#212121" d="M 146.847656 213.246094 C 136.363281 200.855469 124.285156 197.875 116.023438 197.539062 C 107.066406 197.179688 100.53125 199.820312 100.253906 199.921875 C 97.8125 200.914062 96.660156 203.695312 97.652344 206.136719 C 98.648438 208.582031 101.425781 209.734375 103.871094 208.738281 C 104.070312 208.660156 123.851562 200.835938 139.582031 219.40625 C 141.289062 221.410156 144.289062 221.667969 146.292969 219.960938 C 147.40625 219.027344 147.980469 217.675781 147.980469 216.324219 C 147.980469 215.234375 147.625 214.140625 146.847656 213.246094 Z M 146.847656 213.246094 " fill-opacity="1" fill-rule="evenodd"/></svg>