<svg xmlns="http://www.w3.org/2000/svg" xmlns:xlink="http://www.w3.org/1999/xlink" width="500" zoomAndPan="magnify" viewBox="0 0 375 374.999991" height="500" preserveAspectRatio="xMidYMid meet" version="1.0"><defs><clipPath id="fe7dc01324"><path d="M 60.773438 23.449219 L 314.273438 23.449219 L 314.273438 351.199219 L 60.773438 351.199219 Z M 60.773438 23.449219 " clip-rule="nonzero"/></clipPath></defs><g clip-path="url(#fe7dc01324)"><path fill="#1a1a1a" d="M 314.277344 325.640625 L 314.277344 49.042969 C 314.277344 42.003906 311.398438 35.601562 306.757812 30.964844 C 302.113281 26.328125 295.707031 23.449219 288.65625 23.449219 L 86.417969 23.449219 C 79.367188 23.449219 72.957031 26.328125 68.316406 30.964844 C 63.675781 35.601562 60.792969 42.003906 60.792969 49.042969 L 60.792969 325.640625 C 60.792969 332.6875 63.675781 339.085938 68.316406 343.722656 C 72.957031 348.359375 79.367188 351.238281 86.417969 351.238281 L 288.65625 351.238281 C 295.707031 351.238281 302.113281 348.359375 306.757812 343.722656 C 311.398438 339.085938 314.277344 332.6875 314.277344 325.640625 Z M 98.265625 152.558594 L 124 152.558594 C 128.417969 152.558594 132.433594 154.128906 135.34375 156.648438 C 138.253906 159.175781 140.058594 162.664062 140.058594 166.5 L 140.058594 187.054688 C 140.058594 190.898438 138.253906 194.382812 135.34375 196.90625 C 132.433594 199.429688 128.417969 200.996094 124 200.996094 L 98.265625 200.996094 C 93.839844 200.996094 89.824219 199.429688 86.917969 196.90625 C 84.011719 194.382812 82.203125 190.898438 82.203125 187.054688 L 82.203125 166.5 C 82.203125 162.664062 84.011719 159.175781 86.917969 156.648438 C 89.824219 154.128906 93.839844 152.558594 98.265625 152.558594 Z M 172.488281 152.558594 L 198.222656 152.558594 C 202.648438 152.558594 206.660156 154.128906 209.566406 156.648438 C 212.480469 159.175781 214.285156 162.664062 214.285156 166.5 L 214.285156 187.054688 C 214.285156 190.898438 212.480469 194.382812 209.566406 196.90625 C 206.660156 199.429688 202.648438 200.996094 198.222656 200.996094 L 172.488281 200.996094 C 168.066406 200.996094 164.050781 199.429688 161.144531 196.90625 C 158.234375 194.382812 156.429688 190.898438 156.429688 187.054688 L 156.429688 166.5 C 156.429688 162.664062 158.234375 159.175781 161.144531 156.648438 C 164.050781 154.128906 168.066406 152.558594 172.488281 152.558594 Z M 246.714844 152.558594 L 272.449219 152.558594 C 276.871094 152.558594 280.886719 154.128906 283.792969 156.648438 C 286.703125 159.175781 288.507812 162.664062 288.507812 166.5 L 288.507812 187.054688 C 288.507812 190.898438 286.703125 194.382812 283.792969 196.90625 C 280.886719 199.429688 276.871094 200.996094 272.449219 200.996094 L 246.714844 200.996094 C 242.292969 200.996094 238.277344 199.429688 235.367188 196.90625 C 232.460938 194.382812 230.652344 190.898438 230.652344 187.054688 L 230.652344 166.5 C 230.652344 162.664062 232.460938 159.175781 235.367188 156.648438 C 238.277344 154.128906 242.292969 152.558594 246.714844 152.558594 Z M 98.265625 216.238281 L 124 216.238281 C 128.417969 216.238281 132.433594 217.804688 135.34375 220.332031 C 138.253906 222.855469 140.058594 226.339844 140.058594 230.175781 L 140.058594 250.734375 C 140.058594 254.574219 138.253906 258.0625 135.34375 260.585938 C 132.433594 263.109375 128.417969 264.675781 124 264.675781 L 98.265625 264.675781 C 93.839844 264.675781 89.824219 263.109375 86.917969 260.585938 C 84.011719 258.0625 82.203125 254.574219 82.203125 250.734375 L 82.203125 230.175781 C 82.203125 226.339844 84.011719 222.855469 86.917969 220.332031 C 89.824219 217.804688 93.839844 216.238281 98.265625 216.238281 Z M 172.488281 216.238281 L 198.222656 216.238281 C 202.648438 216.238281 206.660156 217.804688 209.566406 220.332031 C 212.480469 222.855469 214.285156 226.339844 214.285156 230.175781 L 214.285156 250.734375 C 214.285156 254.574219 212.480469 258.0625 209.566406 260.585938 C 206.660156 263.109375 202.648438 264.675781 198.222656 264.675781 L 172.488281 264.675781 C 168.066406 264.675781 164.050781 263.109375 161.144531 260.585938 C 158.234375 258.0625 156.429688 254.574219 156.429688 250.734375 L 156.429688 230.175781 C 156.429688 226.339844 158.234375 222.855469 161.144531 220.332031 C 164.050781 217.804688 168.066406 216.238281 172.488281 216.238281 Z M 246.714844 216.238281 L 272.449219 216.238281 C 276.871094 216.238281 280.886719 217.804688 283.792969 220.332031 C 286.703125 222.855469 288.507812 226.339844 288.507812 230.175781 L 288.507812 314.417969 C 288.507812 318.253906 286.703125 321.742188 283.792969 324.261719 C 280.886719 326.789062 276.871094 328.355469 272.449219 328.355469 L 246.714844 328.355469 C 242.292969 328.355469 238.277344 326.789062 235.367188 324.261719 C 232.460938 321.742188 230.652344 318.253906 230.652344 314.417969 L 230.652344 230.175781 C 230.652344 226.339844 232.460938 222.855469 235.367188 220.332031 C 238.277344 217.804688 242.292969 216.238281 246.714844 216.238281 Z M 98.265625 279.917969 L 124 279.917969 C 128.417969 279.917969 132.433594 281.484375 135.34375 284.011719 C 138.253906 286.53125 140.058594 290.019531 140.058594 293.859375 L 140.058594 314.417969 C 140.058594 318.253906 138.253906 321.742188 135.34375 324.261719 C 132.433594 326.789062 128.417969 328.355469 124 328.355469 L 98.265625 328.355469 C 93.839844 328.355469 89.824219 326.789062 86.917969 324.261719 C 84.011719 321.742188 82.203125 318.253906 82.203125 314.417969 L 82.203125 293.859375 C 82.203125 290.019531 84.011719 286.53125 86.917969 284.011719 C 89.824219 281.484375 93.839844 279.917969 98.265625 279.917969 Z M 172.488281 279.917969 L 198.222656 279.917969 C 202.648438 279.917969 206.660156 281.484375 209.566406 284.011719 C 212.480469 286.53125 214.285156 290.019531 214.285156 293.859375 L 214.285156 314.417969 C 214.285156 318.253906 212.480469 321.742188 209.566406 324.261719 C 206.660156 326.789062 202.648438 328.355469 198.222656 328.355469 L 172.488281 328.355469 C 168.066406 328.355469 164.050781 326.789062 161.144531 324.261719 C 158.234375 321.742188 156.429688 318.253906 156.429688 314.417969 L 156.429688 293.859375 C 156.429688 290.019531 158.234375 286.53125 161.144531 284.011719 C 164.050781 281.484375 168.066406 279.917969 172.488281 279.917969 Z M 289.113281 115.675781 C 289.113281 118.867188 287.710938 121.769531 285.457031 123.882812 C 283.199219 125.992188 280.089844 127.300781 276.675781 127.300781 L 98.398438 127.300781 C 94.984375 127.300781 91.875 125.992188 89.621094 123.882812 C 87.367188 121.769531 85.964844 118.867188 85.964844 115.675781 L 85.964844 64.554688 C 85.964844 61.363281 87.367188 58.457031 89.621094 56.347656 C 91.875 54.234375 94.984375 52.925781 98.398438 52.925781 L 276.675781 52.925781 C 280.089844 52.925781 283.199219 54.234375 285.457031 56.347656 C 287.710938 58.457031 289.113281 61.363281 289.113281 64.554688 L 289.113281 115.675781 " fill-opacity="1" fill-rule="evenodd"/></g></svg>