<svg xmlns="http://www.w3.org/2000/svg" xmlns:xlink="http://www.w3.org/1999/xlink" width="500" zoomAndPan="magnify" viewBox="0 0 375 374.999991" height="500" preserveAspectRatio="xMidYMid meet" version="1.0"><defs><clipPath id="e676f74b6b"><path d="M 25.046875 25.046875 L 349.796875 25.046875 L 349.796875 349.796875 L 25.046875 349.796875 Z M 25.046875 25.046875 " clip-rule="nonzero"/></clipPath></defs><g clip-path="url(#e676f74b6b)"><path fill="#000000" d="M 187.421875 48.6875 C 263.917969 48.6875 326.152344 110.925781 326.152344 187.421875 C 326.152344 263.917969 263.917969 326.152344 187.421875 326.152344 C 110.925781 326.152344 48.6875 263.917969 48.6875 187.421875 C 48.6875 110.925781 110.925781 48.6875 187.421875 48.6875 Z M 187.421875 349.796875 C 276.957031 349.796875 349.796875 276.957031 349.796875 187.421875 C 349.796875 97.886719 276.957031 25.046875 187.421875 25.046875 C 97.886719 25.046875 25.046875 97.886719 25.046875 187.421875 C 25.046875 276.957031 97.886719 349.796875 187.421875 349.796875 " fill-opacity="1" fill-rule="nonzero"/></g><path fill="#000000" d="M 128.351562 246.488281 C 131.121094 249.261719 134.75 250.644531 138.378906 250.644531 C 142.011719 250.644531 145.640625 249.261719 148.414062 246.488281 L 187.421875 207.480469 L 226.429688 246.488281 C 229.199219 249.261719 232.828125 250.644531 236.460938 250.644531 C 240.089844 250.644531 243.722656 249.261719 246.488281 246.488281 C 252.03125 240.949219 252.03125 231.96875 246.488281 226.429688 L 207.480469 187.421875 L 246.488281 148.414062 C 252.03125 142.871094 252.03125 133.894531 246.488281 128.351562 C 240.949219 122.8125 231.96875 122.8125 226.429688 128.351562 L 187.421875 167.359375 L 148.414062 128.351562 C 142.871094 122.8125 133.890625 122.8125 128.351562 128.351562 C 122.8125 133.894531 122.8125 142.871094 128.351562 148.414062 L 167.359375 187.421875 L 128.351562 226.429688 C 122.8125 231.96875 122.8125 240.949219 128.351562 246.488281 " fill-opacity="1" fill-rule="nonzero"/></svg>