<svg xmlns="http://www.w3.org/2000/svg" xmlns:xlink="http://www.w3.org/1999/xlink" width="500" zoomAndPan="magnify" viewBox="0 0 375 374.999991" height="500" preserveAspectRatio="xMidYMid meet" version="1.0"><defs><clipPath id="631de1e7bf"><path d="M 14.378906 18 L 360 18 L 360 357.835938 L 14.378906 357.835938 Z M 14.378906 18 " clip-rule="nonzero"/></clipPath></defs><g clip-path="url(#631de1e7bf)"><path fill="#000000" d="M 357.214844 82.109375 C 356.367188 79.835938 353.628906 79.011719 351.585938 78.03125 C 337.539062 73.066406 322.644531 71.28125 308.09375 68.28125 C 304.175781 67.296875 300.207031 66.476562 296.257812 65.601562 C 297.324219 61.933594 298.167969 58.167969 299.132812 54.460938 C 299.472656 52.761719 299.9375 50.902344 299.425781 49.191406 C 297.230469 43.902344 290.871094 43.664062 286.683594 41.628906 C 280.808594 38.503906 279.125 54.035156 277.324219 58.453125 C 277.0625 59.40625 276.753906 60.425781 276.433594 61.476562 C 259.914062 58.300781 243.308594 55.414062 226.917969 51.773438 C 226.019531 51.609375 225.132812 51.386719 224.238281 51.214844 C 210.109375 47.386719 196.082031 43.027344 181.769531 40.304688 C 181.800781 40.199219 181.855469 40.035156 181.882812 39.933594 C 183.027344 35.285156 185.203125 30.695312 185.433594 25.921875 C 184.40625 18.824219 176.46875 16.910156 170.585938 19.269531 C 167.207031 21.464844 166.109375 26.011719 165.003906 29.671875 C 164.382812 31.609375 163.972656 33.59375 163.480469 35.5625 C 160.058594 34.515625 156.632812 33.484375 153.214844 32.417969 C 141.605469 28.820312 129.4375 27.96875 117.636719 25.226562 C 115.050781 24.910156 112.382812 23.953125 109.792969 24.277344 C 108.175781 24.671875 107.714844 25.363281 107.839844 26.074219 C 107.421875 26.40625 107.074219 26.832031 106.832031 27.347656 C 105.140625 34.449219 104.09375 41.757812 102.398438 48.878906 C 96.898438 69.109375 92.480469 89.847656 88.308594 110.433594 C 77.839844 152.3125 69.207031 195.214844 50.449219 234.417969 C 43.886719 249.105469 35.019531 262.570312 26.140625 275.933594 C 23.304688 280.335938 19.886719 284.386719 17.164062 288.875 C 17.070312 288.984375 16.933594 289.019531 16.863281 289.160156 C 16.285156 290.132812 15.71875 291.199219 15.242188 292.300781 C 14.8125 293.121094 14.523438 293.976562 14.484375 294.878906 C 14.367188 295.648438 14.390625 296.417969 14.5625 297.191406 C 14.515625 297.191406 14.472656 297.175781 14.425781 297.175781 C 14.472656 297.191406 14.519531 297.214844 14.566406 297.230469 C 14.601562 297.390625 14.570312 297.550781 14.621094 297.710938 C 15.746094 299.132812 17.863281 299.46875 19.46875 300.191406 C 22.546875 301.550781 25.730469 302.605469 28.9375 303.671875 C 31.777344 305 34.636719 306.28125 37.582031 307.273438 C 70.28125 321.441406 102.914062 339.5625 139.09375 342.242188 C 139.09375 342.238281 139.074219 342.238281 139.074219 342.238281 C 148.5 343.613281 157.757812 341.238281 166.890625 339.203125 C 167.335938 339.136719 167.964844 339.007812 168.546875 338.785156 C 169.515625 338.566406 170.488281 338.378906 171.445312 338.132812 C 178.328125 339.59375 185.324219 340.605469 192.390625 341.546875 C 198.851562 342.410156 205.363281 343.273438 211.863281 344.574219 C 232.378906 347.5 253.222656 353.328125 274.65625 356.78125 C 275.183594 357.042969 275.683594 357.210938 276.15625 357.28125 C 276.207031 357.289062 276.257812 357.292969 276.308594 357.296875 C 276.730469 357.34375 277.078125 357.140625 277.460938 357.046875 C 279.855469 357.394531 281.722656 355.152344 283.636719 354.164062 C 289.445312 351.332031 296.070312 348.949219 299.09375 342.808594 C 303.519531 332.753906 304.75 321.371094 307.164062 310.472656 C 309.765625 300.132812 312.753906 289.917969 315.667969 279.6875 C 321.117188 261.625 324.6875 242.988281 330.308594 224.976562 C 335.550781 205.710938 339.25 186.222656 344.386719 167.007812 C 348.441406 148.851562 350.308594 130.433594 353.726562 112.21875 C 354.632812 109.230469 355.605469 106.269531 356.3125 103.207031 C 356.597656 102.464844 356.683594 101.707031 356.785156 100.949219 C 357.066406 100.199219 357.292969 99.425781 357.59375 98.679688 C 358.625 94.023438 361.109375 85.546875 357.214844 82.109375 Z M 285.566406 46.351562 C 288.851562 47.699219 292.261719 48.703125 295.292969 50.792969 C 294.476562 55.46875 293.308594 60.101562 291.898438 64.613281 C 288.09375 63.804688 284.28125 63.011719 280.457031 62.261719 C 281.914062 56.863281 283.425781 51.488281 285.566406 46.351562 Z M 279.101562 67.269531 C 282.796875 68.191406 286.472656 69.09375 290.160156 70.019531 C 288.730469 73.988281 288.167969 79.757812 284.285156 81.253906 C 283.78125 81.027344 283.289062 80.765625 282.785156 80.558594 C 280.984375 80.308594 279.765625 78.882812 278.164062 78.078125 C 277.761719 76.824219 277.304688 75.496094 277.140625 74.0625 C 277.84375 71.816406 278.480469 69.546875 279.101562 67.269531 Z M 176.132812 44.464844 C 175.152344 48.441406 174.019531 52.371094 171.964844 55.847656 C 171.507812 56.589844 171.308594 57.449219 170.8125 58.152344 C 170.054688 58.527344 169.339844 58.746094 168.371094 59.121094 C 167.179688 58.941406 166.074219 58.410156 165.050781 57.734375 C 163.476562 57.257812 162.386719 56.269531 161.855469 54.675781 C 163.503906 50.707031 164.554688 46.511719 165.59375 42.3125 C 169.109375 43.015625 172.621094 43.742188 176.132812 44.464844 Z M 172.367188 23.421875 L 172.367188 23.414062 C 173.304688 23.300781 174.132812 23.242188 174.871094 23.242188 C 183.308594 23.246094 179.332031 30.46875 177.984375 36.980469 C 177.753906 37.832031 177.554688 38.714844 177.34375 39.582031 C 177.078125 39.539062 176.8125 39.496094 176.546875 39.453125 C 173.398438 38.539062 170.253906 37.621094 167.113281 36.671875 C 168.363281 32.070312 169.816406 27.542969 172.367188 23.421875 Z M 103.328125 60.695312 C 105.246094 51.074219 107.332031 41.511719 109.230469 31.890625 C 109.59375 30.847656 109.148438 28.800781 110.402344 28.410156 C 110.523438 28.453125 110.648438 28.511719 110.765625 28.539062 C 116.410156 30.449219 121.359375 32.671875 127.230469 34.519531 C 135.109375 36.484375 143.21875 37.460938 151.125 39.363281 C 151.101562 39.359375 151.074219 39.351562 151.050781 39.347656 C 150.964844 39.328125 150.882812 39.308594 150.796875 39.289062 C 154.546875 40 158.277344 40.839844 162.023438 41.582031 C 161.390625 44.726562 160.820312 47.886719 160.273438 51.0625 C 157.59375 57.585938 160.675781 61.105469 167.042969 62.679688 C 167.4375 62.777344 167.824219 62.820312 168.207031 62.820312 C 170.039062 62.820312 171.765625 61.828125 173.347656 60.761719 C 174.464844 59.71875 174.636719 58.097656 175.652344 56.980469 C 177.0625 54.4375 178.828125 49.570312 180.222656 45.300781 C 191.851562 47.71875 203.5 50.0625 215.121094 52.5625 C 217.875 53.214844 220.628906 53.871094 223.367188 54.570312 C 236.652344 57.53125 249.972656 61.042969 263.367188 63.492188 C 267.222656 64.382812 271.09375 65.53125 275.023438 66.316406 C 273.519531 71.921875 272.691406 77.878906 276.207031 82.039062 C 277.441406 82.507812 278.292969 83.726562 279.492188 84.238281 C 281.148438 84.609375 282.628906 85.652344 284.285156 85.859375 C 290.503906 85.027344 292.371094 77.046875 294.484375 71.09375 C 297.234375 71.785156 300 72.457031 302.742188 73.148438 C 312.507812 75.316406 323.628906 76.921875 333.753906 79.132812 C 340.09375 80.539062 346.792969 82.96875 353.347656 84.28125 C 353.453125 84.945312 353.621094 85.59375 353.757812 86.25 C 354.539062 89.988281 352.964844 94.105469 352.289062 97.832031 C 348.839844 106.578125 345.824219 115.570312 342.40625 124.382812 C 342.03125 125.25 341.613281 126.097656 341.234375 126.960938 C 320.589844 120.242188 299.429688 115.082031 278.410156 109.667969 C 243.03125 98.082031 206.671875 89.957031 170.058594 83.4375 C 152.851562 78.453125 135.613281 74.554688 117.792969 72.09375 C 112.289062 71.0625 106.847656 69.613281 101.347656 68.574219 C 102.058594 65.960938 102.742188 63.339844 103.328125 60.695312 Z M 42.289062 257.074219 C 53.585938 237.726562 63.964844 217.859375 71.492188 196.625 C 83.0625 163.285156 87.75 128.207031 95.167969 93.84375 C 96.296875 86.199219 98.515625 78.773438 100.597656 71.308594 C 112.210938 74.765625 124.308594 76.398438 136.144531 79.203125 C 146.445312 81.875 157.125 84.679688 167.460938 87.425781 C 185.777344 90.78125 203.691406 94.128906 221.878906 98.695312 C 248.511719 105.976562 275.160156 112.953125 302.011719 119.457031 C 314.566406 122.925781 326.890625 127.375 339.429688 130.945312 C 326.1875 160.714844 311.195312 189.679688 295.222656 218.117188 C 291.339844 224.804688 287.394531 231.496094 283.324219 238.125 C 279.71875 243.011719 276.304688 248.039062 272.230469 252.660156 C 271.589844 253.605469 270.804688 254.421875 269.980469 255.203125 C 257.894531 264.917969 245.53125 274.375 232.148438 282.230469 C 218.691406 289.578125 203.769531 293.410156 188.570312 294.898438 C 185.523438 295.109375 182.421875 295.273438 179.46875 294.46875 C 175.425781 293.296875 171.234375 292.851562 168.214844 296.398438 C 162.800781 303.222656 157.90625 310.539062 151.015625 316.175781 C 148.527344 318.023438 145.921875 320.023438 143.210938 321.964844 C 136.304688 326.804688 129.425781 333.125 120.585938 333.808594 C 117.722656 333.96875 114.835938 333.941406 111.953125 333.957031 C 86.421875 326.878906 62.21875 314.207031 37.835938 304.011719 C 36.316406 302.535156 33.925781 301.964844 31.945312 301.234375 C 27.800781 299.859375 23.566406 298.300781 19.46875 296.601562 C 18.984375 296.082031 18.4375 295.625 17.765625 295.351562 C 17.785156 295.226562 17.804688 295.101562 17.832031 294.976562 C 18.027344 294.203125 18.3125 293.445312 18.664062 292.703125 C 18.859375 292.332031 19.0625 291.960938 19.261719 291.59375 C 20.722656 289.03125 22.78125 286.625 24.328125 284.183594 C 30.671875 275.523438 36.421875 266.105469 42.289062 257.074219 Z M 145.589844 339.339844 C 138.101562 339.175781 130.808594 338.105469 123.601562 336.679688 C 142.882812 333.5 158.910156 320.308594 168.445312 302.867188 C 171.335938 298.117188 171.941406 295.257812 178.152344 297.835938 C 203.300781 305.519531 227.546875 289.660156 247.691406 276.25 C 254.3125 270.980469 261.464844 266.25 268.191406 261.042969 C 268.25 261 268.308594 260.976562 268.371094 260.933594 C 258.710938 274.535156 247.992188 287.316406 235.390625 298.398438 C 219.832031 312.976562 201.253906 324.191406 181.230469 331.5625 C 176.660156 333.183594 172.015625 334.492188 167.351562 335.761719 C 160.140625 337.222656 153.027344 339.367188 145.589844 339.339844 Z M 180.421875 335.488281 C 180.394531 335.484375 180.363281 335.476562 180.335938 335.472656 C 195.171875 330.371094 209.207031 322.414062 221.945312 313.671875 C 253.484375 291.160156 275.503906 258.589844 294.738281 225.542969 C 294.769531 225.492188 294.796875 225.4375 294.828125 225.386719 C 296.519531 223.097656 298.003906 220.59375 299.582031 218.320312 C 304.460938 211.117188 309.398438 203.792969 313.726562 196.175781 C 322.425781 181.574219 330.28125 166.503906 337.3125 151.050781 C 327.636719 179.296875 317.453125 207.226562 309.726562 236.070312 C 302.585938 261.398438 297.492188 287.214844 290.195312 312.585938 C 288.792969 317.996094 287.875 323.53125 286.730469 328.996094 C 286.703125 329.035156 286.644531 329.023438 286.621094 329.0625 C 285.054688 333.316406 284.234375 337.941406 282.792969 342.253906 C 281.261719 345.984375 279.480469 350.65625 276.613281 353.460938 C 276.507812 353.554688 276.410156 353.65625 276.304688 353.75 C 270.070312 351.445312 263.914062 348.617188 257.503906 347.574219 C 231.121094 342.382812 205.34375 340.03125 180.421875 335.488281 Z M 339.335938 168.109375 C 334.023438 185.554688 330.992188 203.636719 326.15625 221.226562 C 320.871094 238.945312 316.667969 257.179688 312.535156 275.316406 C 308.9375 289.242188 304.613281 302.929688 301.761719 317.097656 C 299.660156 326.230469 299.144531 337.480469 292.878906 344.410156 C 290.171875 346.78125 286.707031 348.039062 283.464844 349.617188 C 283.46875 349.613281 283.46875 349.605469 283.472656 349.601562 C 285.59375 346.542969 286.902344 342.609375 287.945312 339.011719 C 290.460938 332.636719 291.929688 326.066406 293.738281 319.367188 C 302.585938 292.628906 308.238281 265.613281 315.132812 238.296875 C 323.984375 204.335938 335.578125 171.234375 345.75 137.644531 C 344.089844 147.886719 342.261719 158.105469 339.335938 168.109375 Z M 339.335938 168.109375 " fill-opacity="1" fill-rule="nonzero"/></g><path fill="#000000" d="M 257.277344 347.519531 C 257.351562 347.53125 257.429688 347.558594 257.503906 347.574219 C 257.507812 347.574219 257.511719 347.574219 257.511719 347.574219 C 257.46875 347.558594 257.402344 347.542969 257.277344 347.519531 Z M 257.277344 347.519531 " fill-opacity="1" fill-rule="nonzero"/><path fill="#000000" d="M 146.5 249.730469 C 147.992188 252.507812 149.949219 255.761719 153.753906 256.226562 C 164.144531 257.636719 173.367188 250.574219 182.269531 245.964844 C 205.070312 233.824219 221.820312 212.40625 231.609375 188.496094 C 234.632812 180.246094 229.953125 173.027344 224.699219 167.371094 C 209.324219 153.511719 186.609375 177.816406 179.472656 191 C 181.308594 183.949219 183.039062 176.476562 182.339844 169.207031 C 180.527344 159.90625 173.671875 150.960938 164.023438 148.164062 C 163.195312 148.027344 162.460938 148.082031 161.667969 148.019531 C 155.359375 146.464844 150.015625 148.859375 145.71875 153.320312 C 145.488281 153.527344 145.292969 153.785156 145.074219 154.003906 C 144.714844 154.402344 144.347656 154.773438 144.007812 155.195312 C 131.648438 169.050781 130.265625 198.800781 131.648438 211.550781 C 133.136719 225.296875 137.628906 239.058594 146.5 249.730469 Z M 181.832031 196.703125 C 186.015625 189.820312 189.21875 182.207031 196.066406 176.503906 C 202.625 170.722656 214.441406 163.425781 221.15625 170.777344 C 226.199219 175.957031 230.347656 183.019531 226.34375 190.671875 C 215.640625 212.523438 198.667969 230.921875 177.652344 242.429688 C 170.644531 246.292969 164.101562 251.480469 155.875 252 C 155.5 251.976562 155.128906 251.898438 154.757812 251.839844 C 145.21875 235.246094 137.058594 216.140625 136.222656 195.648438 C 136.648438 188.636719 137.75 181.488281 139.34375 174.398438 C 142.089844 166.644531 145.730469 157.882812 154.160156 153.816406 C 161.273438 150.96875 169.332031 157.972656 173.132812 162.722656 C 176.007812 166.445312 177.808594 171.28125 177.535156 176.136719 C 177.238281 178.292969 176.859375 180.476562 176.5 182.667969 C 175.121094 187.160156 173.28125 191.59375 171.859375 195.796875 C 170.589844 199.25 169.933594 206.027344 175.964844 203.898438 C 179.152344 202.625 180.308594 199.328125 181.832031 196.703125 Z M 181.832031 196.703125 " fill-opacity="1" fill-rule="nonzero"/></svg>