<svg xmlns="http://www.w3.org/2000/svg" xmlns:xlink="http://www.w3.org/1999/xlink" width="500" zoomAndPan="magnify" viewBox="0 0 375 374.999991" height="500" preserveAspectRatio="xMidYMid meet" version="1.0"><defs><clipPath id="9b38258d91"><path d="M 43.101562 16.277344 L 331.851562 16.277344 L 331.851562 306 L 43.101562 306 Z M 43.101562 16.277344 " clip-rule="nonzero"/></clipPath><clipPath id="c61dfcd578"><path d="M 105 16.277344 L 331.851562 16.277344 L 331.851562 257 L 105 257 Z M 105 16.277344 " clip-rule="nonzero"/></clipPath><clipPath id="27795bd43e"><path d="M 177 16.277344 L 331.851562 16.277344 L 331.851562 193 L 177 193 Z M 177 16.277344 " clip-rule="nonzero"/></clipPath></defs><g clip-path="url(#9b38258d91)"><path fill="#764dbb" d="M 331.851562 160.828125 C 331.851562 168.636719 331.238281 176.289062 330.039062 183.761719 C 326.40625 206.609375 317.410156 227.679688 304.402344 245.625 C 278.160156 281.820312 235.566406 305.351562 187.46875 305.351562 C 107.738281 305.351562 43.101562 240.648438 43.101562 160.828125 C 43.101562 100.15625 80.460938 48.210938 133.398438 26.78125 C 150.101562 20.027344 168.347656 16.308594 187.46875 16.308594 C 191.714844 16.308594 195.925781 16.492188 200.078125 16.851562 C 273.90625 23.246094 331.851562 85.261719 331.851562 160.828125 Z M 331.851562 160.828125 " fill-opacity="1" fill-rule="nonzero"/></g><g clip-path="url(#c61dfcd578)"><path fill="#bb87f9" d="M 331.851562 160.828125 C 331.851562 168.636719 331.238281 176.289062 330.039062 183.761719 C 326.40625 206.609375 317.410156 227.679688 304.402344 245.625 C 287.699219 252.378906 269.441406 256.105469 250.328125 256.105469 C 170.597656 256.105469 105.960938 191.402344 105.960938 111.585938 C 105.960938 79.902344 116.144531 50.613281 133.410156 26.792969 C 150.101562 20.027344 168.347656 16.308594 187.46875 16.308594 C 191.714844 16.308594 195.925781 16.492188 200.078125 16.851562 C 273.90625 23.246094 331.851562 85.261719 331.851562 160.828125 Z M 331.851562 160.828125 " fill-opacity="0.44" fill-rule="nonzero"/></g><path fill="#ffffff" d="M 142.867188 64.535156 L 147.378906 73.691406 C 147.792969 74.546875 148.601562 75.136719 149.546875 75.261719 L 159.640625 76.730469 C 161.992188 77.074219 162.9375 79.972656 161.230469 81.636719 L 153.929688 88.761719 C 153.25 89.417969 152.9375 90.375 153.101562 91.3125 L 154.816406 101.367188 C 155.222656 103.722656 152.753906 105.511719 150.644531 104.40625 L 141.625 99.660156 C 140.78125 99.21875 139.789062 99.21875 138.949219 99.660156 L 129.929688 104.40625 C 127.816406 105.511719 125.347656 103.722656 125.753906 101.367188 L 127.472656 91.3125 C 127.632812 90.375 127.320312 89.429688 126.640625 88.761719 L 119.339844 81.636719 C 117.632812 79.972656 118.578125 77.074219 120.933594 76.730469 L 131.023438 75.261719 C 131.957031 75.125 132.765625 74.535156 133.191406 73.691406 L 137.703125 64.535156 C 138.773438 62.390625 141.820312 62.390625 142.867188 64.535156 Z M 142.867188 64.535156 " fill-opacity="1" fill-rule="nonzero"/><path fill="#ffffff" d="M 276.429688 199 L 280.941406 208.15625 C 281.355469 209.011719 282.164062 209.601562 283.109375 209.726562 L 293.203125 211.195312 C 295.554688 211.539062 296.5 214.4375 294.792969 216.101562 L 287.492188 223.222656 C 286.8125 223.882812 286.5 224.839844 286.660156 225.777344 L 288.378906 235.832031 C 288.785156 238.1875 286.316406 239.976562 284.203125 238.871094 L 275.183594 234.125 C 274.34375 233.683594 273.351562 233.683594 272.507812 234.125 L 263.488281 238.871094 C 261.378906 239.976562 258.910156 238.1875 259.316406 235.832031 L 261.035156 225.777344 C 261.195312 224.839844 260.882812 223.894531 260.203125 223.222656 L 252.902344 216.101562 C 251.195312 214.4375 252.140625 211.539062 254.492188 211.195312 L 264.585938 209.726562 C 265.519531 209.589844 266.328125 209 266.753906 208.15625 L 271.265625 199 C 272.324219 196.863281 275.371094 196.863281 276.429688 199 Z M 276.429688 199 " fill-opacity="1" fill-rule="nonzero"/><path fill="#ffffff" d="M 180.089844 199 L 184.597656 208.15625 C 185.015625 209.011719 185.820312 209.601562 186.765625 209.726562 L 196.859375 211.195312 C 199.210938 211.539062 200.15625 214.4375 198.449219 216.101562 L 191.148438 223.222656 C 190.46875 223.882812 190.15625 224.839844 190.320312 225.777344 L 192.039062 235.832031 C 192.441406 238.1875 189.972656 239.976562 187.863281 238.871094 L 178.84375 234.125 C 178 233.683594 177.007812 233.683594 176.167969 234.125 L 167.148438 238.871094 C 165.039062 239.976562 162.570312 238.1875 162.972656 235.832031 L 164.691406 225.777344 C 164.851562 224.839844 164.542969 223.894531 163.859375 223.222656 L 156.558594 216.101562 C 154.851562 214.4375 155.796875 211.539062 158.152344 211.195312 L 168.242188 209.726562 C 169.179688 209.589844 169.984375 209 170.410156 208.15625 L 174.921875 199 C 175.996094 196.863281 179.039062 196.863281 180.089844 199 Z M 180.089844 199 " fill-opacity="1" fill-rule="nonzero"/><path fill="#ffffff" d="M 170.089844 126.457031 L 172.753906 131.847656 C 172.996094 132.347656 173.480469 132.691406 174.035156 132.773438 L 179.984375 133.640625 C 181.378906 133.847656 181.933594 135.554688 180.917969 136.535156 L 176.617188 140.738281 C 176.214844 141.132812 176.039062 141.6875 176.132812 142.242188 L 177.148438 148.175781 C 177.390625 149.5625 175.9375 150.625 174.691406 149.964844 L 169.375 147.160156 C 168.878906 146.894531 168.289062 146.894531 167.792969 147.160156 L 162.476562 149.964844 C 161.230469 150.625 159.777344 149.5625 160.019531 148.175781 L 161.035156 142.242188 C 161.128906 141.6875 160.941406 141.132812 160.550781 140.738281 L 156.25 136.535156 C 155.246094 135.554688 155.796875 133.847656 157.183594 133.640625 L 163.132812 132.773438 C 163.6875 132.691406 164.160156 132.347656 164.414062 131.847656 L 167.078125 126.457031 C 167.667969 125.199219 169.464844 125.199219 170.089844 126.457031 Z M 170.089844 126.457031 " fill-opacity="1" fill-rule="nonzero"/><path fill="#ffffff" d="M 233.328125 166.164062 L 235.992188 171.554688 C 236.234375 172.050781 236.71875 172.398438 237.273438 172.480469 L 243.226562 173.347656 C 244.621094 173.554688 245.175781 175.261719 244.160156 176.242188 L 239.855469 180.445312 C 239.453125 180.839844 239.28125 181.394531 239.371094 181.949219 L 240.386719 187.882812 C 240.628906 189.269531 239.175781 190.328125 237.929688 189.671875 L 232.613281 186.867188 C 232.117188 186.601562 231.53125 186.601562 231.035156 186.867188 L 225.714844 189.671875 C 224.472656 190.328125 223.019531 189.269531 223.261719 187.882812 L 224.273438 181.949219 C 224.367188 181.394531 224.183594 180.839844 223.789062 180.445312 L 219.488281 176.242188 C 218.484375 175.261719 219.039062 173.554688 220.421875 173.347656 L 226.375 172.480469 C 226.929688 172.398438 227.402344 172.050781 227.65625 171.554688 L 230.320312 166.164062 C 230.90625 164.90625 232.707031 164.90625 233.328125 166.164062 Z M 233.328125 166.164062 " fill-opacity="1" fill-rule="nonzero"/><path fill="#ffffff" d="M 248.679688 65.253906 L 255.449219 78.96875 C 256.074219 80.238281 257.296875 81.128906 258.691406 81.324219 L 273.824219 83.53125 C 277.367188 84.050781 278.773438 88.390625 276.210938 90.894531 L 265.265625 101.574219 C 264.25 102.570312 263.789062 104 264.03125 105.398438 L 266.617188 120.476562 C 267.214844 124 263.523438 126.6875 260.363281 125.027344 L 246.824219 117.914062 C 245.566406 117.253906 244.066406 117.253906 242.808594 117.914062 L 229.28125 125.039062 C 226.121094 126.699219 222.417969 124.007812 223.03125 120.488281 L 225.613281 105.410156 C 225.855469 104.011719 225.394531 102.582031 224.378906 101.585938 L 213.421875 90.894531 C 210.859375 88.402344 212.28125 84.050781 215.808594 83.53125 L 230.941406 81.324219 C 232.347656 81.117188 233.558594 80.238281 234.183594 78.96875 L 240.953125 65.253906 C 242.53125 62.054688 247.101562 62.054688 248.679688 65.253906 Z M 248.679688 65.253906 " fill-opacity="1" fill-rule="nonzero"/><path fill="#ffffff" d="M 213.617188 39.167969 L 216.28125 44.5625 C 216.523438 45.058594 217.007812 45.40625 217.5625 45.484375 L 223.515625 46.351562 C 224.910156 46.558594 225.464844 48.269531 224.449219 49.25 L 220.144531 53.453125 C 219.742188 53.84375 219.570312 54.398438 219.660156 54.953125 L 220.675781 60.886719 C 220.917969 62.273438 219.464844 63.335938 218.21875 62.675781 L 212.902344 59.871094 C 212.40625 59.605469 211.820312 59.605469 211.324219 59.871094 L 206.003906 62.675781 C 204.757812 63.335938 203.304688 62.273438 203.546875 60.886719 L 204.5625 54.953125 C 204.65625 54.398438 204.472656 53.84375 204.078125 53.453125 L 199.777344 49.25 C 198.773438 48.269531 199.328125 46.558594 200.710938 46.351562 L 206.664062 45.484375 C 207.214844 45.40625 207.6875 45.058594 207.941406 44.5625 L 210.605469 39.167969 C 211.195312 37.910156 212.996094 37.910156 213.617188 39.167969 Z M 213.617188 39.167969 " fill-opacity="1" fill-rule="nonzero"/><g clip-path="url(#27795bd43e)"><path fill="#c4adf2" d="M 331.851562 160.828125 C 331.851562 168.636719 331.238281 176.289062 330.039062 183.761719 C 316.777344 189.5 302.140625 192.671875 286.765625 192.671875 C 226.445312 192.671875 177.550781 143.730469 177.550781 83.34375 C 177.550781 58.324219 185.949219 35.265625 200.066406 16.851562 C 273.90625 23.246094 331.851562 85.261719 331.851562 160.828125 Z M 331.851562 160.828125 " fill-opacity="0.33" fill-rule="nonzero"/></g><path fill="#ffffff" d="M 261.265625 64.015625 C 261.265625 64.015625 305.566406 84.003906 307.628906 127.183594 C 309.695312 170.367188 269.128906 139.042969 270.800781 104.75 C 272.476562 70.460938 236.15625 93.539062 240.285156 75.609375 C 244.402344 57.691406 261.265625 64.015625 261.265625 64.015625 Z M 261.265625 64.015625 " fill-opacity="0.33" fill-rule="nonzero"/><path fill="#f9bb31" d="M 268.898438 290.492188 L 268.898438 319.851562 L 105.925781 319.851562 L 105.925781 290.492188 C 105.925781 284.777344 110.5625 280.132812 116.273438 280.132812 L 258.554688 280.132812 C 264.261719 280.132812 268.898438 284.777344 268.898438 290.492188 Z M 268.898438 290.492188 " fill-opacity="1" fill-rule="nonzero"/><path fill="#f9bb31" d="M 298.195312 317.625 L 298.195312 346.984375 L 76.859375 346.984375 L 76.859375 317.625 C 76.859375 311.910156 81.496094 307.269531 87.207031 307.269531 L 287.851562 307.269531 C 293.558594 307.269531 298.195312 311.910156 298.195312 317.625 Z M 298.195312 317.625 " fill-opacity="1" fill-rule="nonzero"/><path fill="#ce6a0c" d="M 298.195312 317.625 L 298.195312 346.984375 L 76.859375 346.984375 L 76.859375 317.625 C 76.859375 311.910156 81.496094 307.269531 87.207031 307.269531 L 287.851562 307.269531 C 293.558594 307.269531 298.195312 311.910156 298.195312 317.625 Z M 298.195312 317.625 " fill-opacity="0.22" fill-rule="nonzero"/><path fill="#f29f06" d="M 301.667969 346.984375 C 304.863281 346.984375 307.652344 349.605469 307.757812 352.804688 C 307.816406 354.535156 307.132812 356.105469 306.003906 357.238281 C 304.917969 358.324219 303.421875 358.992188 301.769531 358.992188 L 70.5625 358.992188 C 67.367188 358.992188 64.566406 356.371094 64.472656 353.175781 C 64.414062 351.441406 65.097656 349.871094 66.226562 348.742188 C 67.3125 347.65625 68.808594 346.984375 70.460938 346.984375 Z M 301.667969 346.984375 " fill-opacity="1" fill-rule="nonzero"/><path fill="#ce6a0c" d="M 162.097656 280.019531 L 162.097656 307.269531 L 158.429688 307.269531 C 155.417969 307.269531 152.984375 309.703125 152.984375 312.71875 L 152.984375 346.984375 L 150.113281 346.984375 C 147.101562 347.007812 144.65625 349.457031 144.679688 352.46875 L 144.679688 358.992188 L 70.574219 358.992188 C 67.253906 358.992188 64.460938 356.28125 64.484375 352.957031 C 64.496094 351.316406 65.164062 349.835938 66.238281 348.765625 C 67.324219 347.679688 70.472656 346.984375 70.472656 346.984375 L 76.859375 346.984375 L 76.859375 317.625 C 76.859375 311.910156 81.496094 307.269531 87.207031 307.269531 L 105.925781 307.269531 L 105.925781 290.375 C 105.925781 284.660156 110.5625 280.019531 116.273438 280.019531 Z M 162.097656 280.019531 " fill-opacity="0.22" fill-rule="nonzero"/></svg>