<svg xmlns="http://www.w3.org/2000/svg" xmlns:xlink="http://www.w3.org/1999/xlink" width="500" zoomAndPan="magnify" viewBox="0 0 375 374.999991" height="500" preserveAspectRatio="xMidYMid meet" version="1.0"><defs><clipPath id="0319e3cede"><path d="M 21 78.300781 L 353.894531 78.300781 L 353.894531 307.800781 L 21 307.800781 Z M 21 78.300781 " clip-rule="nonzero"/></clipPath></defs><g clip-path="url(#0319e3cede)"><path fill="#000000" d="M 239.078125 200.65625 L 195.996094 240.796875 C 191.101562 245.363281 183.5 245.363281 178.601562 240.796875 L 138.488281 203.421875 L 44.171875 304.761719 C 48.832031 306.804688 53.980469 307.945312 59.402344 307.945312 C 59.402344 307.945312 315.199219 307.945312 315.199219 307.945312 C 320.71875 307.945312 325.964844 306.765625 330.691406 304.640625 Z M 25.96875 98.574219 L 119.835938 186.039062 L 25.628906 287.253906 C 22.996094 282.101562 21.519531 276.265625 21.519531 270.085938 C 21.519531 270.085938 21.519531 116.394531 21.519531 116.394531 C 21.519531 109.953125 23.128906 103.886719 25.96875 98.574219 Z M 348.632812 98.574219 C 351.472656 103.886719 353.082031 109.953125 353.082031 116.394531 L 353.082031 270.085938 C 353.082031 276.152344 351.65625 281.890625 349.109375 286.972656 L 257.738281 183.261719 Z M 329.671875 81.394531 L 187.296875 214.050781 L 44.933594 81.394531 C 49.386719 79.550781 54.277344 78.53125 59.402344 78.53125 C 59.402344 78.53125 315.199219 78.53125 315.199219 78.53125 C 320.324219 78.53125 325.214844 79.550781 329.671875 81.394531 Z M 329.671875 81.394531 " fill-opacity="1" fill-rule="evenodd"/></g></svg>