<svg xmlns="http://www.w3.org/2000/svg" xmlns:xlink="http://www.w3.org/1999/xlink" width="500" zoomAndPan="magnify" viewBox="0 0 375 374.999991" height="500" preserveAspectRatio="xMidYMid meet" version="1.0"><defs><clipPath id="33f024bfc4"><path d="M 141.453125 90.046875 L 233.703125 90.046875 L 233.703125 285 L 141.453125 285 Z M 141.453125 90.046875 " clip-rule="nonzero"/></clipPath><clipPath id="c23b3027f7"><path d="M 30.0625 30.0625 L 345.0625 30.0625 L 345.0625 345.0625 L 30.0625 345.0625 Z M 30.0625 30.0625 " clip-rule="nonzero"/></clipPath></defs><g clip-path="url(#33f024bfc4)"><path fill="#252627" d="M 212.292969 122.375 L 233.539062 122.375 L 233.539062 90.347656 L 206.410156 90.347656 L 206.410156 90.46875 C 170.746094 91.777344 163.390625 111.753906 162.777344 132.875 L 162.695312 132.875 L 162.695312 155.101562 L 141.453125 155.101562 L 141.453125 187.171875 L 162.695312 187.171875 L 162.695312 284.648438 L 200.8125 284.648438 L 200.8125 187.171875 L 228.144531 187.171875 L 233.539062 155.101562 L 200.8125 155.101562 L 200.8125 135.203125 C 200.8125 128.136719 205.554688 122.375 212.292969 122.375 Z M 212.292969 122.375 " fill-opacity="1" fill-rule="nonzero"/></g><g clip-path="url(#c23b3027f7)"><path fill="#000000" d="M 187.515625 30.023438 C 100.679688 30.023438 30.023438 100.679688 30.023438 187.515625 C 30.023438 274.351562 100.679688 345.003906 187.515625 345.003906 C 274.351562 345.003906 345.003906 274.351562 345.003906 187.515625 C 345.003906 100.679688 274.351562 30.023438 187.515625 30.023438 Z M 187.515625 325.320312 C 111.527344 325.320312 49.710938 263.484375 49.710938 187.515625 C 49.710938 111.546875 111.527344 49.710938 187.515625 49.710938 C 263.503906 49.710938 325.320312 111.546875 325.320312 187.515625 C 325.320312 263.484375 263.503906 325.320312 187.515625 325.320312 Z M 187.515625 325.320312 " fill-opacity="1" fill-rule="nonzero"/></g></svg>