<svg xmlns="http://www.w3.org/2000/svg" xmlns:xlink="http://www.w3.org/1999/xlink" width="500" zoomAndPan="magnify" viewBox="0 0 375 374.999991" height="500" preserveAspectRatio="xMidYMid meet" version="1.0"><defs><clipPath id="a159ac723a"><path d="M 48.859375 48.859375 L 326.359375 48.859375 L 326.359375 326.359375 L 48.859375 326.359375 Z M 48.859375 48.859375 " clip-rule="nonzero"/></clipPath><clipPath id="a7a190cec3"><path d="M 88.035156 48.859375 L 287.183594 48.859375 C 288.464844 48.859375 289.746094 48.921875 291.023438 49.046875 C 292.300781 49.175781 293.566406 49.363281 294.824219 49.613281 C 296.085938 49.863281 297.328125 50.175781 298.554688 50.546875 C 299.78125 50.917969 300.988281 51.351562 302.175781 51.839844 C 303.359375 52.332031 304.519531 52.878906 305.652344 53.484375 C 306.78125 54.089844 307.882812 54.75 308.949219 55.460938 C 310.015625 56.175781 311.042969 56.9375 312.035156 57.753906 C 313.027344 58.566406 313.976562 59.425781 314.886719 60.335938 C 315.792969 61.242188 316.652344 62.191406 317.46875 63.183594 C 318.28125 64.175781 319.042969 65.203125 319.757812 66.269531 C 320.46875 67.335938 321.128906 68.4375 321.734375 69.566406 C 322.339844 70.699219 322.886719 71.859375 323.378906 73.042969 C 323.867188 74.230469 324.300781 75.4375 324.671875 76.664062 C 325.046875 77.890625 325.355469 79.132812 325.605469 80.394531 C 325.855469 81.652344 326.046875 82.917969 326.171875 84.195312 C 326.296875 85.472656 326.359375 86.753906 326.359375 88.035156 L 326.359375 287.183594 C 326.359375 288.464844 326.296875 289.746094 326.171875 291.023438 C 326.046875 292.300781 325.855469 293.566406 325.605469 294.824219 C 325.355469 296.085938 325.046875 297.328125 324.671875 298.554688 C 324.300781 299.78125 323.867188 300.988281 323.378906 302.175781 C 322.886719 303.359375 322.339844 304.519531 321.734375 305.652344 C 321.128906 306.78125 320.46875 307.882812 319.757812 308.949219 C 319.042969 310.015625 318.28125 311.042969 317.46875 312.035156 C 316.652344 313.027344 315.792969 313.976562 314.886719 314.886719 C 313.976562 315.792969 313.027344 316.652344 312.035156 317.46875 C 311.042969 318.28125 310.015625 319.042969 308.949219 319.757812 C 307.882812 320.46875 306.78125 321.128906 305.652344 321.734375 C 304.519531 322.339844 303.359375 322.886719 302.175781 323.378906 C 300.988281 323.867188 299.78125 324.300781 298.554688 324.671875 C 297.328125 325.046875 296.085938 325.355469 294.824219 325.605469 C 293.566406 325.855469 292.300781 326.046875 291.023438 326.171875 C 289.746094 326.296875 288.464844 326.359375 287.183594 326.359375 L 88.035156 326.359375 C 86.753906 326.359375 85.472656 326.296875 84.195312 326.171875 C 82.917969 326.046875 81.652344 325.855469 80.394531 325.605469 C 79.132812 325.355469 77.890625 325.046875 76.664062 324.671875 C 75.4375 324.300781 74.230469 323.867188 73.042969 323.378906 C 71.859375 322.886719 70.699219 322.339844 69.566406 321.734375 C 68.4375 321.128906 67.335938 320.46875 66.269531 319.757812 C 65.203125 319.042969 64.175781 318.28125 63.183594 317.46875 C 62.191406 316.652344 61.242188 315.792969 60.335938 314.886719 C 59.425781 313.976562 58.566406 313.027344 57.753906 312.035156 C 56.9375 311.042969 56.175781 310.015625 55.460938 308.949219 C 54.75 307.882812 54.089844 306.78125 53.484375 305.652344 C 52.878906 304.519531 52.332031 303.359375 51.839844 302.175781 C 51.351562 300.988281 50.917969 299.78125 50.546875 298.554688 C 50.175781 297.328125 49.863281 296.085938 49.613281 294.824219 C 49.363281 293.566406 49.175781 292.300781 49.046875 291.023438 C 48.921875 289.746094 48.859375 288.464844 48.859375 287.183594 L 48.859375 88.035156 C 48.859375 86.753906 48.921875 85.472656 49.046875 84.195312 C 49.175781 82.917969 49.363281 81.652344 49.613281 80.394531 C 49.863281 79.132812 50.175781 77.890625 50.546875 76.664062 C 50.917969 75.4375 51.351562 74.230469 51.839844 73.042969 C 52.332031 71.859375 52.878906 70.699219 53.484375 69.566406 C 54.089844 68.4375 54.75 67.335938 55.460938 66.269531 C 56.175781 65.203125 56.9375 64.175781 57.753906 63.183594 C 58.566406 62.191406 59.425781 61.242188 60.335938 60.335938 C 61.242188 59.425781 62.191406 58.566406 63.183594 57.753906 C 64.175781 56.9375 65.203125 56.175781 66.269531 55.460938 C 67.335938 54.75 68.4375 54.089844 69.566406 53.484375 C 70.699219 52.878906 71.859375 52.332031 73.042969 51.839844 C 74.230469 51.351562 75.4375 50.917969 76.664062 50.546875 C 77.890625 50.175781 79.132812 49.863281 80.394531 49.613281 C 81.652344 49.363281 82.917969 49.175781 84.195312 49.046875 C 85.472656 48.921875 86.753906 48.859375 88.035156 48.859375 Z M 88.035156 48.859375 " clip-rule="nonzero"/></clipPath><linearGradient x1="-0.001" gradientTransform="matrix(3.264706, 0, 0, 3.264706, 48.859492, 48.859499)" y1="0.00000305209" x2="-0.001" gradientUnits="userSpaceOnUse" y2="85.000001" id="9a51633cbf"><stop stop-opacity="1" stop-color="rgb(0%, 69.799805%, 100%)" offset="0"/><stop stop-opacity="1" stop-color="rgb(0%, 69.688416%, 100%)" offset="0.0078125"/><stop stop-opacity="1" stop-color="rgb(0%, 69.468689%, 100%)" offset="0.015625"/><stop stop-opacity="1" stop-color="rgb(0%, 69.247437%, 100%)" offset="0.0234375"/><stop stop-opacity="1" stop-color="rgb(0%, 69.02771%, 100%)" offset="0.03125"/><stop stop-opacity="1" stop-color="rgb(0%, 68.807983%, 100%)" offset="0.0390625"/><stop stop-opacity="1" stop-color="rgb(0%, 68.586731%, 100%)" offset="0.046875"/><stop stop-opacity="1" stop-color="rgb(0%, 68.367004%, 100%)" offset="0.0546875"/><stop stop-opacity="1" stop-color="rgb(0%, 68.147278%, 100%)" offset="0.0625"/><stop stop-opacity="1" stop-color="rgb(0%, 67.926025%, 100%)" offset="0.0703125"/><stop stop-opacity="1" stop-color="rgb(0%, 67.706299%, 100%)" offset="0.078125"/><stop stop-opacity="1" stop-color="rgb(0%, 67.485046%, 100%)" offset="0.0859375"/><stop stop-opacity="1" stop-color="rgb(0%, 67.26532%, 100%)" offset="0.09375"/><stop stop-opacity="1" stop-color="rgb(0%, 67.045593%, 100%)" offset="0.101562"/><stop stop-opacity="1" stop-color="rgb(0%, 66.824341%, 100%)" offset="0.109375"/><stop stop-opacity="1" stop-color="rgb(0%, 66.604614%, 100%)" offset="0.117187"/><stop stop-opacity="1" stop-color="rgb(0%, 66.384888%, 100%)" offset="0.125"/><stop stop-opacity="1" stop-color="rgb(0%, 66.163635%, 100%)" offset="0.132812"/><stop stop-opacity="1" stop-color="rgb(0%, 65.943909%, 100%)" offset="0.140625"/><stop stop-opacity="1" stop-color="rgb(0%, 65.722656%, 100%)" offset="0.148438"/><stop stop-opacity="1" stop-color="rgb(0%, 65.50293%, 100%)" offset="0.15625"/><stop stop-opacity="1" stop-color="rgb(0%, 65.283203%, 100%)" offset="0.164063"/><stop stop-opacity="1" stop-color="rgb(0%, 65.061951%, 100%)" offset="0.171875"/><stop stop-opacity="1" stop-color="rgb(0%, 64.842224%, 100%)" offset="0.179688"/><stop stop-opacity="1" stop-color="rgb(0%, 64.620972%, 100%)" offset="0.1875"/><stop stop-opacity="1" stop-color="rgb(0%, 64.401245%, 100%)" offset="0.195312"/><stop stop-opacity="1" stop-color="rgb(0%, 64.181519%, 100%)" offset="0.203125"/><stop stop-opacity="1" stop-color="rgb(0%, 63.960266%, 100%)" offset="0.210938"/><stop stop-opacity="1" stop-color="rgb(0%, 63.74054%, 100%)" offset="0.21875"/><stop stop-opacity="1" stop-color="rgb(0%, 63.520813%, 100%)" offset="0.226562"/><stop stop-opacity="1" stop-color="rgb(0%, 63.299561%, 100%)" offset="0.234375"/><stop stop-opacity="1" stop-color="rgb(0%, 63.079834%, 100%)" offset="0.242187"/><stop stop-opacity="1" stop-color="rgb(0%, 62.858582%, 100%)" offset="0.25"/><stop stop-opacity="1" stop-color="rgb(0%, 62.638855%, 100%)" offset="0.257812"/><stop stop-opacity="1" stop-color="rgb(0%, 62.419128%, 100%)" offset="0.265625"/><stop stop-opacity="1" stop-color="rgb(0%, 62.197876%, 100%)" offset="0.273438"/><stop stop-opacity="1" stop-color="rgb(0%, 61.978149%, 100%)" offset="0.28125"/><stop stop-opacity="1" stop-color="rgb(0%, 61.756897%, 100%)" offset="0.289062"/><stop stop-opacity="1" stop-color="rgb(0%, 61.53717%, 100%)" offset="0.296875"/><stop stop-opacity="1" stop-color="rgb(0%, 61.317444%, 100%)" offset="0.304688"/><stop stop-opacity="1" stop-color="rgb(0%, 61.096191%, 100%)" offset="0.3125"/><stop stop-opacity="1" stop-color="rgb(0%, 60.876465%, 100%)" offset="0.320312"/><stop stop-opacity="1" stop-color="rgb(0%, 60.656738%, 100%)" offset="0.328125"/><stop stop-opacity="1" stop-color="rgb(0%, 60.435486%, 100%)" offset="0.335938"/><stop stop-opacity="1" stop-color="rgb(0%, 60.215759%, 100%)" offset="0.34375"/><stop stop-opacity="1" stop-color="rgb(0%, 59.994507%, 100%)" offset="0.351562"/><stop stop-opacity="1" stop-color="rgb(0%, 59.77478%, 100%)" offset="0.359375"/><stop stop-opacity="1" stop-color="rgb(0%, 59.555054%, 100%)" offset="0.367188"/><stop stop-opacity="1" stop-color="rgb(0%, 59.333801%, 100%)" offset="0.375"/><stop stop-opacity="1" stop-color="rgb(0%, 59.114075%, 100%)" offset="0.382812"/><stop stop-opacity="1" stop-color="rgb(0%, 58.894348%, 100%)" offset="0.390625"/><stop stop-opacity="1" stop-color="rgb(0%, 58.673096%, 100%)" offset="0.398438"/><stop stop-opacity="1" stop-color="rgb(0%, 58.453369%, 100%)" offset="0.40625"/><stop stop-opacity="1" stop-color="rgb(0%, 58.232117%, 100%)" offset="0.414062"/><stop stop-opacity="1" stop-color="rgb(0%, 58.01239%, 100%)" offset="0.421875"/><stop stop-opacity="1" stop-color="rgb(0%, 57.792664%, 100%)" offset="0.429688"/><stop stop-opacity="1" stop-color="rgb(0%, 57.571411%, 100%)" offset="0.4375"/><stop stop-opacity="1" stop-color="rgb(0%, 57.351685%, 100%)" offset="0.445312"/><stop stop-opacity="1" stop-color="rgb(0%, 57.130432%, 100%)" offset="0.453125"/><stop stop-opacity="1" stop-color="rgb(0%, 56.910706%, 100%)" offset="0.460937"/><stop stop-opacity="1" stop-color="rgb(0%, 56.690979%, 100%)" offset="0.46875"/><stop stop-opacity="1" stop-color="rgb(0%, 56.469727%, 100%)" offset="0.476562"/><stop stop-opacity="1" stop-color="rgb(0%, 56.25%, 100%)" offset="0.484375"/><stop stop-opacity="1" stop-color="rgb(0%, 56.030273%, 100%)" offset="0.492188"/><stop stop-opacity="1" stop-color="rgb(0%, 55.809021%, 100%)" offset="0.5"/><stop stop-opacity="1" stop-color="rgb(0%, 55.589294%, 100%)" offset="0.507812"/><stop stop-opacity="1" stop-color="rgb(0%, 55.368042%, 100%)" offset="0.515625"/><stop stop-opacity="1" stop-color="rgb(0%, 55.148315%, 100%)" offset="0.523438"/><stop stop-opacity="1" stop-color="rgb(0%, 54.928589%, 100%)" offset="0.53125"/><stop stop-opacity="1" stop-color="rgb(0%, 54.707336%, 100%)" offset="0.539063"/><stop stop-opacity="1" stop-color="rgb(0%, 54.48761%, 100%)" offset="0.546875"/><stop stop-opacity="1" stop-color="rgb(0%, 54.266357%, 100%)" offset="0.554688"/><stop stop-opacity="1" stop-color="rgb(0%, 54.046631%, 100%)" offset="0.5625"/><stop stop-opacity="1" stop-color="rgb(0%, 53.826904%, 100%)" offset="0.570313"/><stop stop-opacity="1" stop-color="rgb(0%, 53.605652%, 100%)" offset="0.578125"/><stop stop-opacity="1" stop-color="rgb(0%, 53.385925%, 100%)" offset="0.585938"/><stop stop-opacity="1" stop-color="rgb(0%, 53.166199%, 100%)" offset="0.59375"/><stop stop-opacity="1" stop-color="rgb(0%, 52.944946%, 100%)" offset="0.601562"/><stop stop-opacity="1" stop-color="rgb(0%, 52.72522%, 100%)" offset="0.609375"/><stop stop-opacity="1" stop-color="rgb(0%, 52.503967%, 100%)" offset="0.617187"/><stop stop-opacity="1" stop-color="rgb(0%, 52.284241%, 100%)" offset="0.625"/><stop stop-opacity="1" stop-color="rgb(0%, 52.064514%, 100%)" offset="0.632812"/><stop stop-opacity="1" stop-color="rgb(0%, 51.843262%, 100%)" offset="0.640625"/><stop stop-opacity="1" stop-color="rgb(0%, 51.623535%, 100%)" offset="0.648438"/><stop stop-opacity="1" stop-color="rgb(0%, 51.403809%, 100%)" offset="0.65625"/><stop stop-opacity="1" stop-color="rgb(0%, 51.182556%, 100%)" offset="0.664062"/><stop stop-opacity="1" stop-color="rgb(0%, 50.96283%, 100%)" offset="0.671875"/><stop stop-opacity="1" stop-color="rgb(0%, 50.741577%, 100%)" offset="0.679688"/><stop stop-opacity="1" stop-color="rgb(0%, 50.521851%, 100%)" offset="0.6875"/><stop stop-opacity="1" stop-color="rgb(0%, 50.302124%, 100%)" offset="0.695312"/><stop stop-opacity="1" stop-color="rgb(0%, 50.080872%, 100%)" offset="0.703125"/><stop stop-opacity="1" stop-color="rgb(0%, 49.861145%, 100%)" offset="0.710938"/><stop stop-opacity="1" stop-color="rgb(0%, 49.639893%, 100%)" offset="0.71875"/><stop stop-opacity="1" stop-color="rgb(0%, 49.420166%, 100%)" offset="0.726562"/><stop stop-opacity="1" stop-color="rgb(0%, 49.200439%, 100%)" offset="0.734375"/><stop stop-opacity="1" stop-color="rgb(0%, 48.979187%, 100%)" offset="0.742188"/><stop stop-opacity="1" stop-color="rgb(0%, 48.75946%, 100%)" offset="0.75"/><stop stop-opacity="1" stop-color="rgb(0%, 48.539734%, 100%)" offset="0.757812"/><stop stop-opacity="1" stop-color="rgb(0%, 48.318481%, 100%)" offset="0.765625"/><stop stop-opacity="1" stop-color="rgb(0%, 48.098755%, 100%)" offset="0.773438"/><stop stop-opacity="1" stop-color="rgb(0%, 47.877502%, 100%)" offset="0.78125"/><stop stop-opacity="1" stop-color="rgb(0%, 47.657776%, 100%)" offset="0.789062"/><stop stop-opacity="1" stop-color="rgb(0%, 47.438049%, 100%)" offset="0.796875"/><stop stop-opacity="1" stop-color="rgb(0%, 47.216797%, 100%)" offset="0.804688"/><stop stop-opacity="1" stop-color="rgb(0%, 46.99707%, 100%)" offset="0.8125"/><stop stop-opacity="1" stop-color="rgb(0%, 46.775818%, 100%)" offset="0.820312"/><stop stop-opacity="1" stop-color="rgb(0%, 46.556091%, 100%)" offset="0.828125"/><stop stop-opacity="1" stop-color="rgb(0%, 46.336365%, 100%)" offset="0.835938"/><stop stop-opacity="1" stop-color="rgb(0%, 46.115112%, 100%)" offset="0.84375"/><stop stop-opacity="1" stop-color="rgb(0%, 45.895386%, 100%)" offset="0.851562"/><stop stop-opacity="1" stop-color="rgb(0%, 45.675659%, 100%)" offset="0.859375"/><stop stop-opacity="1" stop-color="rgb(0%, 45.454407%, 100%)" offset="0.867188"/><stop stop-opacity="1" stop-color="rgb(0%, 45.23468%, 100%)" offset="0.875"/><stop stop-opacity="1" stop-color="rgb(0%, 45.013428%, 100%)" offset="0.882812"/><stop stop-opacity="1" stop-color="rgb(0%, 44.793701%, 100%)" offset="0.890625"/><stop stop-opacity="1" stop-color="rgb(0%, 44.573975%, 100%)" offset="0.898438"/><stop stop-opacity="1" stop-color="rgb(0%, 44.352722%, 100%)" offset="0.90625"/><stop stop-opacity="1" stop-color="rgb(0%, 44.132996%, 100%)" offset="0.914062"/><stop stop-opacity="1" stop-color="rgb(0%, 43.913269%, 100%)" offset="0.921875"/><stop stop-opacity="1" stop-color="rgb(0%, 43.692017%, 100%)" offset="0.929688"/><stop stop-opacity="1" stop-color="rgb(0%, 43.47229%, 100%)" offset="0.9375"/><stop stop-opacity="1" stop-color="rgb(0%, 43.251038%, 100%)" offset="0.945312"/><stop stop-opacity="1" stop-color="rgb(0%, 43.031311%, 100%)" offset="0.953125"/><stop stop-opacity="1" stop-color="rgb(0%, 42.811584%, 100%)" offset="0.960938"/><stop stop-opacity="1" stop-color="rgb(0%, 42.590332%, 100%)" offset="0.96875"/><stop stop-opacity="1" stop-color="rgb(0%, 42.370605%, 100%)" offset="0.976562"/><stop stop-opacity="1" stop-color="rgb(0%, 42.149353%, 100%)" offset="0.984375"/><stop stop-opacity="1" stop-color="rgb(0%, 41.929626%, 100%)" offset="0.992188"/><stop stop-opacity="1" stop-color="rgb(0%, 41.7099%, 100%)" offset="1"/></linearGradient></defs><g clip-path="url(#a159ac723a)"><g clip-path="url(#a7a190cec3)"><path fill="url(#9a51633cbf)" d="M 48.859375 48.859375 L 48.859375 326.359375 L 326.359375 326.359375 L 326.359375 48.859375 Z M 48.859375 48.859375 " fill-rule="nonzero"/></g></g><path fill="#ffffff" d="M 198.277344 272.808594 L 164.449219 272.808594 L 164.449219 185.8125 L 143.535156 185.8125 L 143.535156 157.117188 L 164.449219 157.117188 L 164.449219 147.894531 C 164.449219 132.484375 167.992188 120.832031 175.078125 112.9375 C 182.238281 105.042969 193.742188 101.09375 209.589844 101.09375 C 212.484375 101.09375 215.988281 101.285156 220.101562 101.664062 C 224.292969 101.96875 227.683594 102.308594 230.273438 102.6875 L 230.273438 131.042969 C 229.054688 130.890625 227.226562 130.738281 224.789062 130.585938 C 222.425781 130.359375 220.597656 130.246094 219.304688 130.246094 C 211.835938 130.246094 206.464844 131.765625 203.191406 134.800781 C 199.914062 137.835938 198.277344 143.074219 198.277344 150.515625 L 198.277344 157.117188 L 229.589844 157.117188 L 225.816406 185.8125 L 198.277344 185.8125 Z M 198.277344 272.808594 " fill-opacity="1" fill-rule="nonzero"/></svg>