<svg xmlns="http://www.w3.org/2000/svg" xmlns:xlink="http://www.w3.org/1999/xlink" width="500" zoomAndPan="magnify" viewBox="0 0 375 374.999991" height="500" preserveAspectRatio="xMidYMid meet" version="1.0"><defs><clipPath id="4ce48f73e5"><path d="M 141.453125 90.046875 L 233.703125 90.046875 L 233.703125 285 L 141.453125 285 Z M 141.453125 90.046875 " clip-rule="nonzero"/></clipPath><clipPath id="e48f40ea85"><path d="M 35.445312 35.445312 L 339.195312 35.445312 L 339.195312 339.195312 L 35.445312 339.195312 Z M 35.445312 35.445312 " clip-rule="nonzero"/></clipPath></defs><g clip-path="url(#4ce48f73e5)"><path fill="#252627" d="M 212.292969 122.375 L 233.539062 122.375 L 233.539062 90.347656 L 206.410156 90.347656 L 206.410156 90.46875 C 170.746094 91.777344 163.390625 111.753906 162.777344 132.875 L 162.695312 132.875 L 162.695312 155.101562 L 141.453125 155.101562 L 141.453125 187.171875 L 162.695312 187.171875 L 162.695312 284.648438 L 200.8125 284.648438 L 200.8125 187.171875 L 228.144531 187.171875 L 233.539062 155.101562 L 200.8125 155.101562 L 200.8125 135.203125 C 200.8125 128.136719 205.554688 122.375 212.292969 122.375 Z M 212.292969 122.375 " fill-opacity="1" fill-rule="nonzero"/></g><g clip-path="url(#e48f40ea85)"><path fill="#212121" d="M 187.496094 35.445312 C 103.363281 35.445312 35.445312 103.363281 35.445312 187.496094 C 35.445312 271.632812 103.363281 339.546875 187.496094 339.546875 C 271.632812 339.546875 339.546875 271.632812 339.546875 187.496094 C 339.546875 103.363281 271.632812 35.445312 187.496094 35.445312 Z M 187.496094 326.03125 C 111.132812 326.03125 48.960938 263.859375 48.960938 187.496094 C 48.960938 111.132812 111.132812 48.960938 187.496094 48.960938 C 263.859375 48.960938 326.03125 111.132812 326.03125 187.496094 C 326.03125 263.859375 263.859375 326.03125 187.496094 326.03125 Z M 187.496094 326.03125 " fill-opacity="1" fill-rule="nonzero"/></g></svg>