<svg xmlns="http://www.w3.org/2000/svg" xmlns:xlink="http://www.w3.org/1999/xlink" width="500" zoomAndPan="magnify" viewBox="0 0 375 374.999991" height="500" preserveAspectRatio="xMidYMid meet" version="1.0"><defs><clipPath id="5cf18c884f"><path d="M 130.039062 66 L 244.789062 66 L 244.789062 308.886719 L 130.039062 308.886719 Z M 130.039062 66 " clip-rule="nonzero"/></clipPath></defs><g clip-path="url(#5cf18c884f)"><path fill="#252627" d="M 218.441406 106.230469 L 244.953125 106.230469 L 244.953125 66.261719 L 211.097656 66.261719 L 211.097656 66.414062 C 166.589844 68.046875 157.414062 92.976562 156.648438 119.335938 L 156.546875 119.335938 L 156.546875 147.070312 L 130.039062 147.070312 L 130.039062 187.089844 L 156.546875 187.089844 L 156.546875 308.734375 L 204.113281 308.734375 L 204.113281 187.089844 L 238.222656 187.089844 L 244.953125 147.070312 L 204.113281 147.070312 L 204.113281 122.242188 C 204.113281 113.421875 210.027344 106.230469 218.441406 106.230469 Z M 218.441406 106.230469 " fill-opacity="1" fill-rule="nonzero"/></g></svg>