<svg xmlns="http://www.w3.org/2000/svg" xmlns:xlink="http://www.w3.org/1999/xlink" width="500" zoomAndPan="magnify" viewBox="0 0 375 374.999991" height="500" preserveAspectRatio="xMidYMid meet" version="1.0"><defs><clipPath id="ffaa5d4a88"><path d="M 40.238281 40.238281 L 334.988281 40.238281 L 334.988281 334.988281 L 40.238281 334.988281 Z M 40.238281 40.238281 " clip-rule="nonzero"/></clipPath></defs><g clip-path="url(#ffaa5d4a88)"><path fill="#000000" d="M 187.613281 40.238281 C 106.214844 40.238281 40.238281 106.214844 40.238281 187.613281 C 40.238281 269.007812 106.214844 334.988281 187.613281 334.988281 C 269.007812 334.988281 334.988281 269.007812 334.988281 187.613281 C 334.988281 106.214844 269.007812 40.238281 187.613281 40.238281 Z M 187.613281 323.652344 C 112.597656 323.652344 51.574219 262.625 51.574219 187.613281 C 51.574219 112.597656 112.597656 51.574219 187.613281 51.574219 C 262.625 51.574219 323.652344 112.597656 323.652344 187.613281 C 323.652344 262.625 262.625 323.652344 187.613281 323.652344 Z M 187.613281 323.652344 " fill-opacity="1" fill-rule="nonzero"/></g><path fill="#000000" d="M 187.613281 62.910156 L 187.613281 312.3125 C 256.367188 312.3125 312.3125 256.367188 312.3125 187.613281 C 312.3125 118.855469 256.367188 62.910156 187.613281 62.910156 Z M 187.613281 62.910156 " fill-opacity="1" fill-rule="nonzero"/></svg>