<svg xmlns="http://www.w3.org/2000/svg" xmlns:xlink="http://www.w3.org/1999/xlink" width="500" zoomAndPan="magnify" viewBox="0 0 375 374.999991" height="500" preserveAspectRatio="xMidYMid meet" version="1.0"><defs><clipPath id="eea3e327aa"><path d="M 56.25 56.25 L 318.75 56.25 L 318.75 318.75 L 56.25 318.75 Z M 56.25 56.25 " clip-rule="nonzero"/></clipPath></defs><g clip-path="url(#eea3e327aa)"><path fill="#252627" d="M 188.222656 56.25 C 152.066406 56.25 147.726562 56.25 133.988281 56.972656 C 120.246094 56.972656 110.125 59.867188 102.167969 62.757812 C 93.492188 66.375 86.261719 70.710938 79.027344 77.945312 C 71.796875 85.175781 67.457031 92.40625 63.84375 101.085938 C 60.226562 109.761719 58.058594 119.164062 58.058594 132.902344 C 56.613281 148.089844 56.613281 152.425781 56.613281 187.863281 C 56.613281 224.019531 56.613281 228.359375 57.335938 242.097656 C 57.335938 255.835938 60.226562 265.960938 63.121094 273.914062 C 66.734375 282.59375 71.074219 289.824219 78.304688 297.054688 C 85.539062 304.289062 92.769531 308.625 101.445312 312.242188 C 110.125 315.855469 119.523438 318.027344 133.265625 318.027344 C 147.003906 318.027344 152.066406 318.75 187.5 318.75 C 222.933594 318.75 227.996094 318.75 241.734375 318.027344 C 255.476562 318.027344 265.597656 315.132812 273.554688 312.242188 C 282.230469 308.625 289.460938 304.289062 296.695312 297.054688 C 303.925781 289.824219 308.265625 282.59375 311.878906 273.914062 C 314.773438 265.238281 317.664062 255.835938 317.664062 242.097656 C 317.664062 228.355469 318.386719 223.296875 318.386719 187.863281 C 318.386719 151.703125 318.386719 147.367188 317.664062 133.625 C 317.664062 119.886719 314.773438 109.761719 311.878906 101.808594 C 308.265625 93.128906 303.925781 85.898438 296.695312 78.667969 C 289.460938 71.4375 282.230469 67.097656 273.554688 63.480469 C 264.875 59.867188 255.476562 57.695312 241.734375 57.695312 C 228.71875 56.25 224.378906 56.25 188.222656 56.25 Z M 176.652344 80.113281 C 180.269531 80.113281 183.882812 80.113281 188.222656 80.113281 C 223.65625 80.113281 227.273438 80.113281 241.734375 80.835938 C 254.753906 80.835938 261.261719 83.730469 266.324219 85.175781 C 272.832031 87.34375 277.167969 90.238281 281.507812 95.300781 C 285.847656 99.636719 288.738281 103.976562 291.632812 110.484375 C 293.078125 114.824219 295.246094 122.054688 295.972656 135.074219 C 295.972656 148.8125 296.695312 153.152344 296.695312 188.585938 C 296.695312 224.019531 296.695312 227.632812 295.972656 242.097656 C 295.972656 255.113281 293.078125 261.621094 291.632812 266.683594 C 289.460938 273.191406 286.570312 277.53125 281.507812 281.871094 C 277.167969 286.207031 272.832031 289.101562 266.324219 291.992188 C 261.984375 294.164062 254.753906 295.609375 241.734375 296.332031 C 227.996094 296.332031 223.65625 297.054688 188.222656 297.054688 C 152.789062 297.054688 149.171875 297.054688 134.710938 296.332031 C 121.695312 296.332031 115.1875 293.441406 110.125 291.992188 C 103.617188 289.824219 99.277344 286.933594 94.9375 281.871094 C 90.597656 277.53125 87.707031 273.191406 84.8125 266.683594 C 83.367188 262.34375 81.199219 255.113281 80.476562 242.097656 C 80.476562 228.355469 79.753906 224.019531 79.753906 188.585938 C 79.753906 153.152344 79.753906 149.535156 80.476562 135.074219 C 80.476562 122.054688 83.367188 115.546875 84.8125 110.484375 C 86.984375 103.976562 89.875 99.636719 94.9375 95.300781 C 99.277344 90.960938 103.617188 88.066406 110.125 85.175781 C 114.460938 83.007812 121.695312 81.558594 134.710938 80.835938 C 147.003906 80.835938 151.34375 80.835938 175.929688 80.113281 Z M 188.222656 120.609375 C 150.621094 120.609375 120.246094 150.980469 120.246094 188.585938 C 120.246094 226.1875 150.621094 256.558594 188.222656 256.558594 C 225.828125 256.558594 256.199219 226.1875 256.199219 188.585938 C 256.199219 150.980469 225.828125 120.609375 188.222656 120.609375 Z M 188.222656 144.472656 C 212.808594 144.472656 232.335938 163.996094 232.335938 188.585938 C 232.335938 213.171875 212.808594 232.695312 188.222656 232.695312 C 163.636719 232.695312 144.113281 213.171875 144.113281 188.585938 C 144.113281 163.996094 163.636719 144.472656 188.222656 144.472656 Z M 188.222656 144.472656 " fill-opacity="1" fill-rule="nonzero"/></g></svg>