<svg xmlns="http://www.w3.org/2000/svg" xmlns:xlink="http://www.w3.org/1999/xlink" width="500" zoomAndPan="magnify" viewBox="0 0 375 374.999991" height="500" preserveAspectRatio="xMidYMid meet" version="1.0"><defs><clipPath id="eaef579a33"><path d="M 40.375 40.375 L 334.375 40.375 L 334.375 334.375 L 40.375 334.375 Z M 40.375 40.375 " clip-rule="nonzero"/></clipPath><clipPath id="35727459d1"><path d="M 334.375 187.375 C 334.375 189.78125 334.316406 192.183594 334.195312 194.585938 C 334.078125 196.988281 333.902344 199.386719 333.667969 201.78125 C 333.429688 204.175781 333.136719 206.5625 332.78125 208.945312 C 332.429688 211.324219 332.019531 213.691406 331.550781 216.050781 C 331.082031 218.410156 330.554688 220.757812 329.96875 223.09375 C 329.382812 225.425781 328.742188 227.742188 328.042969 230.046875 C 327.347656 232.347656 326.589844 234.632812 325.78125 236.898438 C 324.96875 239.160156 324.105469 241.40625 323.183594 243.628906 C 322.265625 245.851562 321.289062 248.050781 320.261719 250.226562 C 319.230469 252.398438 318.152344 254.546875 317.015625 256.667969 C 315.882812 258.792969 314.695312 260.882812 313.460938 262.945312 C 312.222656 265.011719 310.9375 267.042969 309.601562 269.042969 C 308.261719 271.042969 306.878906 273.007812 305.445312 274.941406 C 304.011719 276.875 302.53125 278.769531 301.007812 280.628906 C 299.480469 282.488281 297.910156 284.3125 296.292969 286.09375 C 294.679688 287.875 293.019531 289.617188 291.320312 291.320312 C 289.617188 293.019531 287.875 294.679688 286.09375 296.292969 C 284.3125 297.910156 282.488281 299.480469 280.628906 301.007812 C 278.769531 302.53125 276.875 304.011719 274.941406 305.445312 C 273.007812 306.878906 271.042969 308.261719 269.042969 309.601562 C 267.042969 310.9375 265.011719 312.222656 262.945312 313.460938 C 260.882812 314.695312 258.792969 315.882812 256.667969 317.015625 C 254.546875 318.152344 252.398438 319.230469 250.226562 320.261719 C 248.050781 321.289062 245.851562 322.265625 243.628906 323.183594 C 241.40625 324.105469 239.160156 324.96875 236.898438 325.78125 C 234.632812 326.589844 232.347656 327.347656 230.046875 328.042969 C 227.742188 328.742188 225.425781 329.382812 223.09375 329.96875 C 220.757812 330.554688 218.410156 331.082031 216.050781 331.550781 C 213.691406 332.019531 211.324219 332.429688 208.945312 332.78125 C 206.5625 333.136719 204.175781 333.429688 201.78125 333.667969 C 199.386719 333.902344 196.988281 334.078125 194.585938 334.195312 C 192.183594 334.316406 189.78125 334.375 187.375 334.375 C 184.96875 334.375 182.5625 334.316406 180.160156 334.195312 C 177.757812 334.078125 175.359375 333.902344 172.964844 333.667969 C 170.570312 333.429688 168.183594 333.136719 165.804688 332.78125 C 163.425781 332.429688 161.054688 332.019531 158.695312 331.550781 C 156.335938 331.082031 153.988281 330.554688 151.65625 329.96875 C 149.324219 329.382812 147.003906 328.742188 144.703125 328.042969 C 142.398438 327.347656 140.117188 326.589844 137.851562 325.78125 C 135.585938 324.96875 133.34375 324.105469 131.121094 323.183594 C 128.898438 322.265625 126.699219 321.289062 124.523438 320.261719 C 122.347656 319.230469 120.199219 318.152344 118.078125 317.015625 C 115.957031 315.882812 113.863281 314.695312 111.800781 313.460938 C 109.738281 312.222656 107.707031 310.9375 105.707031 309.601562 C 103.703125 308.261719 101.738281 306.878906 99.804688 305.445312 C 97.875 304.011719 95.976562 302.53125 94.117188 301.007812 C 92.257812 299.480469 90.4375 297.910156 88.65625 296.292969 C 86.871094 294.679688 85.128906 293.019531 83.429688 291.320312 C 81.726562 289.617188 80.070312 287.875 78.453125 286.09375 C 76.839844 284.3125 75.269531 282.488281 73.742188 280.628906 C 72.214844 278.769531 70.734375 276.875 69.300781 274.941406 C 67.871094 273.007812 66.484375 271.042969 65.148438 269.042969 C 63.8125 267.042969 62.523438 265.011719 61.289062 262.945312 C 60.050781 260.882812 58.867188 258.792969 57.730469 256.667969 C 56.597656 254.546875 55.515625 252.398438 54.488281 250.226562 C 53.460938 248.050781 52.484375 245.851562 51.5625 243.628906 C 50.644531 241.40625 49.777344 239.160156 48.96875 236.898438 C 48.15625 234.632812 47.402344 232.347656 46.703125 230.046875 C 46.003906 227.742188 45.363281 225.425781 44.78125 223.09375 C 44.195312 220.757812 43.667969 218.410156 43.199219 216.050781 C 42.730469 213.691406 42.316406 211.324219 41.964844 208.945312 C 41.613281 206.5625 41.316406 204.175781 41.082031 201.78125 C 40.847656 199.386719 40.667969 196.988281 40.550781 194.585938 C 40.433594 192.183594 40.375 189.78125 40.375 187.375 C 40.375 184.96875 40.433594 182.5625 40.550781 180.160156 C 40.667969 177.757812 40.847656 175.359375 41.082031 172.964844 C 41.316406 170.570312 41.613281 168.183594 41.964844 165.804688 C 42.316406 163.425781 42.730469 161.054688 43.199219 158.695312 C 43.667969 156.335938 44.195312 153.988281 44.78125 151.65625 C 45.363281 149.324219 46.003906 147.003906 46.703125 144.703125 C 47.402344 142.398438 48.15625 140.117188 48.96875 137.851562 C 49.777344 135.585938 50.644531 133.34375 51.5625 131.121094 C 52.484375 128.898438 53.460938 126.699219 54.488281 124.523438 C 55.515625 122.347656 56.597656 120.199219 57.730469 118.078125 C 58.867188 115.957031 60.050781 113.863281 61.289062 111.800781 C 62.523438 109.738281 63.8125 107.707031 65.148438 105.707031 C 66.484375 103.703125 67.871094 101.738281 69.300781 99.804688 C 70.734375 97.875 72.214844 95.976562 73.742188 94.117188 C 75.269531 92.257812 76.839844 90.4375 78.453125 88.65625 C 80.070312 86.871094 81.726562 85.128906 83.429688 83.429688 C 85.128906 81.726562 86.871094 80.070312 88.65625 78.453125 C 90.4375 76.839844 92.257812 75.269531 94.117188 73.742188 C 95.976562 72.214844 97.875 70.734375 99.804688 69.300781 C 101.738281 67.871094 103.703125 66.484375 105.707031 65.148438 C 107.707031 63.8125 109.738281 62.523438 111.800781 61.289062 C 113.863281 60.050781 115.957031 58.867188 118.078125 57.730469 C 120.199219 56.597656 122.347656 55.515625 124.523438 54.488281 C 126.699219 53.460938 128.898438 52.484375 131.121094 51.5625 C 133.34375 50.644531 135.585938 49.777344 137.851562 48.96875 C 140.117188 48.15625 142.398438 47.402344 144.703125 46.703125 C 147.003906 46.003906 149.324219 45.363281 151.65625 44.78125 C 153.988281 44.195312 156.335938 43.667969 158.695312 43.199219 C 161.054688 42.730469 163.425781 42.316406 165.804688 41.964844 C 168.183594 41.613281 170.570312 41.316406 172.964844 41.082031 C 175.359375 40.847656 177.757812 40.667969 180.160156 40.550781 C 182.5625 40.433594 184.96875 40.375 187.375 40.375 C 189.78125 40.375 192.183594 40.433594 194.585938 40.550781 C 196.988281 40.667969 199.386719 40.847656 201.78125 41.082031 C 204.175781 41.316406 206.5625 41.613281 208.945312 41.964844 C 211.324219 42.316406 213.691406 42.730469 216.050781 43.199219 C 218.410156 43.667969 220.757812 44.195312 223.09375 44.78125 C 225.425781 45.363281 227.742188 46.003906 230.046875 46.703125 C 232.347656 47.402344 234.632812 48.15625 236.898438 48.96875 C 239.160156 49.777344 241.40625 50.644531 243.628906 51.5625 C 245.851562 52.484375 248.050781 53.460938 250.226562 54.488281 C 252.398438 55.515625 254.546875 56.597656 256.667969 57.730469 C 258.792969 58.867188 260.882812 60.050781 262.945312 61.289062 C 265.011719 62.523438 267.042969 63.8125 269.042969 65.148438 C 271.042969 66.484375 273.007812 67.871094 274.941406 69.300781 C 276.875 70.734375 278.769531 72.214844 280.628906 73.742188 C 282.488281 75.269531 284.3125 76.839844 286.09375 78.453125 C 287.875 80.070312 289.617188 81.726562 291.320312 83.429688 C 293.019531 85.128906 294.679688 86.871094 296.292969 88.65625 C 297.910156 90.4375 299.480469 92.257812 301.007812 94.117188 C 302.53125 95.976562 304.011719 97.875 305.445312 99.804688 C 306.878906 101.738281 308.261719 103.703125 309.601562 105.707031 C 310.9375 107.707031 312.222656 109.738281 313.460938 111.800781 C 314.695312 113.863281 315.882812 115.957031 317.015625 118.078125 C 318.152344 120.199219 319.230469 122.347656 320.261719 124.523438 C 321.289062 126.699219 322.265625 128.898438 323.183594 131.121094 C 324.105469 133.34375 324.96875 135.585938 325.78125 137.851562 C 326.589844 140.117188 327.347656 142.398438 328.042969 144.703125 C 328.742188 147.003906 329.382812 149.324219 329.96875 151.65625 C 330.554688 153.988281 331.082031 156.335938 331.550781 158.695312 C 332.019531 161.054688 332.429688 163.425781 332.78125 165.804688 C 333.136719 168.183594 333.429688 170.570312 333.667969 172.964844 C 333.902344 175.359375 334.078125 177.757812 334.195312 180.160156 C 334.316406 182.5625 334.375 184.96875 334.375 187.375 Z M 334.375 187.375 " clip-rule="nonzero"/></clipPath><linearGradient x1="0.0499065" gradientTransform="matrix(0.957655, 0, 0, 0.957655, 40.374088, 40.374149)" y1="307.049887" x2="307.050604" gradientUnits="userSpaceOnUse" y2="0.0506015" id="8b92728844"><stop stop-opacity="1" stop-color="rgb(99.598694%, 75.299072%, 32.499695%)" offset="0"/><stop stop-opacity="1" stop-color="rgb(99.598694%, 75.299072%, 32.499695%)" offset="0.125"/><stop stop-opacity="1" stop-color="rgb(99.598694%, 75.299072%, 32.499695%)" offset="0.140625"/><stop stop-opacity="1" stop-color="rgb(99.583435%, 75.102234%, 32.473755%)" offset="0.144531"/><stop stop-opacity="1" stop-color="rgb(99.569702%, 74.906921%, 32.447815%)" offset="0.148438"/><stop stop-opacity="1" stop-color="rgb(99.514771%, 74.171448%, 32.351685%)" offset="0.152344"/><stop stop-opacity="1" stop-color="rgb(99.459839%, 73.435974%, 32.255554%)" offset="0.15625"/><stop stop-opacity="1" stop-color="rgb(99.404907%, 72.7005%, 32.159424%)" offset="0.160156"/><stop stop-opacity="1" stop-color="rgb(99.349976%, 71.965027%, 32.063293%)" offset="0.164062"/><stop stop-opacity="1" stop-color="rgb(99.295044%, 71.229553%, 31.967163%)" offset="0.167969"/><stop stop-opacity="1" stop-color="rgb(99.240112%, 70.49408%, 31.872559%)" offset="0.171875"/><stop stop-opacity="1" stop-color="rgb(99.185181%, 69.758606%, 31.776428%)" offset="0.175781"/><stop stop-opacity="1" stop-color="rgb(99.130249%, 69.023132%, 31.680298%)" offset="0.179688"/><stop stop-opacity="1" stop-color="rgb(99.073792%, 68.287659%, 31.584167%)" offset="0.183594"/><stop stop-opacity="1" stop-color="rgb(99.01886%, 67.552185%, 31.488037%)" offset="0.1875"/><stop stop-opacity="1" stop-color="rgb(98.963928%, 66.816711%, 31.391907%)" offset="0.191406"/><stop stop-opacity="1" stop-color="rgb(98.908997%, 66.081238%, 31.295776%)" offset="0.195313"/><stop stop-opacity="1" stop-color="rgb(98.854065%, 65.345764%, 31.199646%)" offset="0.199219"/><stop stop-opacity="1" stop-color="rgb(98.799133%, 64.611816%, 31.103516%)" offset="0.203125"/><stop stop-opacity="1" stop-color="rgb(98.744202%, 63.876343%, 31.007385%)" offset="0.207031"/><stop stop-opacity="1" stop-color="rgb(98.68927%, 63.140869%, 30.911255%)" offset="0.210938"/><stop stop-opacity="1" stop-color="rgb(98.634338%, 62.405396%, 30.815125%)" offset="0.214844"/><stop stop-opacity="1" stop-color="rgb(98.579407%, 61.669922%, 30.718994%)" offset="0.21875"/><stop stop-opacity="1" stop-color="rgb(98.524475%, 60.934448%, 30.622864%)" offset="0.222656"/><stop stop-opacity="1" stop-color="rgb(98.469543%, 60.198975%, 30.528259%)" offset="0.226562"/><stop stop-opacity="1" stop-color="rgb(98.414612%, 59.463501%, 30.432129%)" offset="0.230469"/><stop stop-opacity="1" stop-color="rgb(98.35968%, 58.728027%, 30.335999%)" offset="0.234375"/><stop stop-opacity="1" stop-color="rgb(98.303223%, 57.992554%, 30.239868%)" offset="0.238281"/><stop stop-opacity="1" stop-color="rgb(98.248291%, 57.25708%, 30.143738%)" offset="0.242188"/><stop stop-opacity="1" stop-color="rgb(98.193359%, 56.521606%, 30.047607%)" offset="0.246094"/><stop stop-opacity="1" stop-color="rgb(98.138428%, 55.786133%, 29.951477%)" offset="0.25"/><stop stop-opacity="1" stop-color="rgb(98.083496%, 55.050659%, 29.855347%)" offset="0.253906"/><stop stop-opacity="1" stop-color="rgb(98.028564%, 54.315186%, 29.759216%)" offset="0.257812"/><stop stop-opacity="1" stop-color="rgb(97.973633%, 53.579712%, 29.663086%)" offset="0.261719"/><stop stop-opacity="1" stop-color="rgb(97.918701%, 52.845764%, 29.566956%)" offset="0.265625"/><stop stop-opacity="1" stop-color="rgb(97.86377%, 52.110291%, 29.470825%)" offset="0.269531"/><stop stop-opacity="1" stop-color="rgb(97.808838%, 51.374817%, 29.374695%)" offset="0.273438"/><stop stop-opacity="1" stop-color="rgb(97.753906%, 50.639343%, 29.278564%)" offset="0.277344"/><stop stop-opacity="1" stop-color="rgb(97.698975%, 49.90387%, 29.18396%)" offset="0.28125"/><stop stop-opacity="1" stop-color="rgb(97.644043%, 49.168396%, 29.08783%)" offset="0.285156"/><stop stop-opacity="1" stop-color="rgb(97.589111%, 48.432922%, 28.991699%)" offset="0.289062"/><stop stop-opacity="1" stop-color="rgb(97.532654%, 47.697449%, 28.895569%)" offset="0.292969"/><stop stop-opacity="1" stop-color="rgb(97.477722%, 46.961975%, 28.799438%)" offset="0.296875"/><stop stop-opacity="1" stop-color="rgb(97.422791%, 46.226501%, 28.703308%)" offset="0.300781"/><stop stop-opacity="1" stop-color="rgb(97.367859%, 45.491028%, 28.607178%)" offset="0.304688"/><stop stop-opacity="1" stop-color="rgb(97.312927%, 44.755554%, 28.511047%)" offset="0.308594"/><stop stop-opacity="1" stop-color="rgb(97.257996%, 44.020081%, 28.414917%)" offset="0.3125"/><stop stop-opacity="1" stop-color="rgb(97.203064%, 43.284607%, 28.318787%)" offset="0.316406"/><stop stop-opacity="1" stop-color="rgb(97.148132%, 42.549133%, 28.222656%)" offset="0.320312"/><stop stop-opacity="1" stop-color="rgb(97.093201%, 41.81366%, 28.126526%)" offset="0.324219"/><stop stop-opacity="1" stop-color="rgb(97.038269%, 41.079712%, 28.030396%)" offset="0.328125"/><stop stop-opacity="1" stop-color="rgb(96.983337%, 40.344238%, 27.934265%)" offset="0.332031"/><stop stop-opacity="1" stop-color="rgb(96.928406%, 39.608765%, 27.839661%)" offset="0.335938"/><stop stop-opacity="1" stop-color="rgb(96.873474%, 38.873291%, 27.74353%)" offset="0.339844"/><stop stop-opacity="1" stop-color="rgb(96.818542%, 38.137817%, 27.6474%)" offset="0.34375"/><stop stop-opacity="1" stop-color="rgb(96.763611%, 37.402344%, 27.55127%)" offset="0.347656"/><stop stop-opacity="1" stop-color="rgb(96.708679%, 36.66687%, 27.455139%)" offset="0.351562"/><stop stop-opacity="1" stop-color="rgb(96.652222%, 35.931396%, 27.359009%)" offset="0.355469"/><stop stop-opacity="1" stop-color="rgb(96.59729%, 35.195923%, 27.262878%)" offset="0.359375"/><stop stop-opacity="1" stop-color="rgb(96.542358%, 34.460449%, 27.166748%)" offset="0.363281"/><stop stop-opacity="1" stop-color="rgb(96.487427%, 33.724976%, 27.070618%)" offset="0.367188"/><stop stop-opacity="1" stop-color="rgb(96.432495%, 32.989502%, 26.974487%)" offset="0.371094"/><stop stop-opacity="1" stop-color="rgb(96.377563%, 32.254028%, 26.878357%)" offset="0.375"/><stop stop-opacity="1" stop-color="rgb(96.322632%, 31.518555%, 26.782227%)" offset="0.378906"/><stop stop-opacity="1" stop-color="rgb(96.2677%, 30.783081%, 26.686096%)" offset="0.382812"/><stop stop-opacity="1" stop-color="rgb(96.212769%, 30.047607%, 26.589966%)" offset="0.386719"/><stop stop-opacity="1" stop-color="rgb(96.157837%, 29.312134%, 26.495361%)" offset="0.390625"/><stop stop-opacity="1" stop-color="rgb(96.102905%, 28.57666%, 26.399231%)" offset="0.394531"/><stop stop-opacity="1" stop-color="rgb(96.047974%, 27.842712%, 26.303101%)" offset="0.398438"/><stop stop-opacity="1" stop-color="rgb(95.993042%, 27.107239%, 26.20697%)" offset="0.402344"/><stop stop-opacity="1" stop-color="rgb(95.93811%, 26.371765%, 26.11084%)" offset="0.40625"/><stop stop-opacity="1" stop-color="rgb(95.881653%, 25.636292%, 26.014709%)" offset="0.410156"/><stop stop-opacity="1" stop-color="rgb(95.826721%, 24.900818%, 25.918579%)" offset="0.414062"/><stop stop-opacity="1" stop-color="rgb(95.77179%, 24.165344%, 25.822449%)" offset="0.417969"/><stop stop-opacity="1" stop-color="rgb(95.716858%, 23.429871%, 25.726318%)" offset="0.421875"/><stop stop-opacity="1" stop-color="rgb(95.661926%, 22.694397%, 25.630188%)" offset="0.425781"/><stop stop-opacity="1" stop-color="rgb(95.606995%, 21.958923%, 25.534058%)" offset="0.429688"/><stop stop-opacity="1" stop-color="rgb(95.552063%, 21.22345%, 25.437927%)" offset="0.433594"/><stop stop-opacity="1" stop-color="rgb(95.497131%, 20.487976%, 25.341797%)" offset="0.4375"/><stop stop-opacity="1" stop-color="rgb(95.4422%, 19.752502%, 25.245667%)" offset="0.441406"/><stop stop-opacity="1" stop-color="rgb(95.387268%, 19.017029%, 25.151062%)" offset="0.445312"/><stop stop-opacity="1" stop-color="rgb(95.332336%, 18.281555%, 25.054932%)" offset="0.449219"/><stop stop-opacity="1" stop-color="rgb(95.277405%, 17.546082%, 24.958801%)" offset="0.453125"/><stop stop-opacity="1" stop-color="rgb(95.222473%, 16.810608%, 24.862671%)" offset="0.457031"/><stop stop-opacity="1" stop-color="rgb(95.167542%, 16.07666%, 24.766541%)" offset="0.460938"/><stop stop-opacity="1" stop-color="rgb(95.111084%, 15.341187%, 24.67041%)" offset="0.464844"/><stop stop-opacity="1" stop-color="rgb(95.056152%, 14.605713%, 24.57428%)" offset="0.46875"/><stop stop-opacity="1" stop-color="rgb(95.001221%, 13.870239%, 24.478149%)" offset="0.472656"/><stop stop-opacity="1" stop-color="rgb(94.946289%, 13.134766%, 24.382019%)" offset="0.476563"/><stop stop-opacity="1" stop-color="rgb(94.621277%, 12.812805%, 24.882507%)" offset="0.480469"/><stop stop-opacity="1" stop-color="rgb(94.297791%, 12.490845%, 25.382996%)" offset="0.484375"/><stop stop-opacity="1" stop-color="rgb(93.766785%, 12.483215%, 26.33667%)" offset="0.488281"/><stop stop-opacity="1" stop-color="rgb(93.237305%, 12.477112%, 27.29187%)" offset="0.492187"/><stop stop-opacity="1" stop-color="rgb(92.707825%, 12.469482%, 28.245544%)" offset="0.496094"/><stop stop-opacity="1" stop-color="rgb(92.178345%, 12.463379%, 29.199219%)" offset="0.5"/><stop stop-opacity="1" stop-color="rgb(91.648865%, 12.45575%, 30.152893%)" offset="0.503906"/><stop stop-opacity="1" stop-color="rgb(91.119385%, 12.449646%, 31.108093%)" offset="0.507812"/><stop stop-opacity="1" stop-color="rgb(90.588379%, 12.442017%, 32.061768%)" offset="0.511719"/><stop stop-opacity="1" stop-color="rgb(90.058899%, 12.435913%, 33.015442%)" offset="0.515625"/><stop stop-opacity="1" stop-color="rgb(89.529419%, 12.428284%, 33.969116%)" offset="0.519531"/><stop stop-opacity="1" stop-color="rgb(88.999939%, 12.42218%, 34.924316%)" offset="0.523438"/><stop stop-opacity="1" stop-color="rgb(88.468933%, 12.414551%, 35.877991%)" offset="0.527344"/><stop stop-opacity="1" stop-color="rgb(87.939453%, 12.408447%, 36.831665%)" offset="0.53125"/><stop stop-opacity="1" stop-color="rgb(87.409973%, 12.400818%, 37.785339%)" offset="0.535156"/><stop stop-opacity="1" stop-color="rgb(86.880493%, 12.394714%, 38.74054%)" offset="0.539062"/><stop stop-opacity="1" stop-color="rgb(86.351013%, 12.387085%, 39.694214%)" offset="0.542969"/><stop stop-opacity="1" stop-color="rgb(85.821533%, 12.380981%, 40.647888%)" offset="0.546875"/><stop stop-opacity="1" stop-color="rgb(85.290527%, 12.373352%, 41.601562%)" offset="0.550781"/><stop stop-opacity="1" stop-color="rgb(84.761047%, 12.367249%, 42.556763%)" offset="0.554688"/><stop stop-opacity="1" stop-color="rgb(84.231567%, 12.359619%, 43.510437%)" offset="0.558594"/><stop stop-opacity="1" stop-color="rgb(83.702087%, 12.353516%, 44.464111%)" offset="0.5625"/><stop stop-opacity="1" stop-color="rgb(83.171082%, 12.345886%, 45.417786%)" offset="0.566406"/><stop stop-opacity="1" stop-color="rgb(82.641602%, 12.339783%, 46.372986%)" offset="0.570312"/><stop stop-opacity="1" stop-color="rgb(82.112122%, 12.332153%, 47.32666%)" offset="0.574219"/><stop stop-opacity="1" stop-color="rgb(81.582642%, 12.32605%, 48.280334%)" offset="0.578125"/><stop stop-opacity="1" stop-color="rgb(81.053162%, 12.31842%, 49.234009%)" offset="0.582031"/><stop stop-opacity="1" stop-color="rgb(80.523682%, 12.312317%, 50.189209%)" offset="0.585938"/><stop stop-opacity="1" stop-color="rgb(79.992676%, 12.304688%, 51.142883%)" offset="0.589844"/><stop stop-opacity="1" stop-color="rgb(79.463196%, 12.298584%, 52.096558%)" offset="0.59375"/><stop stop-opacity="1" stop-color="rgb(78.933716%, 12.290955%, 53.050232%)" offset="0.597656"/><stop stop-opacity="1" stop-color="rgb(78.404236%, 12.284851%, 54.005432%)" offset="0.601562"/><stop stop-opacity="1" stop-color="rgb(77.874756%, 12.277222%, 54.959106%)" offset="0.605469"/><stop stop-opacity="1" stop-color="rgb(77.345276%, 12.271118%, 55.912781%)" offset="0.609375"/><stop stop-opacity="1" stop-color="rgb(76.81427%, 12.263489%, 56.866455%)" offset="0.613281"/><stop stop-opacity="1" stop-color="rgb(76.28479%, 12.257385%, 57.821655%)" offset="0.617188"/><stop stop-opacity="1" stop-color="rgb(75.75531%, 12.249756%, 58.77533%)" offset="0.621094"/><stop stop-opacity="1" stop-color="rgb(75.22583%, 12.243652%, 59.729004%)" offset="0.625"/><stop stop-opacity="1" stop-color="rgb(74.694824%, 12.236023%, 60.682678%)" offset="0.628906"/><stop stop-opacity="1" stop-color="rgb(74.165344%, 12.229919%, 61.637878%)" offset="0.632812"/><stop stop-opacity="1" stop-color="rgb(73.635864%, 12.22229%, 62.591553%)" offset="0.636719"/><stop stop-opacity="1" stop-color="rgb(73.106384%, 12.216187%, 63.545227%)" offset="0.640625"/><stop stop-opacity="1" stop-color="rgb(72.576904%, 12.208557%, 64.498901%)" offset="0.644531"/><stop stop-opacity="1" stop-color="rgb(72.047424%, 12.202454%, 65.454102%)" offset="0.648438"/><stop stop-opacity="1" stop-color="rgb(71.342468%, 12.489319%, 65.942383%)" offset="0.652344"/><stop stop-opacity="1" stop-color="rgb(70.639038%, 12.77771%, 66.430664%)" offset="0.65625"/><stop stop-opacity="1" stop-color="rgb(69.882202%, 13.154602%, 66.777039%)" offset="0.660156"/><stop stop-opacity="1" stop-color="rgb(69.125366%, 13.53302%, 67.123413%)" offset="0.664062"/><stop stop-opacity="1" stop-color="rgb(68.36853%, 13.909912%, 67.469788%)" offset="0.667969"/><stop stop-opacity="1" stop-color="rgb(67.611694%, 14.28833%, 67.817688%)" offset="0.671875"/><stop stop-opacity="1" stop-color="rgb(66.854858%, 14.665222%, 68.164062%)" offset="0.675781"/><stop stop-opacity="1" stop-color="rgb(66.098022%, 15.042114%, 68.510437%)" offset="0.679688"/><stop stop-opacity="1" stop-color="rgb(65.341187%, 15.419006%, 68.856812%)" offset="0.683594"/><stop stop-opacity="1" stop-color="rgb(64.584351%, 15.797424%, 69.203186%)" offset="0.6875"/><stop stop-opacity="1" stop-color="rgb(63.827515%, 16.174316%, 69.549561%)" offset="0.691406"/><stop stop-opacity="1" stop-color="rgb(63.070679%, 16.552734%, 69.897461%)" offset="0.695312"/><stop stop-opacity="1" stop-color="rgb(62.313843%, 16.929626%, 70.243835%)" offset="0.699219"/><stop stop-opacity="1" stop-color="rgb(61.557007%, 17.308044%, 70.59021%)" offset="0.703125"/><stop stop-opacity="1" stop-color="rgb(60.800171%, 17.684937%, 70.936584%)" offset="0.707031"/><stop stop-opacity="1" stop-color="rgb(60.043335%, 18.061829%, 71.282959%)" offset="0.710938"/><stop stop-opacity="1" stop-color="rgb(59.286499%, 18.438721%, 71.629333%)" offset="0.714844"/><stop stop-opacity="1" stop-color="rgb(58.529663%, 18.817139%, 71.977234%)" offset="0.71875"/><stop stop-opacity="1" stop-color="rgb(57.772827%, 19.194031%, 72.323608%)" offset="0.722656"/><stop stop-opacity="1" stop-color="rgb(57.015991%, 19.572449%, 72.669983%)" offset="0.726562"/><stop stop-opacity="1" stop-color="rgb(56.259155%, 19.949341%, 73.016357%)" offset="0.730469"/><stop stop-opacity="1" stop-color="rgb(55.502319%, 20.326233%, 73.362732%)" offset="0.734375"/><stop stop-opacity="1" stop-color="rgb(54.745483%, 20.703125%, 73.709106%)" offset="0.738281"/><stop stop-opacity="1" stop-color="rgb(53.988647%, 21.081543%, 74.057007%)" offset="0.742188"/><stop stop-opacity="1" stop-color="rgb(53.231812%, 21.458435%, 74.403381%)" offset="0.746094"/><stop stop-opacity="1" stop-color="rgb(52.474976%, 21.836853%, 74.749756%)" offset="0.75"/><stop stop-opacity="1" stop-color="rgb(51.71814%, 22.213745%, 75.09613%)" offset="0.753906"/><stop stop-opacity="1" stop-color="rgb(50.961304%, 22.592163%, 75.444031%)" offset="0.757812"/><stop stop-opacity="1" stop-color="rgb(50.204468%, 22.969055%, 75.790405%)" offset="0.761719"/><stop stop-opacity="1" stop-color="rgb(49.447632%, 23.345947%, 76.13678%)" offset="0.765625"/><stop stop-opacity="1" stop-color="rgb(48.690796%, 23.722839%, 76.483154%)" offset="0.769531"/><stop stop-opacity="1" stop-color="rgb(47.93396%, 24.101257%, 76.829529%)" offset="0.773438"/><stop stop-opacity="1" stop-color="rgb(47.177124%, 24.478149%, 77.175903%)" offset="0.777344"/><stop stop-opacity="1" stop-color="rgb(46.420288%, 24.856567%, 77.523804%)" offset="0.78125"/><stop stop-opacity="1" stop-color="rgb(45.663452%, 25.233459%, 77.870178%)" offset="0.785156"/><stop stop-opacity="1" stop-color="rgb(44.906616%, 25.611877%, 78.216553%)" offset="0.789062"/><stop stop-opacity="1" stop-color="rgb(44.14978%, 25.98877%, 78.562927%)" offset="0.792969"/><stop stop-opacity="1" stop-color="rgb(43.392944%, 26.365662%, 78.909302%)" offset="0.796875"/><stop stop-opacity="1" stop-color="rgb(42.636108%, 26.742554%, 79.255676%)" offset="0.800781"/><stop stop-opacity="1" stop-color="rgb(41.879272%, 27.120972%, 79.603577%)" offset="0.804688"/><stop stop-opacity="1" stop-color="rgb(41.122437%, 27.497864%, 79.949951%)" offset="0.808594"/><stop stop-opacity="1" stop-color="rgb(40.365601%, 27.876282%, 80.296326%)" offset="0.8125"/><stop stop-opacity="1" stop-color="rgb(39.608765%, 28.253174%, 80.6427%)" offset="0.816406"/><stop stop-opacity="1" stop-color="rgb(38.851929%, 28.631592%, 80.989075%)" offset="0.820312"/><stop stop-opacity="1" stop-color="rgb(38.095093%, 29.008484%, 81.335449%)" offset="0.824219"/><stop stop-opacity="1" stop-color="rgb(37.338257%, 29.385376%, 81.68335%)" offset="0.828125"/><stop stop-opacity="1" stop-color="rgb(36.581421%, 29.762268%, 82.029724%)" offset="0.832031"/><stop stop-opacity="1" stop-color="rgb(35.824585%, 30.140686%, 82.376099%)" offset="0.835938"/><stop stop-opacity="1" stop-color="rgb(35.067749%, 30.517578%, 82.722473%)" offset="0.839844"/><stop stop-opacity="1" stop-color="rgb(34.310913%, 30.895996%, 83.068848%)" offset="0.84375"/><stop stop-opacity="1" stop-color="rgb(33.554077%, 31.272888%, 83.415222%)" offset="0.847656"/><stop stop-opacity="1" stop-color="rgb(32.797241%, 31.651306%, 83.763123%)" offset="0.851563"/><stop stop-opacity="1" stop-color="rgb(32.647705%, 31.724548%, 83.830261%)" offset="0.859375"/><stop stop-opacity="1" stop-color="rgb(32.499695%, 31.799316%, 83.898926%)" offset="0.875"/><stop stop-opacity="1" stop-color="rgb(32.499695%, 31.799316%, 83.898926%)" offset="1"/></linearGradient></defs><g clip-path="url(#eaef579a33)"><g clip-path="url(#35727459d1)"><path fill="url(#8b92728844)" d="M 40.375 40.375 L 40.375 334.375 L 334.375 334.375 L 334.375 40.375 Z M 40.375 40.375 " fill-rule="nonzero"/></g></g><path fill="#ffffff" d="M 226.816406 276.089844 L 148.445312 276.089844 C 121.277344 276.089844 99.171875 253.984375 99.171875 226.816406 L 99.171875 148.445312 C 99.171875 121.277344 121.277344 99.171875 148.445312 99.171875 L 226.816406 99.171875 C 253.984375 99.171875 276.089844 121.277344 276.089844 148.445312 L 276.089844 226.816406 C 276.089844 253.984375 253.984375 276.089844 226.816406 276.089844 Z M 148.445312 111.148438 C 127.882812 111.148438 111.148438 127.882812 111.148438 148.445312 L 111.148438 226.816406 C 111.148438 247.378906 127.882812 264.113281 148.445312 264.113281 L 226.816406 264.113281 C 247.378906 264.113281 264.113281 247.378906 264.113281 226.816406 L 264.113281 148.445312 C 264.113281 127.882812 247.378906 111.148438 226.816406 111.148438 Z M 148.445312 111.148438 " fill-opacity="1" fill-rule="nonzero"/><path fill="#ffffff" d="M 187.632812 231.453125 C 163.472656 231.453125 143.816406 211.796875 143.816406 187.632812 C 143.816406 163.472656 163.472656 143.816406 187.632812 143.816406 C 211.796875 143.816406 231.453125 163.472656 231.453125 187.632812 C 231.453125 211.796875 211.796875 231.453125 187.632812 231.453125 Z M 187.632812 155.789062 C 170.074219 155.789062 155.792969 170.070312 155.792969 187.628906 C 155.792969 205.1875 170.078125 219.472656 187.632812 219.472656 C 205.1875 219.472656 219.476562 205.1875 219.476562 187.628906 C 219.476562 170.070312 205.191406 155.789062 187.632812 155.789062 Z M 187.632812 155.789062 " fill-opacity="1" fill-rule="nonzero"/></svg>