<svg xmlns="http://www.w3.org/2000/svg" xmlns:xlink="http://www.w3.org/1999/xlink" width="500" zoomAndPan="magnify" viewBox="0 0 375 374.999991" height="500" preserveAspectRatio="xMidYMid meet" version="1.0"><defs><clipPath id="8edb008057"><path d="M 54.609375 54.609375 L 320.109375 54.609375 L 320.109375 320.109375 L 54.609375 320.109375 Z M 54.609375 54.609375 " clip-rule="nonzero"/></clipPath></defs><g clip-path="url(#8edb008057)"><path fill="#696b4c" d="M 114.398438 54.609375 L 260.445312 54.609375 C 276.949219 54.609375 291.894531 61.304688 302.792969 72.203125 C 313.539062 82.945312 320.390625 98.046875 320.390625 114.398438 L 320.390625 260.445312 C 320.390625 276.949219 313.539062 291.894531 302.792969 302.792969 C 291.894531 313.539062 276.949219 320.390625 260.445312 320.390625 L 114.398438 320.390625 C 98.046875 320.390625 82.945312 313.539062 72.203125 302.792969 C 61.304688 291.894531 54.609375 276.949219 54.609375 260.445312 L 54.609375 114.398438 C 54.609375 98.046875 61.304688 82.945312 72.203125 72.203125 C 82.945312 61.304688 98.046875 54.609375 114.398438 54.609375 Z M 260.445312 78.273438 L 114.398438 78.273438 C 104.433594 78.273438 95.402344 82.324219 88.863281 88.863281 C 82.324219 95.402344 78.273438 104.433594 78.273438 114.398438 L 78.273438 260.445312 C 78.273438 270.410156 82.324219 279.441406 88.863281 285.980469 C 95.402344 292.675781 104.433594 296.722656 114.398438 296.722656 L 260.445312 296.722656 C 270.410156 296.722656 279.441406 292.675781 285.980469 285.980469 C 292.675781 279.441406 296.722656 270.410156 296.722656 260.445312 L 296.722656 114.398438 C 296.722656 104.433594 292.675781 95.402344 285.980469 88.863281 C 279.441406 82.324219 270.410156 78.273438 260.445312 78.273438 Z M 260.445312 78.273438 " fill-opacity="1" fill-rule="nonzero"/></g><path fill="#696b4c" d="M 262 101.007812 C 265.269531 101.007812 268.386719 102.253906 270.410156 104.433594 C 272.589844 106.613281 273.988281 109.570312 273.988281 112.839844 C 273.988281 116.109375 272.589844 119.222656 270.410156 121.246094 C 268.386719 123.425781 265.269531 124.828125 262 124.828125 C 258.730469 124.828125 255.773438 123.425781 253.59375 121.246094 C 251.414062 119.222656 250.167969 116.109375 250.167969 112.839844 C 250.167969 109.570312 251.414062 106.613281 253.59375 104.433594 C 255.773438 102.253906 258.730469 101.007812 262 101.007812 Z M 262 101.007812 " fill-opacity="1" fill-rule="nonzero"/><path fill="#696b4c" d="M 187.421875 122.960938 C 205.324219 122.960938 221.363281 130.277344 233.039062 141.800781 C 244.71875 153.476562 252.035156 169.671875 252.035156 187.421875 C 252.035156 205.324219 244.71875 221.363281 233.039062 233.039062 C 221.363281 244.71875 205.324219 252.035156 187.421875 252.035156 C 169.671875 252.035156 153.476562 244.71875 141.800781 233.039062 C 130.277344 221.363281 122.960938 205.324219 122.960938 187.421875 C 122.960938 169.671875 130.277344 153.476562 141.800781 141.800781 C 153.476562 130.277344 169.671875 122.960938 187.421875 122.960938 Z M 216.226562 158.769531 C 208.90625 151.453125 198.632812 146.78125 187.421875 146.78125 C 176.210938 146.78125 166.089844 151.453125 158.773438 158.769531 C 151.453125 166.089844 146.78125 176.210938 146.78125 187.421875 C 146.78125 198.632812 151.453125 208.90625 158.773438 216.226562 C 166.089844 223.542969 176.210938 228.058594 187.421875 228.058594 C 198.632812 228.058594 208.90625 223.542969 216.226562 216.226562 C 223.542969 208.90625 228.058594 198.632812 228.058594 187.421875 C 228.058594 176.210938 223.542969 166.089844 216.226562 158.769531 Z M 216.226562 158.769531 " fill-opacity="1" fill-rule="nonzero"/></svg>