<svg xmlns="http://www.w3.org/2000/svg" xmlns:xlink="http://www.w3.org/1999/xlink" width="500" zoomAndPan="magnify" viewBox="0 0 375 374.999991" height="500" preserveAspectRatio="xMidYMid meet" version="1.0"><defs><clipPath id="07345b0edc"><path d="M 195 160 L 342.664062 160 L 342.664062 342.367188 L 195 342.367188 Z M 195 160 " clip-rule="nonzero"/></clipPath><clipPath id="03511c591e"><path d="M 195 32.617188 L 241 32.617188 L 241 87 L 195 87 Z M 195 32.617188 " clip-rule="nonzero"/></clipPath><clipPath id="5aa6ff6061"><path d="M 32.164062 32.617188 L 180 32.617188 L 180 342.367188 L 32.164062 342.367188 Z M 32.164062 32.617188 " clip-rule="nonzero"/></clipPath></defs><path fill="#000000" d="M 195.671875 282.203125 L 335.945312 141.9375 C 332.753906 131.550781 328.464844 121.65625 323.277344 112.320312 L 195.671875 239.929688 Z M 195.671875 282.203125 " fill-opacity="1" fill-rule="nonzero"/><path fill="#000000" d="M 195.671875 151.425781 L 282.3125 64.789062 C 274.238281 58.539062 265.542969 53.085938 256.324219 48.503906 L 195.671875 109.15625 Z M 195.671875 151.425781 " fill-opacity="1" fill-rule="nonzero"/><g clip-path="url(#07345b0edc)"><path fill="#000000" d="M 342.792969 187.507812 C 342.792969 178.34375 341.84375 169.414062 340.3125 160.6875 L 195.671875 305.320312 L 195.671875 342.386719 C 197.496094 342.292969 199.339844 342.273438 201.144531 342.113281 L 342.101562 201.164062 C 342.5 196.652344 342.792969 192.117188 342.792969 187.507812 Z M 342.792969 187.507812 " fill-opacity="1" fill-rule="nonzero"/></g><g clip-path="url(#03511c591e)"><path fill="#000000" d="M 195.671875 86.039062 L 240.125 41.582031 C 226.117188 36.515625 211.207031 33.4375 195.671875 32.625 Z M 195.671875 86.039062 " fill-opacity="1" fill-rule="nonzero"/></g><path fill="#000000" d="M 294.75 75.46875 L 195.671875 174.542969 L 195.671875 216.816406 L 314.308594 98.167969 C 308.523438 89.976562 301.972656 82.386719 294.75 75.46875 Z M 294.75 75.46875 " fill-opacity="1" fill-rule="nonzero"/><path fill="#000000" d="M 229.5 336.871094 C 281.375 322.257812 322.242188 281.394531 336.863281 229.519531 Z M 229.5 336.871094 " fill-opacity="1" fill-rule="nonzero"/><g clip-path="url(#5aa6ff6061)"><path fill="#000000" d="M 179.324219 32.625 C 97.5 36.914062 32.199219 104.632812 32.199219 187.507812 C 32.199219 270.378906 97.5 338.097656 179.324219 342.386719 Z M 179.324219 32.625 " fill-opacity="1" fill-rule="nonzero"/></g></svg>