<svg xmlns="http://www.w3.org/2000/svg" xmlns:xlink="http://www.w3.org/1999/xlink" width="500" zoomAndPan="magnify" viewBox="0 0 375 374.999991" height="500" preserveAspectRatio="xMidYMid meet" version="1.0"><defs><clipPath id="4d1abd3c61"><path d="M 22.382812 210 L 303 210 L 303 344.136719 L 22.382812 344.136719 Z M 22.382812 210 " clip-rule="nonzero"/></clipPath><clipPath id="7ac8e2180f"><path d="M 236 114 L 352.382812 114 L 352.382812 231 L 236 231 Z M 236 114 " clip-rule="nonzero"/></clipPath></defs><g clip-path="url(#4d1abd3c61)"><path fill="#000000" d="M 206.472656 210.949219 L 118.363281 210.949219 C 116.789062 210.953125 115.214844 210.992188 113.644531 211.070312 C 112.074219 211.152344 110.503906 211.269531 108.9375 211.425781 C 107.371094 211.578125 105.808594 211.773438 104.253906 212.007812 C 102.699219 212.238281 101.148438 212.507812 99.605469 212.816406 C 98.0625 213.125 96.527344 213.472656 95 213.855469 C 93.472656 214.238281 91.957031 214.660156 90.453125 215.117188 C 88.945312 215.578125 87.453125 216.070312 85.972656 216.601562 C 84.488281 217.132812 83.023438 217.699219 81.570312 218.304688 C 80.113281 218.90625 78.675781 219.546875 77.253906 220.21875 C 75.832031 220.890625 74.425781 221.601562 73.039062 222.34375 C 71.652344 223.085938 70.285156 223.863281 68.933594 224.671875 C 67.585938 225.480469 66.253906 226.324219 64.945312 227.199219 C 63.640625 228.074219 62.351562 228.980469 61.089844 229.917969 C 59.824219 230.855469 58.585938 231.824219 57.367188 232.820312 C 56.152344 233.820312 54.960938 234.847656 53.792969 235.902344 C 52.628906 236.960938 51.488281 238.046875 50.375 239.160156 C 49.265625 240.273438 48.179688 241.410156 47.121094 242.578125 C 46.066406 243.742188 45.039062 244.933594 44.039062 246.152344 C 43.039062 247.367188 42.070312 248.605469 41.132812 249.871094 C 40.195312 251.136719 39.289062 252.421875 38.414062 253.730469 C 37.539062 255.039062 36.699219 256.367188 35.890625 257.714844 C 35.078125 259.066406 34.304688 260.433594 33.558594 261.820312 C 32.816406 263.210938 32.109375 264.613281 31.4375 266.035156 C 30.761719 267.460938 30.125 268.898438 29.519531 270.351562 C 28.917969 271.804688 28.351562 273.273438 27.820312 274.753906 C 27.289062 276.234375 26.792969 277.730469 26.335938 279.234375 C 25.878906 280.738281 25.457031 282.257812 25.074219 283.78125 C 24.691406 285.308594 24.34375 286.84375 24.035156 288.386719 C 23.726562 289.929688 23.457031 291.480469 23.222656 293.035156 C 22.992188 294.59375 22.796875 296.152344 22.640625 297.71875 C 22.484375 299.285156 22.367188 300.855469 22.289062 302.425781 C 22.210938 304 22.167969 305.570312 22.167969 307.144531 L 22.167969 336.515625 C 22.167969 337.058594 22.222656 337.59375 22.328125 338.125 C 22.433594 338.65625 22.589844 339.171875 22.796875 339.671875 C 23.003906 340.171875 23.257812 340.648438 23.558594 341.097656 C 23.859375 341.550781 24.203125 341.964844 24.585938 342.347656 C 24.96875 342.730469 25.382812 343.074219 25.835938 343.375 C 26.285156 343.675781 26.761719 343.929688 27.261719 344.136719 C 27.761719 344.34375 28.277344 344.5 28.808594 344.605469 C 29.339844 344.710938 29.875 344.765625 30.417969 344.765625 L 294.417969 344.765625 C 294.960938 344.765625 295.496094 344.710938 296.027344 344.605469 C 296.558594 344.5 297.074219 344.34375 297.574219 344.136719 C 298.074219 343.929688 298.550781 343.675781 299 343.375 C 299.453125 343.074219 299.867188 342.730469 300.25 342.347656 C 300.632812 341.964844 300.976562 341.550781 301.277344 341.097656 C 301.578125 340.648438 301.832031 340.171875 302.039062 339.671875 C 302.246094 339.171875 302.402344 338.65625 302.507812 338.125 C 302.613281 337.59375 302.667969 337.058594 302.667969 336.515625 L 302.667969 307.144531 C 302.667969 305.570312 302.625 304 302.546875 302.425781 C 302.46875 300.855469 302.351562 299.285156 302.195312 297.71875 C 302.039062 296.152344 301.847656 294.59375 301.613281 293.035156 C 301.382812 291.480469 301.113281 289.929688 300.804688 288.386719 C 300.496094 286.84375 300.148438 285.308594 299.765625 283.78125 C 299.382812 282.253906 298.960938 280.738281 298.503906 279.234375 C 298.046875 277.726562 297.550781 276.234375 297.019531 274.75 C 296.488281 273.269531 295.921875 271.800781 295.320312 270.347656 C 294.714844 268.894531 294.078125 267.457031 293.402344 266.035156 C 292.730469 264.613281 292.023438 263.207031 291.28125 261.820312 C 290.539062 260.429688 289.761719 259.0625 288.953125 257.710938 C 288.144531 256.363281 287.300781 255.035156 286.425781 253.726562 C 285.550781 252.417969 284.644531 251.132812 283.707031 249.867188 C 282.769531 248.601562 281.800781 247.363281 280.800781 246.144531 C 279.804688 244.929688 278.777344 243.738281 277.71875 242.574219 C 276.660156 241.40625 275.578125 240.265625 274.464844 239.152344 C 273.351562 238.042969 272.210938 236.957031 271.046875 235.898438 C 269.878906 234.84375 268.6875 233.8125 267.472656 232.816406 C 266.253906 231.816406 265.015625 230.847656 263.75 229.910156 C 262.488281 228.972656 261.199219 228.066406 259.894531 227.191406 C 258.585938 226.316406 257.253906 225.476562 255.90625 224.667969 C 254.554688 223.855469 253.1875 223.082031 251.800781 222.339844 C 250.410156 221.59375 249.007812 220.886719 247.585938 220.214844 C 246.160156 219.539062 244.722656 218.902344 243.269531 218.300781 C 241.816406 217.695312 240.347656 217.128906 238.867188 216.597656 C 237.386719 216.066406 235.890625 215.574219 234.386719 215.113281 C 232.878906 214.65625 231.363281 214.234375 229.835938 213.851562 C 228.3125 213.46875 226.777344 213.125 225.234375 212.816406 C 223.6875 212.507812 222.140625 212.238281 220.582031 212.003906 C 219.027344 211.773438 217.464844 211.578125 215.898438 211.421875 C 214.332031 211.265625 212.761719 211.148438 211.191406 211.070312 C 209.621094 210.992188 208.046875 210.953125 206.472656 210.949219 Z M 206.472656 210.949219 " fill-opacity="1" fill-rule="nonzero"/></g><path fill="#000000" d="M 236.667969 105.515625 C 236.667969 106.730469 236.636719 107.945312 236.578125 109.160156 C 236.519531 110.371094 236.429688 111.582031 236.308594 112.792969 C 236.191406 114.003906 236.042969 115.207031 235.863281 116.410156 C 235.6875 117.613281 235.476562 118.808594 235.242188 120 C 235.003906 121.191406 234.738281 122.378906 234.441406 123.554688 C 234.148438 124.734375 233.824219 125.90625 233.472656 127.070312 C 233.117188 128.230469 232.738281 129.386719 232.328125 130.53125 C 231.917969 131.671875 231.480469 132.808594 231.015625 133.929688 C 230.550781 135.050781 230.058594 136.164062 229.539062 137.261719 C 229.019531 138.359375 228.472656 139.445312 227.902344 140.515625 C 227.328125 141.589844 226.730469 142.644531 226.105469 143.6875 C 225.480469 144.730469 224.828125 145.757812 224.15625 146.765625 C 223.480469 147.777344 222.78125 148.769531 222.054688 149.746094 C 221.332031 150.722656 220.585938 151.679688 219.8125 152.617188 C 219.042969 153.558594 218.25 154.476562 217.433594 155.378906 C 216.617188 156.277344 215.78125 157.160156 214.921875 158.019531 C 214.0625 158.878906 213.179688 159.714844 212.28125 160.53125 C 211.378906 161.347656 210.460938 162.140625 209.523438 162.910156 C 208.582031 163.683594 207.625 164.429688 206.648438 165.152344 C 205.671875 165.878906 204.679688 166.578125 203.667969 167.25 C 202.660156 167.925781 201.632812 168.578125 200.589844 169.203125 C 199.546875 169.828125 198.492188 170.425781 197.417969 170.996094 C 196.347656 171.570312 195.261719 172.117188 194.164062 172.636719 C 193.066406 173.15625 191.953125 173.648438 190.832031 174.113281 C 189.710938 174.578125 188.574219 175.015625 187.433594 175.425781 C 186.289062 175.835938 185.132812 176.214844 183.972656 176.566406 C 182.808594 176.921875 181.636719 177.246094 180.460938 177.539062 C 179.28125 177.835938 178.09375 178.101562 176.902344 178.339844 C 175.710938 178.574219 174.515625 178.785156 173.3125 178.960938 C 172.109375 179.140625 170.90625 179.289062 169.695312 179.40625 C 168.488281 179.527344 167.273438 179.617188 166.0625 179.675781 C 164.847656 179.734375 163.632812 179.765625 162.417969 179.765625 C 161.203125 179.765625 159.988281 179.734375 158.773438 179.675781 C 157.5625 179.617188 156.347656 179.527344 155.140625 179.40625 C 153.929688 179.289062 152.726562 179.140625 151.523438 178.960938 C 150.320312 178.785156 149.125 178.574219 147.933594 178.339844 C 146.742188 178.101562 145.554688 177.835938 144.375 177.539062 C 143.199219 177.246094 142.027344 176.921875 140.863281 176.566406 C 139.703125 176.214844 138.546875 175.835938 137.402344 175.425781 C 136.261719 175.015625 135.125 174.578125 134.003906 174.113281 C 132.882812 173.648438 131.769531 173.15625 130.671875 172.636719 C 129.574219 172.117188 128.488281 171.570312 127.417969 170.996094 C 126.34375 170.425781 125.289062 169.828125 124.246094 169.203125 C 123.203125 168.578125 122.175781 167.925781 121.167969 167.25 C 120.15625 166.578125 119.164062 165.878906 118.1875 165.152344 C 117.210938 164.429688 116.253906 163.683594 115.3125 162.910156 C 114.375 162.140625 113.457031 161.347656 112.554688 160.53125 C 111.65625 159.714844 110.773438 158.878906 109.914062 158.019531 C 109.054688 157.160156 108.21875 156.277344 107.402344 155.378906 C 106.585938 154.476562 105.792969 153.558594 105.023438 152.617188 C 104.25 151.679688 103.503906 150.722656 102.78125 149.746094 C 102.054688 148.769531 101.355469 147.777344 100.679688 146.765625 C 100.007812 145.757812 99.355469 144.730469 98.730469 143.6875 C 98.105469 142.644531 97.507812 141.589844 96.933594 140.515625 C 96.363281 139.445312 95.816406 138.359375 95.296875 137.261719 C 94.777344 136.164062 94.285156 135.050781 93.820312 133.929688 C 93.355469 132.808594 92.917969 131.671875 92.507812 130.53125 C 92.097656 129.386719 91.71875 128.230469 91.363281 127.070312 C 91.011719 125.90625 90.6875 124.734375 90.394531 123.554688 C 90.097656 122.378906 89.832031 121.191406 89.59375 120 C 89.359375 118.808594 89.148438 117.613281 88.972656 116.410156 C 88.792969 115.207031 88.644531 114.003906 88.527344 112.792969 C 88.40625 111.582031 88.316406 110.371094 88.257812 109.160156 C 88.199219 107.945312 88.167969 106.730469 88.167969 105.515625 C 88.167969 104.300781 88.199219 103.085938 88.257812 101.871094 C 88.316406 100.660156 88.40625 99.445312 88.527344 98.238281 C 88.644531 97.027344 88.792969 95.824219 88.972656 94.621094 C 89.148438 93.417969 89.359375 92.222656 89.59375 91.03125 C 89.832031 89.839844 90.097656 88.652344 90.394531 87.472656 C 90.6875 86.296875 91.011719 85.125 91.363281 83.960938 C 91.71875 82.800781 92.097656 81.644531 92.507812 80.5 C 92.917969 79.355469 93.355469 78.222656 93.820312 77.101562 C 94.285156 75.976562 94.777344 74.867188 95.296875 73.769531 C 95.816406 72.671875 96.363281 71.585938 96.933594 70.515625 C 97.507812 69.441406 98.105469 68.386719 98.730469 67.34375 C 99.355469 66.300781 100.007812 65.273438 100.679688 64.265625 C 101.355469 63.253906 102.054688 62.261719 102.78125 61.285156 C 103.503906 60.308594 104.25 59.351562 105.023438 58.410156 C 105.792969 57.472656 106.585938 56.550781 107.402344 55.652344 C 108.21875 54.75 109.054688 53.871094 109.914062 53.011719 C 110.773438 52.152344 111.65625 51.316406 112.554688 50.5 C 113.457031 49.683594 114.375 48.890625 115.3125 48.121094 C 116.253906 47.347656 117.210938 46.601562 118.1875 45.878906 C 119.164062 45.152344 120.15625 44.453125 121.167969 43.777344 C 122.175781 43.105469 123.203125 42.453125 124.246094 41.828125 C 125.289062 41.203125 126.34375 40.605469 127.417969 40.03125 C 128.488281 39.460938 129.574219 38.914062 130.671875 38.394531 C 131.769531 37.875 132.882812 37.382812 134.003906 36.917969 C 135.125 36.453125 136.261719 36.015625 137.402344 35.605469 C 138.546875 35.195312 139.703125 34.816406 140.863281 34.460938 C 142.027344 34.109375 143.199219 33.785156 144.375 33.492188 C 145.554688 33.195312 146.742188 32.929688 147.933594 32.691406 C 149.125 32.453125 150.320312 32.246094 151.523438 32.070312 C 152.726562 31.890625 153.929688 31.742188 155.140625 31.621094 C 156.347656 31.503906 157.5625 31.414062 158.773438 31.355469 C 159.988281 31.296875 161.203125 31.265625 162.417969 31.265625 C 163.632812 31.265625 164.847656 31.296875 166.0625 31.355469 C 167.273438 31.414062 168.488281 31.503906 169.695312 31.621094 C 170.90625 31.742188 172.109375 31.890625 173.3125 32.070312 C 174.515625 32.246094 175.710938 32.453125 176.902344 32.691406 C 178.09375 32.929688 179.28125 33.195312 180.460938 33.492188 C 181.636719 33.785156 182.808594 34.109375 183.972656 34.460938 C 185.132812 34.816406 186.289062 35.195312 187.433594 35.605469 C 188.574219 36.015625 189.710938 36.453125 190.832031 36.917969 C 191.953125 37.382812 193.066406 37.875 194.164062 38.394531 C 195.261719 38.914062 196.347656 39.460938 197.417969 40.03125 C 198.492188 40.605469 199.546875 41.203125 200.589844 41.828125 C 201.632812 42.453125 202.660156 43.105469 203.667969 43.777344 C 204.679688 44.453125 205.671875 45.152344 206.648438 45.878906 C 207.625 46.601562 208.582031 47.347656 209.523438 48.121094 C 210.460938 48.890625 211.378906 49.683594 212.28125 50.5 C 213.179688 51.316406 214.0625 52.152344 214.921875 53.011719 C 215.78125 53.871094 216.617188 54.75 217.433594 55.652344 C 218.25 56.550781 219.042969 57.472656 219.8125 58.410156 C 220.585938 59.351562 221.332031 60.308594 222.054688 61.285156 C 222.78125 62.261719 223.480469 63.253906 224.15625 64.265625 C 224.828125 65.273438 225.480469 66.300781 226.105469 67.34375 C 226.730469 68.386719 227.328125 69.441406 227.902344 70.515625 C 228.472656 71.585938 229.019531 72.671875 229.539062 73.769531 C 230.058594 74.867188 230.550781 75.976562 231.015625 77.101562 C 231.480469 78.222656 231.917969 79.355469 232.328125 80.5 C 232.738281 81.644531 233.117188 82.800781 233.472656 83.960938 C 233.824219 85.125 234.148438 86.296875 234.441406 87.472656 C 234.738281 88.652344 235.003906 89.839844 235.242188 91.03125 C 235.476562 92.222656 235.6875 93.417969 235.863281 94.621094 C 236.042969 95.824219 236.191406 97.027344 236.308594 98.238281 C 236.429688 99.445312 236.519531 100.660156 236.578125 101.871094 C 236.636719 103.085938 236.667969 104.300781 236.667969 105.515625 Z M 236.667969 105.515625 " fill-opacity="1" fill-rule="nonzero"/><g clip-path="url(#7ac8e2180f)"><path fill="#000000" d="M 335.882812 156.039062 L 311.132812 156.039062 L 311.132812 131.289062 C 311.132812 130.746094 311.105469 130.207031 311.054688 129.671875 C 311 129.132812 310.921875 128.597656 310.816406 128.070312 C 310.710938 127.539062 310.578125 127.015625 310.421875 126.5 C 310.265625 125.980469 310.082031 125.472656 309.875 124.972656 C 309.667969 124.476562 309.4375 123.988281 309.183594 123.511719 C 308.929688 123.035156 308.652344 122.570312 308.351562 122.121094 C 308.050781 121.671875 307.730469 121.238281 307.386719 120.820312 C 307.042969 120.402344 306.683594 120.003906 306.300781 119.621094 C 305.917969 119.238281 305.519531 118.875 305.101562 118.535156 C 304.683594 118.191406 304.25 117.871094 303.800781 117.570312 C 303.351562 117.269531 302.886719 116.992188 302.410156 116.738281 C 301.933594 116.480469 301.445312 116.25 300.945312 116.042969 C 300.449219 115.835938 299.9375 115.65625 299.421875 115.5 C 298.90625 115.34375 298.382812 115.210938 297.851562 115.105469 C 297.320312 115 296.789062 114.921875 296.25 114.867188 C 295.710938 114.816406 295.171875 114.789062 294.632812 114.789062 C 294.09375 114.789062 293.554688 114.816406 293.015625 114.867188 C 292.476562 114.921875 291.945312 115 291.414062 115.105469 C 290.882812 115.210938 290.359375 115.34375 289.84375 115.5 C 289.324219 115.65625 288.816406 115.835938 288.316406 116.042969 C 287.820312 116.25 287.332031 116.480469 286.855469 116.738281 C 286.378906 116.992188 285.914062 117.269531 285.464844 117.570312 C 285.015625 117.871094 284.582031 118.191406 284.164062 118.535156 C 283.746094 118.875 283.347656 119.238281 282.964844 119.621094 C 282.582031 120.003906 282.21875 120.402344 281.878906 120.820312 C 281.535156 121.238281 281.214844 121.671875 280.914062 122.121094 C 280.613281 122.570312 280.335938 123.035156 280.082031 123.511719 C 279.824219 123.988281 279.59375 124.476562 279.386719 124.972656 C 279.179688 125.472656 279 125.980469 278.84375 126.5 C 278.6875 127.015625 278.554688 127.539062 278.449219 128.070312 C 278.34375 128.597656 278.265625 129.132812 278.210938 129.671875 C 278.160156 130.207031 278.132812 130.746094 278.132812 131.289062 L 278.132812 156.039062 L 253.382812 156.039062 C 252.84375 156.039062 252.304688 156.066406 251.765625 156.117188 C 251.226562 156.171875 250.695312 156.25 250.164062 156.355469 C 249.632812 156.460938 249.109375 156.59375 248.59375 156.75 C 248.074219 156.90625 247.566406 157.085938 247.066406 157.292969 C 246.570312 157.5 246.082031 157.730469 245.605469 157.988281 C 245.128906 158.242188 244.664062 158.519531 244.214844 158.820312 C 243.765625 159.121094 243.332031 159.441406 242.914062 159.785156 C 242.496094 160.125 242.097656 160.488281 241.714844 160.871094 C 241.332031 161.253906 240.96875 161.652344 240.628906 162.070312 C 240.285156 162.488281 239.964844 162.921875 239.664062 163.371094 C 239.363281 163.820312 239.085938 164.285156 238.832031 164.761719 C 238.574219 165.238281 238.34375 165.726562 238.136719 166.222656 C 237.933594 166.722656 237.75 167.230469 237.59375 167.75 C 237.4375 168.265625 237.304688 168.789062 237.199219 169.320312 C 237.09375 169.847656 237.015625 170.382812 236.960938 170.921875 C 236.910156 171.457031 236.882812 171.996094 236.882812 172.539062 C 236.882812 173.078125 236.910156 173.617188 236.960938 174.15625 C 237.015625 174.695312 237.09375 175.226562 237.199219 175.757812 C 237.304688 176.289062 237.4375 176.8125 237.59375 177.328125 C 237.75 177.84375 237.933594 178.351562 238.136719 178.851562 C 238.34375 179.351562 238.574219 179.839844 238.832031 180.316406 C 239.085938 180.792969 239.363281 181.257812 239.664062 181.707031 C 239.964844 182.15625 240.285156 182.589844 240.628906 183.003906 C 240.96875 183.421875 241.332031 183.824219 241.714844 184.207031 C 242.097656 184.585938 242.496094 184.949219 242.914062 185.292969 C 243.332031 185.636719 243.765625 185.957031 244.214844 186.257812 C 244.664062 186.558594 245.128906 186.835938 245.605469 187.089844 C 246.082031 187.34375 246.570312 187.574219 247.066406 187.78125 C 247.566406 187.988281 248.074219 188.171875 248.59375 188.328125 C 249.109375 188.484375 249.632812 188.617188 250.164062 188.722656 C 250.695312 188.828125 251.226562 188.90625 251.765625 188.957031 C 252.304688 189.011719 252.84375 189.039062 253.382812 189.039062 L 278.132812 189.039062 L 278.132812 213.789062 C 278.132812 214.328125 278.160156 214.867188 278.210938 215.40625 C 278.265625 215.945312 278.34375 216.476562 278.449219 217.007812 C 278.554688 217.539062 278.6875 218.0625 278.84375 218.578125 C 279 219.09375 279.179688 219.601562 279.386719 220.101562 C 279.59375 220.601562 279.824219 221.089844 280.082031 221.566406 C 280.335938 222.042969 280.613281 222.507812 280.914062 222.957031 C 281.214844 223.40625 281.535156 223.839844 281.878906 224.253906 C 282.21875 224.671875 282.582031 225.074219 282.964844 225.457031 C 283.347656 225.835938 283.746094 226.199219 284.164062 226.542969 C 284.582031 226.886719 285.015625 227.207031 285.464844 227.507812 C 285.914062 227.808594 286.378906 228.085938 286.855469 228.339844 C 287.332031 228.59375 287.820312 228.824219 288.316406 229.03125 C 288.816406 229.238281 289.324219 229.421875 289.84375 229.578125 C 290.359375 229.734375 290.882812 229.867188 291.414062 229.972656 C 291.945312 230.078125 292.476562 230.15625 293.015625 230.207031 C 293.554688 230.261719 294.09375 230.289062 294.632812 230.289062 C 295.171875 230.289062 295.710938 230.261719 296.25 230.207031 C 296.789062 230.15625 297.320312 230.078125 297.851562 229.972656 C 298.382812 229.867188 298.90625 229.734375 299.421875 229.578125 C 299.9375 229.421875 300.449219 229.238281 300.945312 229.03125 C 301.445312 228.824219 301.933594 228.59375 302.410156 228.339844 C 302.886719 228.085938 303.351562 227.808594 303.800781 227.507812 C 304.25 227.207031 304.683594 226.886719 305.101562 226.542969 C 305.519531 226.199219 305.917969 225.835938 306.300781 225.457031 C 306.683594 225.074219 307.042969 224.671875 307.386719 224.253906 C 307.730469 223.839844 308.050781 223.40625 308.351562 222.957031 C 308.652344 222.507812 308.929688 222.042969 309.183594 221.566406 C 309.4375 221.089844 309.667969 220.601562 309.875 220.101562 C 310.082031 219.601562 310.265625 219.09375 310.421875 218.578125 C 310.578125 218.0625 310.710938 217.539062 310.816406 217.007812 C 310.921875 216.476562 311 215.945312 311.054688 215.40625 C 311.105469 214.867188 311.132812 214.328125 311.132812 213.789062 L 311.132812 189.039062 L 335.882812 189.039062 C 336.421875 189.039062 336.960938 189.011719 337.5 188.957031 C 338.039062 188.90625 338.570312 188.828125 339.101562 188.722656 C 339.632812 188.617188 340.15625 188.484375 340.671875 188.328125 C 341.1875 188.171875 341.699219 187.988281 342.195312 187.78125 C 342.695312 187.574219 343.183594 187.34375 343.660156 187.089844 C 344.136719 186.835938 344.601562 186.558594 345.050781 186.257812 C 345.5 185.957031 345.933594 185.636719 346.351562 185.292969 C 346.769531 184.949219 347.167969 184.585938 347.550781 184.207031 C 347.933594 183.824219 348.292969 183.421875 348.636719 183.003906 C 348.980469 182.589844 349.300781 182.15625 349.601562 181.707031 C 349.902344 181.257812 350.179688 180.792969 350.433594 180.316406 C 350.6875 179.839844 350.917969 179.351562 351.125 178.851562 C 351.332031 178.351562 351.515625 177.84375 351.671875 177.328125 C 351.828125 176.8125 351.960938 176.289062 352.066406 175.757812 C 352.171875 175.226562 352.25 174.695312 352.304688 174.15625 C 352.355469 173.617188 352.382812 173.078125 352.382812 172.539062 C 352.382812 171.996094 352.355469 171.457031 352.304688 170.921875 C 352.25 170.382812 352.171875 169.847656 352.066406 169.320312 C 351.960938 168.789062 351.828125 168.265625 351.671875 167.75 C 351.515625 167.230469 351.332031 166.722656 351.125 166.222656 C 350.917969 165.726562 350.6875 165.238281 350.433594 164.761719 C 350.179688 164.285156 349.902344 163.820312 349.601562 163.371094 C 349.300781 162.921875 348.980469 162.488281 348.636719 162.070312 C 348.292969 161.652344 347.933594 161.253906 347.550781 160.871094 C 347.167969 160.488281 346.769531 160.125 346.351562 159.785156 C 345.933594 159.441406 345.5 159.121094 345.050781 158.820312 C 344.601562 158.519531 344.136719 158.242188 343.660156 157.988281 C 343.183594 157.730469 342.695312 157.5 342.195312 157.292969 C 341.699219 157.085938 341.1875 156.90625 340.671875 156.75 C 340.15625 156.59375 339.632812 156.460938 339.101562 156.355469 C 338.570312 156.25 338.039062 156.171875 337.5 156.117188 C 336.960938 156.066406 336.421875 156.039062 335.882812 156.039062 Z M 335.882812 156.039062 " fill-opacity="1" fill-rule="nonzero"/></g></svg>