<svg xmlns="http://www.w3.org/2000/svg" xmlns:xlink="http://www.w3.org/1999/xlink" width="500" zoomAndPan="magnify" viewBox="0 0 375 374.999991" height="500" preserveAspectRatio="xMidYMid meet" version="1.0"><defs><clipPath id="3e10054851"><path d="M 22.417969 53.371094 L 352.417969 53.371094 L 352.417969 321.871094 L 22.417969 321.871094 Z M 22.417969 53.371094 " clip-rule="nonzero"/></clipPath></defs><g clip-path="url(#3e10054851)"><path fill="#000000" d="M 93.820312 53.371094 C 90.390625 53.371094 87.65625 55.4375 86.960938 58.871094 L 23.179688 312.949219 C 22.484375 315.015625 23.179688 317.054688 24.546875 319.121094 C 25.914062 321.183594 27.976562 321.183594 30.039062 321.183594 L 65.691406 321.183594 C 69.121094 321.183594 71.851562 319.121094 72.550781 315.6875 L 85.566406 252.515625 L 152.804688 252.515625 L 165.824219 315.6875 C 166.519531 319.121094 169.25 321.183594 172.679688 321.183594 L 208.335938 321.183594 C 210.398438 321.183594 212.460938 320.488281 213.824219 318.421875 C 215.191406 316.382812 215.886719 314.316406 215.191406 312.253906 L 150.714844 58.171875 C 150.046875 55.4375 147.285156 53.371094 143.855469 53.371094 Z M 119.1875 98.007812 L 144.554688 211.3125 L 93.820312 211.3125 Z M 296.8125 156.375 C 274.847656 156.375 250.175781 164.613281 231.667969 178.347656 C 230.273438 179.714844 228.90625 181.109375 228.90625 183.175781 C 228.90625 185.210938 229.601562 187.277344 230.96875 188.644531 L 244.683594 202.378906 C 246.050781 203.75 247.417969 204.445312 249.480469 204.445312 C 250.847656 204.445312 251.542969 204.445312 252.238281 203.773438 C 259.765625 200.339844 280.339844 190.710938 290.625 190.710938 C 300.214844 190.710938 307.074219 192.777344 311.199219 196.90625 C 315.324219 201.011719 317.359375 207.878906 318.054688 218.851562 L 311.199219 218.851562 C 277.605469 218.851562 241.257812 221.613281 229.578125 242.886719 C 220.683594 258.683594 220.683594 277.917969 230.273438 294.386719 C 240.558594 311.554688 259.070312 321.855469 281.703125 321.855469 C 293.355469 321.855469 305.707031 319.121094 318.054688 314.316406 C 318.054688 316.382812 318.75 317.75 320.117188 319.121094 C 321.484375 320.488281 322.851562 321.183594 324.914062 321.183594 L 345.484375 321.183594 C 348.914062 321.183594 352.34375 317.75 352.34375 314.316406 L 352.34375 231.242188 C 352.34375 210.640625 352.34375 179.714844 329.011719 164.613281 C 320.789062 159.113281 309.832031 156.375 296.8125 156.375 Z M 250.523438 174.722656 C 250.230469 174.886719 249.933594 175.046875 249.640625 175.179688 C 249.933594 175.046875 250.230469 174.886719 250.523438 174.722656 Z M 245.433594 177.488281 C 242.382812 179.285156 239.40625 181.1875 236.566406 183.28125 C 236.542969 183.253906 236.460938 183.175781 236.433594 183.175781 C 239.273438 181.109375 242.328125 179.257812 245.433594 177.488281 Z M 311.867188 224.375 L 324.886719 224.375 C 324.886719 224.589844 324.914062 224.804688 324.914062 225.046875 C 320.089844 225.261719 311.171875 224.699219 300.910156 224.511719 C 304.796875 224.402344 308.519531 224.375 311.867188 224.375 Z M 297.484375 252.515625 L 318.054688 252.515625 C 318.054688 286.851562 256.335938 299.914062 256.335938 271.746094 C 256.335938 258.015625 269.355469 252.515625 297.484375 252.515625 Z M 297.484375 252.515625 " fill-opacity="1" fill-rule="nonzero"/></g></svg>