<svg xmlns="http://www.w3.org/2000/svg" xmlns:xlink="http://www.w3.org/1999/xlink" width="500" zoomAndPan="magnify" viewBox="0 0 375 374.999991" height="500" preserveAspectRatio="xMidYMid meet" version="1.0"><path fill="#040606" d="M 308.371094 131.273438 C 303.464844 123.433594 293.347656 120.808594 285.1875 125.394531 C 277.03125 130.308594 274.742188 140.773438 279.621094 148.945312 C 291.0625 167.585938 296.628906 189.839844 294.339844 213.722656 C 289.433594 264.113281 247.945312 304.015625 197.664062 307.632812 C 136.578125 311.855469 85.632812 262.816406 86.265625 202.597656 C 86.929688 146.65625 132.660156 100.210938 188.511719 99.21875 L 189.144531 99.21875 L 189.144531 124.097656 C 189.144531 131.273438 197.003906 135.859375 203.207031 131.9375 L 270.164062 90.050781 C 276.039062 86.460938 276.039062 77.957031 270.164062 74.367188 L 203.535156 32.148438 C 197.332031 28.230469 189.476562 32.8125 189.476562 40.019531 L 189.476562 65.199219 C 110.113281 65.863281 46.734375 133.234375 52.636719 214.054688 C 57.542969 281.785156 112.070312 336.402344 179.691406 341.316406 C 260.683594 347.53125 328.304688 283.085938 328.304688 203.257812 C 328.632812 177.082031 321.109375 152.234375 308.371094 131.273438 " fill-opacity="1" fill-rule="nonzero"/></svg>