<svg xmlns="http://www.w3.org/2000/svg" xmlns:xlink="http://www.w3.org/1999/xlink" width="500" zoomAndPan="magnify" viewBox="0 0 375 374.999991" height="500" preserveAspectRatio="xMidYMid meet" version="1.0"><defs><clipPath id="47d23d1e36"><path d="M 63 30.242188 L 312 30.242188 L 312 344.492188 L 63 344.492188 Z M 63 30.242188 " clip-rule="nonzero"/></clipPath></defs><g clip-path="url(#47d23d1e36)"><path fill="#0d0d0d" d="M 296.382812 160.765625 C 281.8125 135.445312 257.871094 116.65625 227.101562 106.382812 C 234.429688 97.65625 241.910156 88.902344 249.171875 80.402344 C 253.207031 75.679688 257.238281 70.957031 261.257812 66.226562 L 261.683594 65.734375 C 261.78125 65.621094 261.863281 65.503906 261.941406 65.382812 C 262.007812 65.273438 262.0625 65.167969 262.113281 65.054688 C 262.117188 65.042969 262.121094 65.027344 262.128906 65.015625 C 262.140625 64.988281 262.152344 64.964844 262.164062 64.9375 C 262.214844 64.8125 262.25 64.683594 262.28125 64.554688 C 262.28125 64.550781 262.285156 64.542969 262.285156 64.539062 C 262.285156 64.53125 262.285156 64.527344 262.289062 64.523438 C 262.292969 64.496094 262.300781 64.472656 262.308594 64.445312 C 262.316406 64.386719 262.328125 64.328125 262.335938 64.273438 C 262.335938 64.261719 262.339844 64.246094 262.339844 64.234375 L 262.339844 64.207031 C 262.34375 64.1875 262.34375 64.171875 262.34375 64.15625 C 262.355469 64.042969 262.363281 63.925781 262.351562 63.816406 C 262.351562 63.816406 262.351562 63.8125 262.351562 63.8125 C 262.351562 63.804688 262.351562 63.796875 262.351562 63.789062 C 262.355469 63.773438 262.355469 63.753906 262.351562 63.746094 C 262.351562 63.722656 262.351562 63.707031 262.34375 63.683594 C 262.34375 63.667969 262.339844 63.648438 262.339844 63.628906 L 262.339844 63.609375 C 262.335938 63.578125 262.335938 63.539062 262.324219 63.503906 C 262.320312 63.488281 262.316406 63.472656 262.3125 63.457031 C 262.3125 63.417969 262.308594 63.378906 262.296875 63.351562 C 262.296875 63.320312 262.289062 63.300781 262.277344 63.273438 C 262.277344 63.253906 262.277344 63.246094 262.269531 63.234375 C 262.257812 63.171875 262.238281 63.109375 262.21875 63.054688 C 262.222656 63.050781 262.21875 63.050781 262.21875 63.050781 C 262.207031 62.996094 262.183594 62.945312 262.164062 62.894531 C 262.144531 62.855469 262.128906 62.8125 262.113281 62.773438 C 262.105469 62.757812 262.101562 62.75 262.097656 62.742188 L 262.097656 62.738281 C 262.097656 62.726562 262.089844 62.722656 262.085938 62.714844 C 262.078125 62.699219 262.066406 62.6875 262.0625 62.671875 C 262.035156 62.617188 262.007812 62.5625 261.972656 62.511719 C 261.945312 62.457031 261.914062 62.40625 261.878906 62.363281 C 261.878906 62.355469 261.875 62.34375 261.867188 62.339844 C 261.863281 62.328125 261.855469 62.324219 261.847656 62.3125 L 261.847656 62.304688 L 261.839844 62.304688 C 261.839844 62.304688 261.839844 62.300781 261.839844 62.300781 C 261.835938 62.296875 261.839844 62.296875 261.835938 62.292969 C 261.828125 62.285156 261.816406 62.265625 261.808594 62.257812 C 261.777344 62.21875 261.75 62.179688 261.710938 62.140625 C 261.703125 62.117188 261.683594 62.101562 261.667969 62.082031 C 261.664062 62.074219 261.65625 62.066406 261.652344 62.0625 L 261.644531 62.0625 C 261.640625 62.042969 261.628906 62.035156 261.613281 62.023438 C 261.605469 62.011719 261.597656 62 261.585938 61.988281 L 232.144531 31.414062 L 232.058594 31.328125 C 232.039062 31.304688 232.019531 31.28125 232 31.265625 C 231.941406 31.203125 231.875 31.144531 231.804688 31.085938 C 231.78125 31.070312 231.757812 31.054688 231.738281 31.042969 C 231.699219 31.007812 231.664062 30.980469 231.625 30.960938 C 231.621094 30.957031 231.617188 30.953125 231.613281 30.953125 C 231.609375 30.941406 231.597656 30.9375 231.59375 30.933594 C 231.566406 30.914062 231.542969 30.898438 231.515625 30.886719 C 231.492188 30.871094 231.46875 30.859375 231.449219 30.84375 C 231.4375 30.835938 231.425781 30.832031 231.414062 30.828125 C 231.410156 30.828125 231.402344 30.820312 231.398438 30.820312 C 231.394531 30.808594 231.382812 30.804688 231.375 30.804688 C 231.316406 30.769531 231.253906 30.742188 231.191406 30.714844 C 231.171875 30.703125 231.148438 30.691406 231.125 30.6875 C 231.105469 30.683594 231.082031 30.671875 231.066406 30.664062 C 231.058594 30.660156 231.054688 30.660156 231.046875 30.652344 C 231.03125 30.648438 231.015625 30.636719 231 30.636719 C 230.984375 30.632812 230.972656 30.628906 230.957031 30.625 C 230.949219 30.621094 230.941406 30.617188 230.929688 30.613281 C 230.929688 30.613281 230.929688 30.609375 230.925781 30.613281 C 230.882812 30.597656 230.835938 30.582031 230.785156 30.570312 L 230.78125 30.570312 C 230.777344 30.570312 230.769531 30.566406 230.765625 30.566406 C 230.753906 30.5625 230.742188 30.5625 230.730469 30.558594 C 230.679688 30.542969 230.625 30.53125 230.570312 30.519531 C 230.5 30.503906 230.425781 30.492188 230.355469 30.488281 C 230.296875 30.484375 230.242188 30.476562 230.1875 30.476562 C 230.148438 30.472656 230.105469 30.472656 230.058594 30.472656 L 230.003906 30.472656 L 229.871094 30.476562 L 229.347656 30.488281 L 144.710938 31.539062 C 144.617188 31.539062 144.515625 31.542969 144.421875 31.554688 C 144.390625 31.554688 144.355469 31.558594 144.328125 31.566406 C 144.289062 31.570312 144.25 31.578125 144.214844 31.582031 C 144.195312 31.585938 144.171875 31.585938 144.148438 31.59375 C 144.128906 31.597656 144.109375 31.601562 144.085938 31.609375 C 144.085938 31.609375 144.082031 31.609375 144.082031 31.609375 C 144.066406 31.613281 144.050781 31.617188 144.039062 31.621094 C 143.996094 31.632812 143.957031 31.644531 143.917969 31.65625 C 143.882812 31.660156 143.855469 31.671875 143.832031 31.683594 C 143.8125 31.6875 143.789062 31.691406 143.773438 31.703125 C 143.765625 31.699219 143.765625 31.703125 143.761719 31.710938 C 143.757812 31.707031 143.753906 31.707031 143.75 31.710938 L 143.746094 31.714844 C 143.699219 31.726562 143.660156 31.742188 143.621094 31.761719 C 143.5625 31.78125 143.5 31.808594 143.445312 31.84375 L 143.410156 31.859375 C 143.34375 31.894531 143.285156 31.925781 143.222656 31.972656 C 143.195312 31.988281 143.167969 32.003906 143.140625 32.027344 C 143.023438 32.105469 142.910156 32.191406 142.804688 32.292969 C 142.777344 32.316406 142.757812 32.335938 142.734375 32.359375 L 142.734375 32.363281 L 142.683594 32.414062 L 113.558594 61.902344 L 113.535156 61.921875 C 113.519531 61.941406 113.507812 61.949219 113.496094 61.96875 C 113.476562 61.984375 113.457031 62 113.445312 62.023438 C 113.402344 62.066406 113.363281 62.117188 113.332031 62.164062 C 113.308594 62.191406 113.285156 62.21875 113.265625 62.246094 C 113.246094 62.269531 113.226562 62.296875 113.207031 62.324219 C 113.203125 62.335938 113.191406 62.34375 113.1875 62.355469 L 113.152344 62.40625 C 113.152344 62.410156 113.148438 62.417969 113.140625 62.421875 C 113.140625 62.425781 113.140625 62.429688 113.136719 62.433594 C 113.136719 62.441406 113.132812 62.445312 113.128906 62.449219 C 113.074219 62.539062 113.023438 62.632812 112.984375 62.726562 C 112.976562 62.746094 112.96875 62.757812 112.964844 62.773438 C 112.945312 62.8125 112.929688 62.851562 112.917969 62.890625 C 112.898438 62.945312 112.875 63.007812 112.859375 63.0625 C 112.84375 63.113281 112.828125 63.164062 112.816406 63.210938 C 112.789062 63.335938 112.765625 63.460938 112.753906 63.582031 C 112.742188 63.65625 112.742188 63.726562 112.742188 63.796875 C 112.734375 63.863281 112.734375 63.929688 112.742188 63.996094 C 112.742188 64.050781 112.746094 64.101562 112.753906 64.15625 C 112.757812 64.238281 112.769531 64.324219 112.785156 64.40625 C 112.792969 64.417969 112.792969 64.421875 112.792969 64.429688 C 112.808594 64.511719 112.832031 64.589844 112.851562 64.667969 C 112.859375 64.695312 112.871094 64.722656 112.878906 64.746094 C 112.886719 64.765625 112.890625 64.785156 112.898438 64.800781 C 112.902344 64.8125 112.902344 64.828125 112.914062 64.839844 C 112.925781 64.878906 112.9375 64.910156 112.953125 64.945312 C 113.019531 65.105469 113.101562 65.261719 113.203125 65.410156 C 113.207031 65.421875 113.214844 65.433594 113.21875 65.4375 C 113.21875 65.4375 113.226562 65.445312 113.230469 65.449219 C 113.28125 65.527344 113.335938 65.601562 113.398438 65.671875 L 113.832031 66.183594 C 116.558594 69.398438 119.285156 72.613281 122.015625 75.824219 C 130.433594 85.738281 139.109375 95.953125 147.613281 106.117188 C 116.730469 116.238281 92.777344 135.195312 78.269531 161.011719 C 65.035156 184.566406 60.308594 212.984375 64.964844 241.035156 C 69.691406 269.511719 83.65625 295.386719 104.289062 313.910156 C 126.453125 333.808594 155.03125 344.265625 187.117188 344.265625 C 188.246094 344.265625 189.378906 344.257812 190.515625 344.226562 C 222.785156 343.496094 251.421875 332.082031 273.320312 311.234375 C 293.128906 292.367188 306.324219 266.605469 310.472656 238.699219 C 314.546875 211.316406 309.539062 183.636719 296.382812 160.765625 Z M 304.976562 237.882812 C 301.011719 264.574219 288.402344 289.195312 269.484375 307.210938 C 248.605469 327.09375 221.257812 337.972656 190.386719 338.675781 C 158.375 339.40625 129.871094 329.414062 108 309.777344 C 88.304688 292.09375 74.96875 267.363281 70.445312 240.125 C 65.996094 213.316406 70.496094 186.1875 83.113281 163.730469 C 97.160156 138.734375 120.589844 120.460938 150.859375 110.902344 C 151.050781 110.839844 151.234375 110.765625 151.398438 110.664062 C 153.449219 113.136719 155.507812 115.632812 157.507812 118.066406 C 158.191406 118.894531 158.867188 119.722656 159.550781 120.550781 C 132.109375 127.84375 110.355469 143.203125 96.578125 165.058594 C 83.976562 185.03125 78.699219 209.59375 81.71875 234.214844 C 84.75 258.9375 95.855469 281.636719 112.996094 298.148438 C 132.09375 316.535156 157.5 326.300781 186.46875 326.371094 C 186.59375 326.378906 186.703125 326.378906 186.828125 326.378906 C 216.183594 326.371094 241.953125 316.679688 261.363281 298.324219 C 278.847656 281.789062 290.175781 259.015625 293.269531 234.195312 C 296.328125 209.707031 291.058594 185.292969 278.449219 165.4375 C 264.585938 143.625 242.648438 128.304688 214.945312 121.078125 C 215.722656 120.132812 216.5 119.183594 217.28125 118.234375 C 219.320312 115.746094 221.425781 113.183594 223.523438 110.664062 C 223.835938 111.011719 224.242188 111.285156 224.71875 111.441406 C 254.472656 121.226562 277.589844 139.238281 291.566406 163.53125 C 304.101562 185.324219 308.867188 211.734375 304.976562 237.882812 Z M 225.332031 36.085938 C 223.964844 38.402344 222.46875 40.722656 221.003906 43 C 218.03125 47.617188 214.957031 52.382812 212.835938 57.261719 C 212.691406 57.601562 212.539062 57.933594 212.394531 58.273438 L 199.40625 36.40625 Z M 209.054688 66.683594 C 203.367188 82.011719 198.359375 100.488281 193.492188 118.472656 C 191.40625 126.179688 189.40625 133.566406 187.433594 140.394531 L 165.023438 66.671875 Z M 162.613281 125.492188 C 162.886719 125.425781 163.140625 125.316406 163.367188 125.175781 C 166.828125 129.371094 170.285156 133.566406 173.746094 137.765625 C 177.3125 142.097656 180.886719 146.429688 184.460938 150.757812 L 185.199219 151.644531 C 185.203125 151.652344 185.210938 151.65625 185.210938 151.664062 C 185.324219 151.816406 185.453125 151.957031 185.597656 152.085938 C 185.621094 152.101562 185.636719 152.117188 185.660156 152.140625 C 185.710938 152.183594 185.765625 152.222656 185.820312 152.269531 C 185.847656 152.289062 185.882812 152.3125 185.914062 152.335938 C 185.949219 152.355469 185.980469 152.378906 186.019531 152.402344 C 186.042969 152.414062 186.066406 152.421875 186.082031 152.433594 C 186.085938 152.433594 186.09375 152.441406 186.097656 152.445312 C 186.214844 152.511719 186.335938 152.566406 186.464844 152.617188 C 186.476562 152.625 186.488281 152.628906 186.503906 152.628906 C 186.527344 152.640625 186.554688 152.652344 186.578125 152.65625 C 186.59375 152.664062 186.605469 152.667969 186.613281 152.667969 C 186.664062 152.683594 186.714844 152.703125 186.765625 152.710938 C 186.789062 152.71875 186.804688 152.722656 186.828125 152.730469 C 186.863281 152.734375 186.898438 152.746094 186.9375 152.75 C 186.953125 152.757812 186.972656 152.757812 186.988281 152.761719 C 186.992188 152.761719 187.003906 152.761719 187.015625 152.769531 L 187.039062 152.769531 C 187.066406 152.773438 187.09375 152.777344 187.125 152.777344 C 187.136719 152.785156 187.144531 152.785156 187.152344 152.785156 C 187.175781 152.785156 187.199219 152.789062 187.222656 152.789062 C 187.292969 152.796875 187.363281 152.800781 187.4375 152.800781 L 187.476562 152.800781 C 187.542969 152.800781 187.617188 152.796875 187.683594 152.789062 C 187.714844 152.789062 187.753906 152.785156 187.789062 152.777344 C 187.816406 152.777344 187.84375 152.773438 187.875 152.769531 L 187.898438 152.769531 C 187.910156 152.761719 187.921875 152.761719 187.925781 152.761719 C 187.941406 152.757812 187.960938 152.757812 187.976562 152.75 C 188.015625 152.746094 188.046875 152.734375 188.085938 152.730469 C 188.109375 152.722656 188.132812 152.71875 188.148438 152.710938 C 188.1875 152.703125 188.226562 152.691406 188.265625 152.679688 C 188.277344 152.671875 188.289062 152.671875 188.296875 152.667969 C 188.308594 152.664062 188.328125 152.664062 188.335938 152.65625 C 188.460938 152.613281 188.582031 152.566406 188.691406 152.511719 C 188.714844 152.5 188.738281 152.488281 188.753906 152.480469 C 188.777344 152.46875 188.796875 152.457031 188.816406 152.445312 C 188.820312 152.441406 188.828125 152.441406 188.832031 152.433594 C 188.855469 152.421875 188.871094 152.414062 188.894531 152.402344 C 188.921875 152.382812 188.941406 152.367188 188.972656 152.351562 C 189.011719 152.328125 189.042969 152.308594 189.082031 152.277344 C 189.085938 152.273438 189.09375 152.269531 189.097656 152.269531 C 189.105469 152.261719 189.117188 152.257812 189.121094 152.246094 C 189.125 152.246094 189.128906 152.242188 189.132812 152.242188 C 189.136719 152.234375 189.144531 152.230469 189.152344 152.222656 L 189.253906 152.140625 C 189.296875 152.105469 189.34375 152.066406 189.382812 152.023438 C 189.414062 151.996094 189.449219 151.960938 189.476562 151.929688 C 189.511719 151.894531 189.539062 151.867188 189.566406 151.835938 C 189.570312 151.828125 189.570312 151.824219 189.578125 151.824219 C 189.582031 151.8125 189.585938 151.808594 189.59375 151.796875 L 189.597656 151.789062 C 189.636719 151.746094 189.664062 151.707031 189.699219 151.664062 L 189.714844 151.644531 L 198.566406 140.925781 C 202.789062 135.8125 207 130.695312 211.230469 125.585938 C 211.539062 125.847656 211.90625 126.035156 212.316406 126.140625 C 271.824219 141.03125 293.085938 190.796875 287.757812 233.511719 C 284.824219 257.054688 274.089844 278.636719 257.539062 294.292969 C 239.1875 311.652344 214.742188 320.824219 186.828125 320.824219 C 186.714844 320.824219 186.597656 320.824219 186.488281 320.816406 C 158.980469 320.746094 134.898438 311.527344 116.851562 294.148438 C 100.628906 278.519531 90.109375 257 87.230469 233.542969 C 81.960938 190.523438 103.222656 140.433594 162.613281 125.492188 Z M 244.945312 76.796875 C 236.863281 86.253906 228.507812 96.035156 220.386719 105.75 C 217.894531 108.726562 215.394531 111.769531 212.984375 114.710938 C 211.40625 116.632812 209.835938 118.550781 208.257812 120.464844 C 203.589844 126.105469 198.933594 131.746094 194.277344 137.394531 L 193.960938 137.777344 C 195.554688 132.105469 197.175781 126.121094 198.855469 119.921875 C 203.898438 101.292969 209.09375 82.121094 215 66.6875 L 253.5625 66.699219 C 250.695312 70.066406 247.820312 73.429688 244.945312 76.796875 Z M 217.222656 61.132812 C 217.457031 60.574219 217.691406 60.023438 217.929688 59.480469 C 219.875 55.007812 222.820312 50.4375 225.667969 46.011719 C 227.378906 43.363281 229.125 40.652344 230.691406 37.914062 L 253.054688 61.144531 Z M 193.292969 36.484375 C 193.332031 36.875 193.449219 37.261719 193.664062 37.617188 L 207.628906 61.128906 L 167.984375 61.117188 L 181.941406 37.617188 C 182.132812 37.300781 182.246094 36.96875 182.296875 36.625 Z M 176.023438 36.703125 L 162.722656 59.097656 L 162.25 57.546875 C 162.183594 57.320312 162.085938 57.097656 161.957031 56.890625 L 149.65625 37.03125 Z M 144.203125 38.773438 L 157.039062 59.507812 L 157.527344 61.113281 L 122.15625 61.101562 Z M 159.21875 66.664062 L 180.757812 137.539062 C 179.851562 136.4375 178.941406 135.339844 178.035156 134.234375 C 174.074219 129.425781 170.109375 124.613281 166.140625 119.8125 C 164.691406 118.054688 163.246094 116.300781 161.800781 114.539062 C 159.414062 111.636719 156.945312 108.632812 154.488281 105.691406 L 154.050781 105.160156 C 144.84375 94.125 135.394531 82.996094 126.253906 72.230469 C 124.675781 70.375 123.097656 68.515625 121.519531 66.65625 Z M 159.21875 66.664062 " fill-opacity="1" fill-rule="nonzero"/></g></svg>