<svg xmlns="http://www.w3.org/2000/svg" xmlns:xlink="http://www.w3.org/1999/xlink" width="500" zoomAndPan="magnify" viewBox="0 0 375 374.999991" height="500" preserveAspectRatio="xMidYMid meet" version="1.0"><defs><clipPath id="0857badd3f"><path d="M 67.964844 31 L 307.214844 31 L 307.214844 343.738281 L 67.964844 343.738281 Z M 67.964844 31 " clip-rule="nonzero"/></clipPath></defs><g clip-path="url(#0857badd3f)"><path fill="#000000" d="M 213.1875 107.621094 C 266.929688 119.3125 307.222656 167.15625 307.222656 224.308594 C 307.222656 290.222656 253.617188 343.734375 187.59375 343.734375 C 121.570312 343.734375 67.96875 290.222656 67.96875 224.308594 C 67.96875 167.15625 108.257812 119.3125 162 107.621094 L 120.304688 60.890625 C 119.023438 59.464844 118.957031 57.324219 120.144531 55.816406 L 138.476562 32.511719 C 139.230469 31.558594 140.378906 31.003906 141.597656 31.003906 L 187.257812 31.003906 C 187.375 31.003906 187.484375 31.003906 187.59375 31.003906 C 187.703125 31.003906 187.816406 31.003906 187.925781 31.003906 L 233.589844 31.003906 C 234.808594 31.003906 235.957031 31.558594 236.710938 32.511719 L 255.042969 55.816406 C 256.234375 57.324219 256.164062 59.464844 254.886719 60.890625 Z M 171.183594 105.996094 C 173.34375 105.679688 175.523438 105.441406 177.71875 105.28125 L 161.832031 62.238281 L 132.121094 62.238281 Z M 186.035156 104.886719 C 186.558594 104.886719 187.074219 104.886719 187.59375 104.886719 C 188.113281 104.886719 188.632812 104.886719 189.152344 104.886719 L 204.894531 62.238281 L 170.296875 62.238281 Z M 197.46875 105.28125 C 199.667969 105.441406 201.839844 105.679688 204 105.996094 C 209.984375 99.296875 233.828125 72.582031 243.066406 62.238281 L 213.355469 62.238281 Z M 243.753906 54.3125 L 231.660156 38.933594 L 207.652344 38.933594 C 210.71875 42.578125 213.683594 47.691406 214.398438 54.3125 Z M 195.71875 38.933594 L 187.925781 38.933594 C 187.816406 38.933594 187.703125 38.933594 187.59375 38.933594 C 187.484375 38.933594 187.375 38.933594 187.257812 38.933594 L 179.464844 38.933594 C 179.386719 38.972656 179.304688 39.050781 179.214844 39.089844 C 179.214844 39.089844 170.339844 44.085938 168.789062 54.3125 L 206.394531 54.3125 C 204.847656 44.085938 195.972656 39.089844 195.972656 39.089844 C 195.886719 39.050781 195.804688 38.972656 195.71875 38.933594 Z M 167.535156 38.933594 L 143.527344 38.933594 L 131.433594 54.3125 L 160.785156 54.3125 C 161.503906 47.691406 164.472656 42.578125 167.535156 38.933594 Z M 187.59375 112.8125 C 125.953125 112.8125 75.910156 162.753906 75.910156 224.308594 C 75.910156 285.824219 125.953125 335.804688 187.59375 335.804688 C 249.234375 335.804688 299.28125 285.824219 299.28125 224.308594 C 299.28125 162.753906 249.234375 112.8125 187.59375 112.8125 Z M 187.59375 131.957031 C 238.648438 131.957031 280.101562 173.335938 280.101562 224.308594 C 280.101562 275.28125 238.648438 316.660156 187.59375 316.660156 C 136.535156 316.660156 95.085938 275.28125 95.085938 224.308594 C 95.085938 173.335938 136.535156 131.957031 187.59375 131.957031 Z M 187.59375 139.882812 C 140.921875 139.882812 103.023438 177.699219 103.023438 224.308594 C 103.023438 270.882812 140.921875 308.734375 187.59375 308.734375 C 234.269531 308.734375 272.160156 270.882812 272.160156 224.308594 C 272.160156 177.699219 234.269531 139.882812 187.59375 139.882812 Z M 187.59375 139.882812 " fill-opacity="1" fill-rule="evenodd"/></g></svg>