<svg xmlns="http://www.w3.org/2000/svg" xmlns:xlink="http://www.w3.org/1999/xlink" width="500" zoomAndPan="magnify" viewBox="0 0 375 374.999991" height="500" preserveAspectRatio="xMidYMid meet" version="1.0"><defs><clipPath id="9fa1e90e8e"><path d="M 21.675781 45 L 277 45 L 277 330 L 21.675781 330 Z M 21.675781 45 " clip-rule="nonzero"/></clipPath><clipPath id="d5e74fcaff"><path d="M 235 56 L 353.175781 56 L 353.175781 95 L 235 95 Z M 235 56 " clip-rule="nonzero"/></clipPath></defs><g clip-path="url(#9fa1e90e8e)"><path fill="#231f20" d="M 107.003906 217.601562 L 147.710938 104.015625 L 189.164062 217.601562 Z M 196.484375 97.261719 C 193.109375 88.367188 190.316406 81.261719 188.136719 75.945312 C 185.945312 70.628906 183.257812 65.652344 180.0625 61.015625 C 176.878906 56.386719 172.679688 52.605469 167.496094 49.664062 C 162.300781 46.71875 155.835938 45.25 148.082031 45.25 C 140.453125 45.25 134.042969 46.71875 128.847656 49.664062 C 123.664062 52.605469 119.476562 56.449219 116.28125 61.207031 C 113.097656 65.96875 110.101562 71.941406 107.277344 79.144531 C 104.464844 86.332031 102.0625 92.496094 100.0625 97.628906 L 29.71875 276.367188 C 26.84375 283.503906 24.777344 289.0625 23.53125 293.078125 C 22.28125 297.078125 21.648438 300.964844 21.648438 304.714844 C 21.648438 311.226562 24.335938 317.050781 29.71875 322.175781 C 35.09375 327.308594 41.28125 329.871094 48.285156 329.871094 C 56.539062 329.871094 62.472656 327.457031 66.113281 322.640625 C 69.730469 317.832031 74.109375 308.535156 79.242188 294.761719 L 92.371094 259.46875 L 204.175781 259.46875 L 217.304688 294.007812 C 219.050781 298.265625 221.144531 303.179688 223.585938 308.746094 C 226.019531 314.328125 228.304688 318.445312 230.433594 321.136719 C 232.558594 323.835938 235.183594 325.964844 238.304688 327.523438 C 241.433594 329.089844 245.179688 329.871094 249.558594 329.871094 C 257.070312 329.871094 263.472656 327.214844 268.792969 321.898438 C 274.105469 316.574219 276.761719 310.726562 276.761719 304.34375 C 276.761719 298.203125 273.945312 288.375 268.316406 274.863281 L 196.484375 97.261719 " fill-opacity="1" fill-rule="nonzero"/></g><g clip-path="url(#d5e74fcaff)"><path fill="#231f20" d="M 334.28125 56.28125 L 253.941406 56.28125 C 243.488281 56.28125 235.011719 64.753906 235.011719 75.226562 C 235.011719 85.675781 243.488281 94.15625 253.941406 94.15625 L 334.28125 94.15625 C 344.734375 94.15625 353.207031 85.675781 353.207031 75.226562 C 353.207031 64.753906 344.734375 56.28125 334.28125 56.28125 " fill-opacity="1" fill-rule="nonzero"/></g></svg>