<svg xmlns="http://www.w3.org/2000/svg" xmlns:xlink="http://www.w3.org/1999/xlink" width="500" zoomAndPan="magnify" viewBox="0 0 375 374.999991" height="500" preserveAspectRatio="xMidYMid meet" version="1.0"><path fill="#171717" d="M 68.648438 227.675781 L 119.113281 214.351562 C 120.554688 213.96875 122.019531 213.792969 123.511719 213.824219 C 125 213.855469 126.457031 214.085938 127.882812 214.523438 C 129.308594 214.960938 130.644531 215.585938 131.894531 216.394531 C 133.144531 217.207031 134.257812 218.171875 135.238281 219.292969 L 155.746094 242.785156 C 156.414062 243.5625 157.199219 244.191406 158.101562 244.679688 C 159.007812 245.164062 159.964844 245.472656 160.984375 245.601562 C 177.820312 247.644531 194.511719 238.414062 206.863281 228.851562 L 226.671875 210.0625 L 226.742188 210.144531 C 237.632812 198.949219 248.671875 183.410156 248.53125 166.464844 C 248.515625 165.441406 248.316406 164.453125 247.933594 163.503906 C 247.554688 162.550781 247.015625 161.699219 246.320312 160.949219 L 225.257812 137.949219 C 224.25 136.851562 223.414062 135.636719 222.75 134.304688 C 222.082031 132.972656 221.613281 131.574219 221.335938 130.109375 C 221.0625 128.644531 220.996094 127.171875 221.132812 125.691406 C 221.269531 124.207031 221.609375 122.773438 222.148438 121.382812 L 241.050781 72.757812 C 241.609375 71.324219 242.253906 69.933594 242.988281 68.582031 C 243.71875 67.230469 244.535156 65.929688 245.433594 64.679688 C 246.332031 63.429688 247.304688 62.242188 248.351562 61.117188 C 249.398438 59.992188 250.515625 58.9375 251.695312 57.953125 C 252.878906 56.96875 254.117188 56.0625 255.414062 55.234375 C 256.710938 54.40625 258.054688 53.660156 259.445312 53.003906 C 260.832031 52.34375 262.261719 51.777344 263.722656 51.296875 C 265.183594 50.820312 266.671875 50.433594 268.183594 50.144531 C 269.902344 49.8125 271.636719 49.609375 273.390625 49.527344 C 275.140625 49.445312 276.886719 49.492188 278.628906 49.660156 C 280.375 49.832031 282.097656 50.125 283.796875 50.542969 C 285.5 50.964844 287.160156 51.5 288.785156 52.160156 C 290.410156 52.816406 291.976562 53.585938 293.492188 54.472656 C 295.003906 55.355469 296.445312 56.339844 297.816406 57.433594 C 299.1875 58.523438 300.472656 59.707031 301.671875 60.984375 C 302.871094 62.257812 303.976562 63.613281 304.980469 65.046875 L 321.03125 87.964844 C 322.457031 90.003906 323.765625 92.117188 324.945312 94.304688 C 326.128906 96.492188 327.183594 98.742188 328.109375 101.050781 C 329.03125 103.359375 329.820312 105.714844 330.472656 108.117188 C 331.125 110.515625 331.636719 112.945312 332.007812 115.40625 C 332.378906 117.863281 332.609375 120.335938 332.695312 122.824219 C 332.78125 125.308594 332.726562 127.792969 332.523438 130.269531 C 332.324219 132.75 331.984375 135.210938 331.5 137.648438 C 331.015625 140.089844 330.390625 142.492188 329.628906 144.863281 C 320.152344 174.34375 300.539062 218.277344 261.679688 253.988281 C 218.789062 299.191406 164.636719 316.855469 130.324219 323.742188 C 127.890625 324.230469 125.433594 324.574219 122.957031 324.78125 C 120.480469 324.984375 118 325.046875 115.515625 324.964844 C 113.03125 324.882812 110.558594 324.660156 108.101562 324.296875 C 105.644531 323.929688 103.214844 323.425781 100.816406 322.777344 C 98.414062 322.132812 96.058594 321.351562 93.75 320.433594 C 91.441406 319.519531 89.191406 318.472656 87.003906 317.296875 C 84.8125 316.121094 82.699219 314.820312 80.660156 313.402344 C 78.621094 311.984375 76.667969 310.449219 74.808594 308.804688 L 53.816406 290.296875 C 52.503906 289.140625 51.28125 287.890625 50.144531 286.558594 C 49.011719 285.222656 47.980469 283.8125 47.046875 282.332031 C 46.117188 280.847656 45.296875 279.304688 44.589844 277.703125 C 43.878906 276.101562 43.289062 274.457031 42.816406 272.773438 C 42.34375 271.085938 41.996094 269.375 41.769531 267.636719 C 41.546875 265.902344 41.445312 264.15625 41.472656 262.40625 C 41.496094 260.65625 41.648438 258.914062 41.925781 257.1875 C 42.203125 255.457031 42.601562 253.757812 43.121094 252.085938 C 43.582031 250.617188 44.128906 249.183594 44.769531 247.785156 C 45.40625 246.386719 46.132812 245.035156 46.945312 243.726562 C 47.753906 242.421875 48.644531 241.167969 49.613281 239.972656 C 50.582031 238.78125 51.621094 237.652344 52.734375 236.589844 C 53.84375 235.523438 55.019531 234.535156 56.257812 233.621094 C 57.492188 232.707031 58.78125 231.875 60.125 231.121094 C 61.46875 230.371094 62.851562 229.707031 64.277344 229.128906 C 65.703125 228.550781 67.160156 228.066406 68.648438 227.675781 Z M 68.648438 227.675781 " fill-opacity="1" fill-rule="nonzero"/></svg>