<svg xmlns="http://www.w3.org/2000/svg" xmlns:xlink="http://www.w3.org/1999/xlink" width="500" zoomAndPan="magnify" viewBox="0 0 375 374.999991" height="500" preserveAspectRatio="xMidYMid meet" version="1.0"><defs><clipPath id="94715e6030"><path d="M 36.40625 36.40625 L 338.585938 36.40625 L 338.585938 338.65625 L 36.40625 338.65625 Z M 36.40625 36.40625 " clip-rule="nonzero"/></clipPath></defs><g clip-path="url(#94715e6030)"><path fill="#282828" d="M 187.390625 36.429688 C 270.730469 36.429688 338.527344 104.234375 338.527344 187.574219 C 338.527344 270.910156 270.730469 338.710938 187.390625 338.710938 C 104.054688 338.710938 36.25 270.910156 36.25 187.574219 C 36.25 104.234375 104.054688 36.429688 187.390625 36.429688 Z M 187.390625 46.523438 C 109.488281 46.523438 46.339844 109.671875 46.339844 187.574219 C 46.339844 265.472656 109.488281 328.621094 187.390625 328.621094 C 265.292969 328.621094 328.441406 265.472656 328.441406 187.574219 C 328.441406 109.671875 265.292969 46.523438 187.390625 46.523438 " fill-opacity="1" fill-rule="nonzero"/></g><path fill="#282828" d="M 104.171875 267.023438 C 93.273438 255.871094 105.773438 245.167969 115.292969 235.308594 C 123.417969 226.878906 136.785156 212.734375 149.769531 214.273438 C 156.976562 215.121094 162.605469 222.429688 169.75 224.691406 C 178.863281 227.578125 187.683594 225.507812 195.019531 219.464844 C 199.933594 215.414062 205.136719 210.515625 209.929688 205.339844 C 214.84375 200.273438 219.453125 194.820312 223.234375 189.691406 C 228.878906 182.042969 230.472656 173.132812 227.105469 164.183594 C 224.464844 157.167969 216.867188 151.9375 215.628906 144.785156 C 213.402344 131.902344 226.8125 117.796875 234.789062 109.234375 C 244.132812 99.203125 254.144531 86.148438 265.871094 96.433594 C 266.046875 96.589844 272.324219 102.558594 272.503906 102.722656 C 284.332031 113.777344 287.535156 131.964844 284.789062 147.351562 C 283.785156 152.96875 282.214844 158.472656 280.222656 163.820312 C 271.242188 187.9375 254.316406 211.273438 236.222656 230.261719 C 218.234375 249.34375 195.835938 267.492188 172.230469 277.75 C 167 280.027344 161.589844 281.894531 156.03125 283.195312 C 140.8125 286.757812 122.480469 284.53125 110.808594 273.308594 C 110.636719 273.144531 104.339844 267.191406 104.171875 267.023438 " fill-opacity="1" fill-rule="nonzero"/><path fill="#282828" d="M 131.96875 192.53125 C 134.617188 192.53125 136.84375 190.464844 136.996094 187.785156 C 137.667969 176.539062 142.292969 165.851562 150.027344 157.6875 C 157.761719 149.527344 168.191406 144.332031 179.386719 143.066406 C 182.152344 142.753906 184.144531 140.253906 183.832031 137.480469 C 183.519531 134.71875 181.03125 132.738281 178.246094 133.039062 C 164.699219 134.574219 152.078125 140.867188 142.707031 150.746094 C 133.339844 160.632812 127.738281 173.570312 126.929688 187.183594 C 126.761719 189.964844 128.882812 192.359375 131.664062 192.519531 C 131.765625 192.527344 131.867188 192.53125 131.96875 192.53125 " fill-opacity="1" fill-rule="nonzero"/><path fill="#282828" d="M 100.210938 197.332031 C 102.859375 197.332031 105.082031 195.269531 105.238281 192.589844 C 106.457031 172.09375 114.890625 152.621094 128.984375 137.742188 C 143.085938 122.867188 162.085938 113.402344 182.480469 111.097656 C 185.25 110.785156 187.238281 108.285156 186.925781 105.515625 C 186.613281 102.75 184.105469 100.746094 181.34375 101.070312 C 158.589844 103.644531 137.398438 114.207031 121.667969 130.804688 C 105.933594 147.402344 96.523438 169.132812 95.171875 191.988281 C 95.003906 194.769531 97.125 197.160156 99.90625 197.320312 C 100.007812 197.332031 100.109375 197.332031 100.210938 197.332031 " fill-opacity="1" fill-rule="nonzero"/></svg>