<svg xmlns="http://www.w3.org/2000/svg" xmlns:xlink="http://www.w3.org/1999/xlink" width="500" zoomAndPan="magnify" viewBox="0 0 375 374.999991" height="500" preserveAspectRatio="xMidYMid meet" version="1.0"><defs><clipPath id="21d1f149be"><path d="M 67.472656 67.472656 L 307.472656 67.472656 L 307.472656 307.472656 L 67.472656 307.472656 Z M 67.472656 67.472656 " clip-rule="nonzero"/></clipPath></defs><g clip-path="url(#21d1f149be)"><path fill="#252627" d="M 304.550781 243.691406 C 306.304688 248.375 307.324219 253.402344 307.480469 258.664062 C 307.519531 259.167969 307.519531 259.667969 307.519531 260.1875 C 307.519531 286.320312 286.320312 307.519531 260.1875 307.519531 C 153.75 307.519531 67.472656 221.238281 67.472656 114.804688 C 67.472656 88.671875 88.671875 67.472656 114.804688 67.472656 C 115.324219 67.472656 115.824219 67.472656 116.324219 67.511719 C 121.585938 67.664062 126.636719 68.6875 131.320312 70.441406 L 149.085938 147.371094 C 149.085938 147.410156 149.066406 147.429688 149.03125 147.449219 L 116.441406 162.09375 L 116.34375 162.132812 C 131.300781 207.671875 167.316406 243.691406 212.855469 258.648438 L 212.894531 258.550781 L 227.5625 225.941406 L 304.550781 243.691406 " fill-opacity="1" fill-rule="nonzero"/></g></svg>