<svg xmlns="http://www.w3.org/2000/svg" xmlns:xlink="http://www.w3.org/1999/xlink" width="500" zoomAndPan="magnify" viewBox="0 0 375 374.999991" height="500" preserveAspectRatio="xMidYMid meet" version="1.0"><defs><clipPath id="f2628ab4c5"><path d="M 30.0625 30.0625 L 345.0625 30.0625 L 345.0625 345.0625 L 30.0625 345.0625 Z M 30.0625 30.0625 " clip-rule="nonzero"/></clipPath><clipPath id="797f35690b"><path d="M 117 118 L 201 118 L 201 196 L 117 196 Z M 117 118 " clip-rule="nonzero"/></clipPath><clipPath id="1171116b20"><path d="M 103.195312 139.070312 L 197.660156 112.066406 L 214.152344 169.753906 L 119.6875 196.757812 Z M 103.195312 139.070312 " clip-rule="nonzero"/></clipPath><clipPath id="82b2a882c5"><path d="M 103.195312 139.070312 L 197.660156 112.066406 L 214.152344 169.753906 L 119.6875 196.757812 Z M 103.195312 139.070312 " clip-rule="nonzero"/></clipPath><clipPath id="f4a16aaf39"><path d="M 92 91 L 200 91 L 200 192 L 92 192 Z M 92 91 " clip-rule="nonzero"/></clipPath><clipPath id="c55e546bcf"><path d="M 74.289062 118.824219 L 196.878906 83.78125 L 218.316406 158.777344 L 95.730469 193.820312 Z M 74.289062 118.824219 " clip-rule="nonzero"/></clipPath><clipPath id="de5ee5ce7a"><path d="M 74.289062 118.824219 L 196.878906 83.78125 L 218.316406 158.777344 L 95.730469 193.820312 Z M 74.289062 118.824219 " clip-rule="nonzero"/></clipPath></defs><g clip-path="url(#f2628ab4c5)"><path fill="#000000" d="M 187.515625 30.023438 C 100.679688 30.023438 30.023438 100.679688 30.023438 187.515625 C 30.023438 274.351562 100.679688 345.003906 187.515625 345.003906 C 274.351562 345.003906 345.003906 274.351562 345.003906 187.515625 C 345.003906 100.679688 274.351562 30.023438 187.515625 30.023438 Z M 187.515625 325.320312 C 111.527344 325.320312 49.710938 263.484375 49.710938 187.515625 C 49.710938 111.546875 111.527344 49.710938 187.515625 49.710938 C 263.503906 49.710938 325.320312 111.546875 325.320312 187.515625 C 325.320312 263.484375 263.503906 325.320312 187.515625 325.320312 Z M 187.515625 325.320312 " fill-opacity="1" fill-rule="nonzero"/></g><path fill="#171717" d="M 121.3125 211.894531 L 151.898438 203.808594 C 152.769531 203.578125 153.65625 203.46875 154.5625 203.488281 C 155.464844 203.503906 156.347656 203.648438 157.210938 203.914062 C 158.074219 204.175781 158.882812 204.554688 159.640625 205.046875 C 160.398438 205.539062 161.074219 206.125 161.667969 206.808594 L 174.097656 221.066406 C 174.9375 222.042969 175.996094 222.613281 177.269531 222.773438 C 187.476562 224.015625 197.59375 218.414062 205.078125 212.609375 L 217.082031 201.207031 L 217.125 201.253906 C 223.726562 194.460938 230.417969 185.027344 230.332031 174.742188 C 230.3125 173.453125 229.863281 172.339844 228.992188 171.394531 L 216.226562 157.433594 C 215.613281 156.769531 215.109375 156.03125 214.703125 155.222656 C 214.300781 154.414062 214.015625 153.5625 213.851562 152.675781 C 213.683594 151.789062 213.640625 150.894531 213.726562 149.992188 C 213.808594 149.09375 214.015625 148.222656 214.339844 147.378906 L 225.796875 117.867188 C 226.476562 116.117188 227.359375 114.484375 228.453125 112.960938 C 229.546875 111.441406 230.8125 110.078125 232.25 108.878906 C 233.6875 107.679688 235.253906 106.679688 236.945312 105.875 C 238.636719 105.074219 240.402344 104.496094 242.242188 104.140625 C 243.285156 103.941406 244.335938 103.816406 245.394531 103.765625 C 246.457031 103.714844 247.515625 103.742188 248.574219 103.847656 C 249.628906 103.949219 250.671875 104.128906 251.703125 104.382812 C 252.734375 104.636719 253.742188 104.964844 254.726562 105.363281 C 255.710938 105.761719 256.664062 106.230469 257.578125 106.765625 C 258.496094 107.300781 259.371094 107.902344 260.199219 108.5625 C 261.03125 109.226562 261.808594 109.945312 262.539062 110.71875 C 263.265625 111.492188 263.933594 112.316406 264.542969 113.1875 L 274.269531 127.097656 C 276.007812 129.578125 277.4375 132.226562 278.558594 135.039062 C 279.683594 137.851562 280.472656 140.757812 280.921875 143.75 C 281.375 146.746094 281.480469 149.753906 281.234375 152.773438 C 280.992188 155.792969 280.40625 158.746094 279.480469 161.628906 C 273.738281 179.523438 261.851562 206.191406 238.300781 227.867188 C 212.304688 255.300781 179.488281 266.023438 158.691406 270.203125 C 155.726562 270.796875 152.734375 271.046875 149.714844 270.945312 C 146.695312 270.847656 143.722656 270.40625 140.804688 269.617188 C 137.886719 268.832031 135.097656 267.722656 132.433594 266.289062 C 129.773438 264.859375 127.308594 263.140625 125.042969 261.136719 L 112.324219 249.902344 C 111.527344 249.199219 110.785156 248.445312 110.097656 247.632812 C 109.410156 246.824219 108.785156 245.96875 108.21875 245.066406 C 107.65625 244.167969 107.160156 243.230469 106.730469 242.257812 C 106.300781 241.289062 105.941406 240.289062 105.65625 239.265625 C 105.371094 238.242188 105.160156 237.203125 105.023438 236.148438 C 104.886719 235.097656 104.824219 234.039062 104.839844 232.976562 C 104.855469 231.914062 104.949219 230.855469 105.117188 229.808594 C 105.28125 228.757812 105.523438 227.726562 105.839844 226.710938 C 106.398438 224.921875 107.171875 223.230469 108.15625 221.636719 C 109.144531 220.042969 110.3125 218.601562 111.664062 217.304688 C 113.019531 216.007812 114.511719 214.902344 116.144531 213.988281 C 117.777344 213.070312 119.5 212.371094 121.3125 211.894531 Z M 121.3125 211.894531 " fill-opacity="1" fill-rule="nonzero"/><g clip-path="url(#797f35690b)"><g clip-path="url(#1171116b20)"><g clip-path="url(#82b2a882c5)"><path fill="#282828" d="M 131.699219 166.992188 C 131.902344 166.285156 132.160156 165.480469 132.363281 164.769531 C 132.695312 163.945312 133.101562 163.097656 133.433594 162.269531 L 133.5625 162.152344 C 134.023438 161.207031 134.464844 160.1875 135.03125 159.050781 C 135.496094 158.109375 136.0625 156.96875 136.675781 155.984375 C 137.210938 155.019531 137.84375 154.105469 138.421875 153.289062 L 139.109375 152.28125 C 139.398438 151.875 139.742188 151.371094 140.183594 150.917969 C 140.546875 150.488281 141.039062 149.941406 141.535156 149.394531 C 141.792969 149.160156 141.972656 148.945312 142.230469 148.707031 C 142.488281 148.472656 142.746094 148.234375 142.980469 147.925781 C 143.476562 147.378906 143.992188 146.90625 144.429688 146.453125 C 145.480469 145.585938 146.609375 144.695312 147.679688 143.902344 C 148.496094 143.34375 149.3125 142.785156 150.074219 142.324219 C 150.632812 142 151.113281 141.699219 151.648438 141.304688 C 151.929688 141.144531 152.132812 141.003906 152.390625 140.765625 C 152.796875 140.488281 153.207031 140.210938 153.613281 139.929688 C 154.171875 139.609375 154.730469 139.285156 155.210938 138.984375 L 155.621094 138.707031 L 156.027344 138.425781 C 156.585938 138.105469 157.144531 137.785156 157.777344 137.441406 C 158.257812 137.140625 158.839844 136.894531 159.34375 136.667969 L 159.417969 136.644531 C 160.070312 136.378906 160.855469 135.992188 161.585938 135.703125 C 161.886719 135.617188 162.238281 135.433594 162.539062 135.347656 C 162.914062 135.238281 163.34375 135.035156 163.71875 134.929688 C 165.105469 134.371094 166.660156 133.84375 168.460938 133.328125 L 168.761719 133.242188 C 170.113281 132.855469 171.539062 132.449219 173.066406 132.09375 C 173.515625 131.964844 173.988281 131.914062 174.4375 131.785156 C 174.738281 131.699219 174.984375 131.707031 175.285156 131.621094 L 175.585938 131.535156 C 176.113281 131.386719 176.582031 131.332031 177.109375 131.183594 C 177.582031 131.128906 178.128906 131.054688 178.601562 131 C 178.921875 130.988281 179.296875 130.882812 179.621094 130.871094 C 180.015625 130.839844 180.390625 130.730469 180.714844 130.722656 C 181.1875 130.667969 181.636719 130.539062 182.109375 130.484375 C 182.804688 130.367188 183.523438 130.324219 184.242188 130.28125 L 184.886719 130.257812 L 185.285156 130.226562 C 186.078125 130.164062 186.949219 130.078125 187.839844 130.066406 C 188.632812 130 189.449219 130.011719 190.414062 129.980469 C 191.058594 129.957031 191.648438 130.03125 192.214844 130.03125 C 192.460938 130.042969 192.710938 130.054688 192.957031 130.066406 C 193.792969 130.148438 194.683594 130.140625 195.5 130.148438 C 195.992188 130.171875 196.539062 130.097656 197.035156 130.117188 L 197.355469 130.105469 C 197.527344 130.140625 197.675781 130.097656 197.828125 130.054688 C 198.652344 129.816406 199.308594 128.980469 199.394531 128.144531 C 199.5 127.949219 199.585938 127.683594 199.597656 127.433594 C 199.683594 126.597656 199.746094 125.6875 199.789062 124.699219 C 199.832031 124.28125 199.875 123.863281 199.863281 123.539062 L 199.929688 123.195312 C 199.992188 122.855469 199.984375 122.53125 199.972656 122.210938 C 199.960938 121.886719 200.027344 121.542969 200.070312 121.125 C 200.175781 120.363281 199.714844 119.601562 198.941406 119.171875 L 198.628906 118.9375 C 198.320312 118.703125 197.976562 118.636719 197.558594 118.59375 L 197.289062 118.507812 C 196.871094 118.464844 196.429688 118.347656 196.011719 118.304688 C 195.59375 118.261719 195.101562 118.242188 194.757812 118.175781 C 194.433594 118.1875 194.015625 118.144531 193.671875 118.078125 L 193.179688 118.058594 C 192.761719 118.015625 192.363281 118.046875 192.042969 118.058594 C 191.871094 118.027344 191.71875 118.070312 191.550781 118.039062 C 190.980469 118.039062 190.410156 118.039062 189.84375 118.039062 C 189.101562 118.003906 188.289062 117.996094 187.570312 118.039062 C 186.925781 118.058594 186.28125 118.082031 185.636719 118.101562 C 184.84375 118.167969 184.027344 118.15625 183.210938 118.144531 C 181.65625 118.101562 180.113281 118.382812 178.621094 118.566406 L 178.148438 118.617188 C 177.75 118.652344 177.300781 118.78125 176.902344 118.8125 C 175.882812 118.941406 174.789062 119.089844 173.71875 119.316406 L 173.492188 119.382812 C 172.269531 119.648438 170.949219 119.863281 169.746094 120.207031 C 169.371094 120.316406 168.921875 120.445312 168.546875 120.550781 C 167.792969 120.765625 166.96875 121.003906 166.195312 121.140625 L 165.746094 121.269531 C 165.296875 121.398438 164.824219 121.453125 164.371094 121.582031 C 164.296875 121.601562 164.296875 121.601562 164.222656 121.625 C 163.621094 121.796875 162.945312 121.988281 162.214844 122.28125 C 160.960938 122.71875 159.800781 123.214844 158.546875 123.652344 L 158.042969 123.878906 C 157.085938 124.234375 156.28125 124.542969 155.5 124.929688 C 154.941406 125.253906 154.363281 125.5 153.730469 125.84375 L 153.34375 126.195312 C 152.988281 126.378906 152.710938 126.539062 152.355469 126.722656 C 151.21875 127.292969 150.027344 127.957031 148.914062 128.601562 C 147.742188 129.339844 146.574219 130.082031 145.40625 130.820312 C 145.199219 130.960938 145.070312 131.078125 144.867188 131.21875 C 142.144531 133.054688 140.074219 134.621094 138.269531 136.273438 C 137.089844 137.261719 136.082031 138.28125 135.148438 139.277344 C 134.890625 139.515625 134.65625 139.824219 134.398438 140.0625 C 134.140625 140.296875 133.957031 140.511719 133.699219 140.75 C 133.207031 141.296875 132.789062 141.820312 132.347656 142.273438 L 132.167969 142.488281 L 132.347656 142.273438 C 131.671875 143.035156 131.09375 143.847656 130.492188 144.589844 C 130.203125 144.996094 129.914062 145.40625 129.601562 145.738281 C 128.710938 146.886719 127.84375 148.109375 126.941406 149.503906 C 126.148438 150.707031 125.472656 152.035156 124.6875 153.558594 C 124.152344 154.527344 123.550781 155.835938 122.875 157.164062 C 122.363281 158.207031 121.890625 159.398438 121.332031 160.855469 C 121 161.683594 120.742188 162.488281 120.484375 163.292969 L 120.34375 164.226562 L 120.257812 164.492188 C 120.066406 164.957031 119.96875 165.46875 119.777344 165.929688 C 119.605469 166.46875 119.53125 167.058594 119.359375 167.59375 L 119.347656 167.839844 L 119.230469 168.28125 C 119.082031 168.894531 118.953125 169.578125 118.824219 170.265625 C 118.769531 170.363281 118.789062 170.4375 118.757812 170.609375 C 118.695312 170.953125 118.609375 171.222656 118.617188 171.542969 L 118.640625 171.617188 C 118.597656 172.035156 118.480469 172.476562 118.363281 172.917969 C 118.148438 173.871094 117.988281 174.730469 117.867188 175.738281 C 117.816406 176.402344 117.835938 177.046875 117.761719 177.636719 C 117.761719 178.207031 117.742188 178.699219 117.664062 179.289062 C 117.578125 180.125 117.664062 180.996094 117.65625 181.8125 L 117.664062 182.132812 C 117.699219 182.53125 117.632812 182.875 117.664062 183.269531 C 117.632812 184.011719 117.699219 184.804688 117.761719 185.597656 C 117.828125 185.824219 117.792969 185.996094 117.859375 186.222656 C 117.902344 186.371094 117.871094 186.542969 117.914062 186.691406 L 117.882812 186.863281 C 117.871094 187.109375 117.933594 187.335938 117.902344 187.507812 C 117.957031 188.550781 118.105469 189.644531 118.257812 190.738281 C 118.3125 191.210938 118.4375 191.660156 118.566406 192.109375 C 118.609375 192.261719 118.652344 192.410156 118.695312 192.5625 L 118.738281 192.710938 C 118.761719 192.785156 118.78125 192.863281 118.824219 193.011719 C 118.953125 193.460938 119.136719 193.816406 119.417969 194.222656 C 119.554688 194.429688 119.769531 194.609375 120.039062 194.695312 C 120.136719 194.75 120.15625 194.824219 120.230469 194.804688 C 120.425781 194.910156 120.597656 194.941406 120.789062 195.050781 C 121.15625 195.191406 121.476562 195.179688 121.851562 195.070312 C 122.003906 195.027344 122.171875 195.0625 122.34375 195.09375 C 122.59375 195.105469 122.765625 195.136719 122.988281 195.070312 C 123.460938 195.019531 123.953125 195.039062 124.425781 194.984375 L 124.75 194.976562 C 124.996094 194.984375 125.316406 194.976562 125.542969 194.910156 C 125.691406 194.867188 125.789062 194.921875 125.941406 194.878906 L 126.238281 194.792969 L 126.390625 194.75 C 126.464844 194.726562 126.636719 194.761719 126.710938 194.738281 C 127.109375 194.707031 127.453125 194.769531 127.828125 194.664062 C 128.429688 194.492188 128.910156 194.191406 129.179688 193.707031 C 129.394531 193.320312 129.535156 192.957031 129.480469 192.484375 C 129.511719 192.3125 129.542969 192.140625 129.5 191.992188 C 129.425781 191.445312 129.371094 190.972656 129.296875 190.425781 C 129.234375 190.199219 129.242188 189.953125 129.15625 189.652344 C 129.09375 188.859375 129.027344 188.066406 128.996094 187.097656 C 129.007812 186.285156 128.921875 185.414062 128.898438 184.203125 C 128.867188 183.238281 128.910156 182.25 128.972656 181.335938 C 128.984375 181.089844 129.015625 180.917969 129.027344 180.671875 L 129.144531 179.664062 C 129.261719 178.65625 129.382812 177.648438 129.476562 176.5625 C 129.53125 175.898438 129.660156 175.210938 129.789062 174.523438 C 129.917969 173.835938 130.121094 173.128906 130.25 172.441406 L 130.335938 172.175781 C 130.636719 170.953125 130.96875 169.554688 131.34375 168.3125 C 131.429688 168.042969 131.527344 167.527344 131.699219 166.992188 Z M 131.699219 166.992188 " fill-opacity="1" fill-rule="nonzero"/></g></g></g><g clip-path="url(#f4a16aaf39)"><g clip-path="url(#c55e546bcf)"><g clip-path="url(#de5ee5ce7a)"><path fill="#282828" d="M 111.117188 154.910156 C 111.382812 153.992188 111.714844 152.953125 111.976562 152.039062 C 112.40625 150.972656 112.933594 149.875 113.363281 148.808594 L 113.53125 148.65625 C 114.125 147.433594 114.695312 146.117188 115.429688 144.648438 C 116.023438 143.429688 116.757812 141.957031 117.550781 140.683594 C 118.242188 139.433594 119.0625 138.257812 119.808594 137.203125 L 120.695312 135.898438 C 121.070312 135.371094 121.515625 134.71875 122.082031 134.136719 C 122.554688 133.582031 123.191406 132.875 123.828125 132.167969 C 124.160156 131.863281 124.398438 131.585938 124.730469 131.28125 C 125.0625 130.976562 125.394531 130.671875 125.699219 130.269531 C 126.339844 129.5625 127.003906 128.953125 127.574219 128.367188 C 128.929688 127.246094 130.386719 126.09375 131.773438 125.070312 C 132.828125 124.347656 133.878906 123.625 134.863281 123.03125 C 135.585938 122.613281 136.210938 122.226562 136.902344 121.710938 C 137.261719 121.503906 137.527344 121.324219 137.859375 121.019531 C 138.386719 120.660156 138.914062 120.296875 139.441406 119.9375 C 140.160156 119.523438 140.882812 119.105469 141.503906 118.71875 L 142.03125 118.355469 L 142.558594 117.996094 C 143.28125 117.578125 144 117.164062 144.820312 116.71875 C 145.441406 116.332031 146.191406 116.011719 146.84375 115.722656 L 146.941406 115.695312 C 147.785156 115.347656 148.796875 114.847656 149.742188 114.472656 C 150.128906 114.363281 150.585938 114.125 150.976562 114.015625 C 151.460938 113.875 152.015625 113.613281 152.5 113.476562 C 154.289062 112.753906 156.296875 112.074219 158.628906 111.40625 L 159.015625 111.296875 C 160.761719 110.796875 162.605469 110.269531 164.574219 109.8125 C 165.15625 109.644531 165.769531 109.578125 166.351562 109.410156 C 166.738281 109.300781 167.058594 109.3125 167.445312 109.203125 L 167.835938 109.089844 C 168.511719 108.898438 169.125 108.828125 169.804688 108.632812 C 170.414062 108.5625 171.121094 108.46875 171.730469 108.398438 C 172.144531 108.382812 172.632812 108.246094 173.046875 108.230469 C 173.558594 108.1875 174.046875 108.050781 174.460938 108.035156 C 175.070312 107.96875 175.652344 107.800781 176.265625 107.730469 C 177.164062 107.578125 178.09375 107.523438 179.023438 107.46875 L 179.855469 107.441406 L 180.367188 107.398438 C 181.394531 107.316406 182.515625 107.203125 183.667969 107.191406 C 184.695312 107.105469 185.746094 107.121094 186.996094 107.078125 C 187.828125 107.050781 188.589844 107.148438 189.324219 107.148438 C 189.644531 107.160156 189.960938 107.175781 190.28125 107.1875 C 191.363281 107.300781 192.511719 107.285156 193.566406 107.300781 C 194.207031 107.328125 194.914062 107.230469 195.550781 107.257812 L 195.964844 107.242188 C 196.1875 107.285156 196.382812 107.230469 196.574219 107.175781 C 197.644531 106.867188 198.488281 105.789062 198.601562 104.707031 C 198.738281 104.457031 198.847656 104.109375 198.863281 103.789062 C 198.972656 102.710938 199.058594 101.53125 199.113281 100.253906 C 199.167969 99.714844 199.222656 99.171875 199.210938 98.757812 L 199.292969 98.3125 C 199.375 97.871094 199.363281 97.453125 199.347656 97.039062 C 199.332031 96.621094 199.417969 96.179688 199.472656 95.636719 C 199.609375 94.652344 199.015625 93.667969 198.015625 93.113281 L 197.613281 92.808594 C 197.210938 92.503906 196.769531 92.421875 196.226562 92.367188 L 195.878906 92.253906 C 195.339844 92.199219 194.773438 92.046875 194.230469 91.992188 C 193.691406 91.9375 193.050781 91.910156 192.609375 91.824219 C 192.191406 91.839844 191.652344 91.785156 191.207031 91.703125 L 190.570312 91.671875 C 190.03125 91.617188 189.515625 91.660156 189.101562 91.671875 C 188.878906 91.632812 188.683594 91.6875 188.460938 91.644531 C 187.726562 91.644531 186.992188 91.644531 186.257812 91.644531 C 185.300781 91.605469 184.246094 91.589844 183.320312 91.648438 C 182.488281 91.675781 181.65625 91.703125 180.824219 91.730469 C 179.796875 91.8125 178.742188 91.800781 177.691406 91.785156 C 175.679688 91.730469 173.683594 92.09375 171.753906 92.328125 L 171.144531 92.398438 C 170.632812 92.4375 170.050781 92.605469 169.539062 92.648438 C 168.21875 92.8125 166.804688 93.007812 165.417969 93.300781 L 165.128906 93.382812 C 163.546875 93.730469 161.84375 94.007812 160.289062 94.449219 C 159.804688 94.589844 159.222656 94.757812 158.738281 94.894531 C 157.765625 95.171875 156.699219 95.476562 155.699219 95.65625 L 155.117188 95.824219 C 154.535156 95.992188 153.925781 96.058594 153.34375 96.226562 C 153.246094 96.253906 153.246094 96.253906 153.148438 96.28125 C 152.371094 96.503906 151.5 96.753906 150.554688 97.128906 C 148.933594 97.695312 147.4375 98.335938 145.816406 98.902344 L 145.164062 99.195312 C 143.929688 99.652344 142.890625 100.054688 141.878906 100.554688 C 141.15625 100.96875 140.40625 101.289062 139.589844 101.734375 L 139.089844 102.191406 C 138.632812 102.425781 138.273438 102.632812 137.816406 102.871094 C 136.34375 103.605469 134.808594 104.464844 133.363281 105.296875 C 131.855469 106.253906 130.34375 107.210938 128.832031 108.167969 C 128.566406 108.347656 128.402344 108.5 128.136719 108.679688 C 124.617188 111.050781 121.941406 113.078125 119.613281 115.210938 C 118.085938 116.488281 116.785156 117.804688 115.578125 119.09375 C 115.246094 119.398438 114.941406 119.800781 114.609375 120.105469 C 114.273438 120.414062 114.039062 120.691406 113.707031 120.996094 C 113.070312 121.703125 112.527344 122.382812 111.960938 122.964844 L 111.722656 123.242188 L 111.960938 122.964844 C 111.085938 123.949219 110.335938 125.003906 109.5625 125.960938 C 109.1875 126.484375 108.8125 127.011719 108.410156 127.441406 C 107.261719 128.925781 106.136719 130.507812 104.972656 132.308594 C 103.945312 133.863281 103.074219 135.582031 102.0625 137.550781 C 101.367188 138.800781 100.59375 140.492188 99.71875 142.210938 C 99.054688 143.554688 98.445312 145.09375 97.722656 146.980469 C 97.292969 148.046875 96.960938 149.085938 96.628906 150.128906 L 96.449219 151.332031 L 96.335938 151.679688 C 96.089844 152.277344 95.964844 152.941406 95.714844 153.539062 C 95.492188 154.230469 95.394531 154.996094 95.171875 155.6875 L 95.160156 156.007812 L 95.007812 156.574219 C 94.8125 157.367188 94.648438 158.253906 94.480469 159.140625 C 94.410156 159.265625 94.4375 159.363281 94.398438 159.582031 C 94.3125 160.027344 94.203125 160.375 94.21875 160.789062 L 94.246094 160.886719 C 94.191406 161.429688 94.039062 161.996094 93.886719 162.566406 C 93.609375 163.800781 93.398438 164.910156 93.246094 166.210938 C 93.179688 167.070312 93.207031 167.902344 93.109375 168.664062 C 93.109375 169.402344 93.082031 170.039062 92.984375 170.800781 C 92.875 171.882812 92.984375 173.003906 92.972656 174.058594 L 92.984375 174.476562 C 93.027344 174.988281 92.945312 175.433594 92.984375 175.945312 C 92.945312 176.902344 93.027344 177.925781 93.109375 178.953125 C 93.195312 179.246094 93.152344 179.464844 93.234375 179.757812 C 93.292969 179.953125 93.25 180.171875 93.304688 180.367188 L 93.261719 180.589844 C 93.25 180.910156 93.332031 181.199219 93.292969 181.421875 C 93.359375 182.765625 93.554688 184.179688 93.75 185.59375 C 93.820312 186.203125 93.984375 186.789062 94.152344 187.371094 C 94.207031 187.5625 94.261719 187.757812 94.316406 187.953125 L 94.375 188.144531 C 94.402344 188.242188 94.429688 188.339844 94.484375 188.535156 C 94.652344 189.117188 94.886719 189.574219 95.246094 190.101562 C 95.425781 190.363281 95.703125 190.601562 96.050781 190.710938 C 96.175781 190.78125 96.203125 190.878906 96.300781 190.847656 C 96.550781 190.988281 96.773438 191.03125 97.023438 191.167969 C 97.492188 191.347656 97.910156 191.335938 98.394531 191.195312 C 98.589844 191.140625 98.8125 191.183594 99.03125 191.222656 C 99.351562 191.238281 99.574219 191.277344 99.863281 191.195312 C 100.476562 191.125 101.113281 191.152344 101.722656 191.085938 L 102.136719 191.070312 C 102.457031 191.085938 102.875 191.070312 103.164062 190.988281 C 103.359375 190.933594 103.484375 191 103.675781 190.945312 L 104.066406 190.835938 L 104.261719 190.777344 C 104.355469 190.75 104.578125 190.792969 104.675781 190.765625 C 105.1875 190.722656 105.632812 190.804688 106.117188 190.667969 C 106.894531 190.445312 107.519531 190.058594 107.863281 189.433594 C 108.140625 188.933594 108.320312 188.464844 108.253906 187.851562 C 108.292969 187.632812 108.335938 187.410156 108.28125 187.214844 C 108.183594 186.507812 108.113281 185.898438 108.015625 185.191406 C 107.933594 184.898438 107.945312 184.582031 107.835938 184.191406 C 107.753906 183.167969 107.667969 182.140625 107.628906 180.894531 C 107.640625 179.839844 107.53125 178.714844 107.503906 177.148438 C 107.460938 175.902344 107.515625 174.625 107.597656 173.445312 C 107.613281 173.128906 107.65625 172.90625 107.667969 172.585938 L 107.820312 171.285156 C 107.972656 169.980469 108.125 168.675781 108.25 167.277344 C 108.320312 166.417969 108.484375 165.53125 108.652344 164.644531 C 108.816406 163.753906 109.082031 162.839844 109.246094 161.953125 L 109.359375 161.605469 C 109.746094 160.027344 110.175781 158.222656 110.660156 156.613281 C 110.773438 156.269531 110.894531 155.601562 111.117188 154.910156 Z M 111.117188 154.910156 " fill-opacity="1" fill-rule="nonzero"/></g></g></g></svg>