<svg xmlns="http://www.w3.org/2000/svg" xmlns:xlink="http://www.w3.org/1999/xlink" width="500" zoomAndPan="magnify" viewBox="0 0 375 374.999991" height="500" preserveAspectRatio="xMidYMid meet" version="1.0"><defs><clipPath id="69dd276ef2"><path d="M 108 106 L 212 106 L 212 269.382812 L 108 269.382812 Z M 108 106 " clip-rule="nonzero"/></clipPath><clipPath id="341dc08dd3"><path d="M 30.0625 30.0625 L 345.0625 30.0625 L 345.0625 345.0625 L 30.0625 345.0625 Z M 30.0625 30.0625 " clip-rule="nonzero"/></clipPath></defs><path fill="#000000" d="M 210.8125 134.609375 C 208.1875 125.621094 206.320312 116.519531 211.449219 106.382812 C 212.132812 106.332031 217.730469 106.441406 217.933594 106.457031 C 219.128906 106.574219 220.335938 106.742188 221.519531 106.960938 C 243.859375 111.085938 262.144531 133 265.28125 144.917969 C 266.296875 148.828125 266.425781 150.855469 266.707031 154.050781 C 267.820312 167.375 258.785156 190.015625 244.300781 196.695312 C 251.851562 190.511719 264.515625 158.195312 227.539062 139.597656 C 217.867188 134.734375 210.882812 133.355469 210.8125 134.609375 Z M 210.8125 134.609375 " fill-opacity="1" fill-rule="nonzero"/><g clip-path="url(#69dd276ef2)"><path stroke-linecap="round" transform="matrix(1.0085, 0, 0, 1.009883, -21545.329221, -20845.950551)" fill-opacity="1" fill="#000000" fill-rule="evenodd" stroke-linejoin="miter" d="M 21545.700521 20747.501845 L 21573.301834 20747.401276 C 21572.302517 20763.898399 21573.197255 20858.800368 21573.197255 20858.800368 C 21572.999715 20874.400108 21566.302736 20886.000312 21558.19974 20893.69768 C 21557.498669 20894.401661 21556.80147 20895.101773 21555.999692 20895.697449 C 21545.599814 20904.501071 21535.401349 20908.601177 21521.39928 20908.500608 C 21507.598623 20908.299471 21497.198745 20903.100846 21488.398551 20895.500179 C 21481.802278 20889.80258 21476.499697 20882.399182 21473.501743 20872.199203 C 21466.99843 20849.799476 21475.399672 20827.999293 21493.999379 20815.30057 C 21494.301498 20814.998864 21494.700451 20814.697158 21495.099403 20814.499889 C 21503.601351 20808.601152 21516.801643 20805.10059 21529.09945 20807.100359 L 21529.09945 20835.302122 C 21520.601375 20833.101216 21513.001911 20835.000416 21507.401083 20839.700065 C 21507.300377 20839.700065 21507.300377 20839.800634 21507.19967 20839.901202 C 21501.800255 20844.500283 21498.697722 20851.300269 21499.100548 20859.001505 C 21500.099866 20872.802615 21511.499061 20881.401232 21523.901448 20880.801688 C 21523.901448 20880.801688 21523.998281 20880.801688 21523.998281 20880.801688 C 21536.001715 20879.598733 21545.901934 20869.801028 21545.599814 20856.599462 Z M 21545.700521 20747.501845 " stroke="#000000" stroke-width="0.17" stroke-opacity="1" stroke-miterlimit="1.5"/></g><g clip-path="url(#341dc08dd3)"><path fill="#000000" d="M 187.515625 30.023438 C 100.679688 30.023438 30.023438 100.679688 30.023438 187.515625 C 30.023438 274.351562 100.679688 345.003906 187.515625 345.003906 C 274.351562 345.003906 345.003906 274.351562 345.003906 187.515625 C 345.003906 100.679688 274.351562 30.023438 187.515625 30.023438 Z M 187.515625 325.320312 C 111.527344 325.320312 49.710938 263.484375 49.710938 187.515625 C 49.710938 111.546875 111.527344 49.710938 187.515625 49.710938 C 263.503906 49.710938 325.320312 111.546875 325.320312 187.515625 C 325.320312 263.484375 263.503906 325.320312 187.515625 325.320312 Z M 187.515625 325.320312 " fill-opacity="1" fill-rule="nonzero"/></g></svg>