<svg xmlns="http://www.w3.org/2000/svg" xmlns:xlink="http://www.w3.org/1999/xlink" width="500" zoomAndPan="magnify" viewBox="0 0 375 374.999991" height="500" preserveAspectRatio="xMidYMid meet" version="1.0"><defs><clipPath id="98a31aa7cd"><path d="M 108 106 L 212 106 L 212 269.382812 L 108 269.382812 Z M 108 106 " clip-rule="nonzero"/></clipPath><clipPath id="4a0bd47fbc"><path d="M 30.0625 30.0625 L 345 30.0625 L 345 345 L 30.0625 345 Z M 30.0625 30.0625 " clip-rule="nonzero"/></clipPath></defs><path fill="#696b4c" d="M 210.785156 134.5625 C 208.160156 125.589844 206.292969 116.503906 211.417969 106.382812 C 212.101562 106.332031 217.699219 106.4375 217.898438 106.457031 C 219.097656 106.570312 220.304688 106.738281 221.484375 106.957031 C 243.820312 111.074219 262.101562 132.957031 265.234375 144.851562 C 266.253906 148.753906 266.378906 150.78125 266.660156 153.96875 C 267.773438 167.273438 258.738281 189.878906 244.261719 196.546875 C 251.808594 190.371094 264.46875 158.109375 227.503906 139.542969 C 217.835938 134.683594 210.851562 133.308594 210.785156 134.5625 Z M 210.785156 134.5625 " fill-opacity="1" fill-rule="nonzero"/><path fill="#696b4c" d="M 183.496094 106.585938 L 211.324219 106.488281 C 210.316406 123.121094 211.222656 218.804688 211.222656 218.804688 C 211.019531 234.53125 204.265625 246.226562 196.097656 253.988281 C 195.394531 254.695312 194.6875 255.398438 193.878906 256.003906 C 183.394531 264.878906 173.113281 269.011719 158.996094 268.910156 C 145.082031 268.710938 134.597656 263.464844 125.726562 255.804688 C 119.070312 250.058594 113.726562 242.597656 110.703125 232.3125 C 104.148438 209.730469 112.617188 187.75 131.371094 174.945312 C 131.675781 174.640625 132.074219 174.339844 132.480469 174.136719 C 141.050781 168.1875 154.359375 164.660156 166.757812 166.675781 L 166.757812 195.109375 C 158.191406 192.890625 150.527344 194.804688 144.882812 199.542969 C 144.78125 199.542969 144.78125 199.648438 144.679688 199.746094 C 139.234375 204.382812 136.109375 211.242188 136.511719 219.003906 C 137.519531 232.917969 149.015625 241.585938 161.515625 240.984375 C 161.515625 240.984375 161.617188 240.984375 161.617188 240.984375 C 173.714844 239.773438 183.699219 229.894531 183.394531 216.582031 Z M 183.496094 106.585938 " fill-opacity="1" fill-rule="evenodd"/><g clip-path="url(#98a31aa7cd)"><path stroke-linecap="round" transform="matrix(1.008218, 0, 0, 1.008218, -21539.261781, -20811.411193)" fill="none" stroke-linejoin="miter" d="M 21545.700014 20747.498714 L 21573.301317 20747.401853 C 21572.301719 20763.899095 21573.200582 20858.802791 21573.200582 20858.802791 C 21572.999113 20874.401169 21566.300256 20886.001156 21558.198863 20893.69961 C 21557.501469 20894.400879 21556.800201 20895.098273 21555.998198 20895.698806 C 21545.599279 20904.501468 21535.401829 20908.600595 21521.399708 20908.49986 C 21507.599056 20908.302265 21497.200137 20903.098931 21488.40135 20895.501211 C 21481.799354 20889.801953 21476.49916 20882.401828 21473.500366 20872.200504 C 21466.999104 20849.802534 21475.398827 20828.001224 21493.999874 20815.300905 C 21494.302078 20814.998701 21494.697268 20814.700371 21495.100207 20814.498902 C 21503.600664 20808.598174 21516.800782 20805.099581 21529.098163 20807.098777 L 21529.098163 20835.300614 C 21520.601579 20833.099949 21512.999985 20834.99841 21507.401461 20839.698071 C 21507.300727 20839.698071 21507.300727 20839.80268 21507.199992 20839.89954 C 21501.799063 20844.498466 21498.699534 20851.301931 21499.098599 20859.000386 C 21500.098197 20872.801038 21511.500588 20881.398356 21523.898703 20880.801696 C 21523.898703 20880.801696 21523.999438 20880.801696 21523.999438 20880.801696 C 21535.998489 20879.600629 21545.901483 20869.802244 21545.599279 20856.598251 Z M 21545.700014 20747.498714 " stroke="#000000" stroke-width="0.17" stroke-opacity="1" stroke-miterlimit="1.5"/></g><g clip-path="url(#4a0bd47fbc)"><path fill="#696b4c" d="M 187.449219 30.023438 C 100.648438 30.023438 30.023438 100.648438 30.023438 187.449219 C 30.023438 274.25 100.648438 344.875 187.449219 344.875 C 274.25 344.875 344.875 274.25 344.875 187.449219 C 344.875 100.648438 274.25 30.023438 187.449219 30.023438 Z M 187.449219 325.199219 C 111.492188 325.199219 49.703125 263.390625 49.703125 187.449219 C 49.703125 111.511719 111.492188 49.703125 187.449219 49.703125 C 263.410156 49.703125 325.199219 111.511719 325.199219 187.449219 C 325.199219 263.390625 263.410156 325.199219 187.449219 325.199219 Z M 187.449219 325.199219 " fill-opacity="1" fill-rule="nonzero"/></g></svg>