<svg xmlns="http://www.w3.org/2000/svg" xmlns:xlink="http://www.w3.org/1999/xlink" width="500" zoomAndPan="magnify" viewBox="0 0 375 374.999991" height="500" preserveAspectRatio="xMidYMid meet" version="1.0"><defs><clipPath id="d481c7758e"><path d="M 46.640625 44.316406 L 327 44.316406 L 327 330.816406 L 46.640625 330.816406 Z M 46.640625 44.316406 " clip-rule="nonzero"/></clipPath></defs><g clip-path="url(#d481c7758e)"><path fill="#73da8c" d="M 187.578125 44.824219 C 265.457031 45.246094 328.625 108.824219 326.953125 186.132812 C 325.328125 261.628906 261.992188 322.171875 185.472656 321.46875 C 163.300781 321.265625 142.359375 315.976562 123.785156 306.734375 L 55.964844 330.703125 L 79.097656 271.683594 C 58.820312 247.691406 46.613281 216.828125 46.613281 183.148438 C 46.613281 106.578125 109.976562 44.40625 187.578125 44.824219 Z M 187.578125 44.824219 " fill-opacity="1" fill-rule="nonzero"/></g><path fill="#ffffff" d="M 130.203125 293.925781 L 126.105469 291.886719 L 88.378906 305.21875 C 86.515625 305.878906 84.441406 305.386719 83.070312 303.96875 C 81.695312 302.550781 81.277344 300.460938 81.996094 298.621094 L 94.242188 267.378906 L 90.085938 262.464844 C 71.320312 240.261719 60.984375 212.089844 60.984375 183.148438 C 60.984375 114.765625 117.425781 59.132812 186.800781 59.132812 L 187.484375 59.136719 C 257.921875 59.515625 314.078125 116.945312 312.589844 185.824219 C 311.121094 254.046875 253.964844 307.136719 186.800781 307.160156 C 167.316406 307.164062 147.882812 302.722656 130.203125 293.925781 Z M 128.6875 281.902344 C 132.613281 283.410156 153.402344 297.070312 186.796875 297.070312 C 249.546875 297.066406 301.167969 247.363281 302.496094 185.605469 C 303.867188 122.160156 252.027344 69.578125 187.445312 69.226562 L 186.789062 69.226562 C 122.992188 69.226562 71.078125 120.332031 71.078125 183.148438 C 71.078125 209.710938 80.566406 235.566406 97.800781 255.953125 L 103.894531 263.167969 C 105.089844 264.582031 105.414062 266.539062 104.738281 268.261719 L 95.421875 292.027344 L 124.753906 281.660156 C 126.03125 281.210938 127.449219 281.285156 128.6875 281.902344 Z M 128.6875 281.902344 " fill-opacity="1" fill-rule="nonzero"/><path fill="#ffffff" d="M 262.039062 232.636719 L 241.644531 253.015625 C 233.046875 261.609375 220.496094 264.96875 208.703125 261.761719 C 161.980469 249.03125 125.496094 212.5625 112.761719 165.871094 C 109.554688 154.125 112.894531 141.558594 121.511719 132.949219 L 141.902344 112.566406 L 171.933594 142.585938 L 154.769531 168.316406 C 165.910156 190.585938 183.976562 208.640625 206.257812 219.773438 L 232 202.621094 Z M 262.039062 232.636719 " fill-opacity="1" fill-rule="nonzero"/></svg>