<svg xmlns="http://www.w3.org/2000/svg" xmlns:xlink="http://www.w3.org/1999/xlink" width="500" zoomAndPan="magnify" viewBox="0 0 375 374.999991" height="500" preserveAspectRatio="xMidYMid meet" version="1.0"><defs><clipPath id="12ea4af8a2"><path d="M 36 35.496094 L 338.875 35.496094 L 338.875 338 L 36 338 Z M 36 35.496094 " clip-rule="nonzero"/></clipPath></defs><g clip-path="url(#12ea4af8a2)"><path fill="#252627" d="M 187.394531 35.773438 C 103.191406 36.054688 35.894531 104.519531 36.996094 188.714844 C 37.046875 192.941406 37.273438 197.164062 37.679688 201.375 C 38.085938 205.585938 38.667969 209.769531 39.429688 213.933594 C 40.1875 218.09375 41.121094 222.214844 42.230469 226.300781 C 43.339844 230.382812 44.617188 234.410156 46.066406 238.386719 C 47.511719 242.359375 49.125 246.265625 50.902344 250.105469 C 52.679688 253.945312 54.617188 257.699219 56.714844 261.375 C 58.808594 265.050781 61.054688 268.628906 63.453125 272.117188 C 65.851562 275.601562 68.390625 278.980469 71.074219 282.25 C 71.496094 282.765625 71.875 283.3125 72.214844 283.882812 C 72.554688 284.457031 72.851562 285.054688 73.101562 285.671875 C 73.351562 286.289062 73.554688 286.921875 73.710938 287.570312 C 73.867188 288.21875 73.976562 288.875 74.035156 289.539062 C 74.09375 290.203125 74.101562 290.867188 74.058594 291.53125 C 74.019531 292.195312 73.925781 292.855469 73.789062 293.507812 C 73.648438 294.160156 73.460938 294.796875 73.222656 295.421875 C 72.988281 296.042969 72.707031 296.644531 72.382812 297.226562 L 59.382812 320.527344 C 55.777344 326.984375 61.652344 334.621094 68.820312 332.796875 L 112.855469 321.585938 C 114.390625 321.195312 115.945312 321.082031 117.523438 321.242188 C 119.097656 321.40625 120.597656 321.832031 122.023438 322.527344 C 131.761719 327.257812 141.890625 330.890625 152.414062 333.433594 C 162.9375 335.972656 173.609375 337.359375 184.433594 337.589844 C 269.089844 339.503906 338.578125 271.859375 338.839844 187.183594 C 339.101562 103.433594 271.148438 35.492188 187.394531 35.773438 Z M 187.914062 319.03125 C 185.746094 319.03125 183.582031 318.980469 181.417969 318.875 C 179.257812 318.765625 177.097656 318.609375 174.941406 318.394531 C 172.785156 318.183594 170.636719 317.917969 168.496094 317.601562 C 166.351562 317.285156 164.21875 316.914062 162.097656 316.492188 C 159.972656 316.066406 157.859375 315.59375 155.757812 315.066406 C 153.65625 314.542969 151.570312 313.964844 149.5 313.335938 C 147.425781 312.707031 145.371094 312.027344 143.332031 311.296875 C 141.292969 310.570312 139.273438 309.789062 137.269531 308.960938 C 135.269531 308.132812 133.292969 307.253906 131.332031 306.328125 C 129.375 305.402344 127.441406 304.429688 125.53125 303.410156 C 123.621094 302.386719 121.738281 301.320312 119.878906 300.207031 C 118.023438 299.09375 116.195312 297.933594 114.394531 296.730469 C 112.59375 295.527344 110.820312 294.28125 109.082031 292.992188 C 107.34375 291.703125 105.636719 290.371094 103.960938 288.996094 C 102.289062 287.621094 100.648438 286.207031 99.042969 284.753906 C 97.4375 283.300781 95.871094 281.804688 94.339844 280.273438 C 92.808594 278.742188 91.316406 277.175781 89.859375 275.570312 C 88.40625 273.964844 86.992188 272.328125 85.617188 270.652344 C 84.246094 268.976562 82.914062 267.273438 81.621094 265.53125 C 80.332031 263.792969 79.085938 262.023438 77.882812 260.222656 C 76.679688 258.421875 75.519531 256.59375 74.40625 254.734375 C 73.292969 252.875 72.226562 250.992188 71.207031 249.082031 C 70.183594 247.171875 69.210938 245.238281 68.285156 243.28125 C 67.359375 241.324219 66.484375 239.34375 65.652344 237.34375 C 64.824219 235.34375 64.046875 233.324219 63.316406 231.28125 C 62.585938 229.242188 61.90625 227.1875 61.277344 225.117188 C 60.648438 223.042969 60.074219 220.957031 59.546875 218.855469 C 59.019531 216.753906 58.546875 214.640625 58.125 212.519531 C 57.699219 210.394531 57.332031 208.261719 57.011719 206.117188 C 56.695312 203.976562 56.429688 201.828125 56.21875 199.671875 C 56.003906 197.515625 55.847656 195.359375 55.738281 193.195312 C 55.632812 191.03125 55.582031 188.867188 55.582031 186.703125 C 55.582031 113.617188 114.828125 54.371094 187.914062 54.371094 C 260.714844 54.371094 319.78125 113.160156 320.242188 185.851562 C 320.703125 258.789062 260.851562 319.03125 187.914062 319.03125 Z M 187.914062 319.03125 " fill-opacity="1" fill-rule="nonzero"/></g><path fill="#252627" d="M 164.261719 122.367188 L 164.324219 122.488281 L 172.214844 138.140625 C 172.640625 138.984375 172.992188 139.851562 173.277344 140.753906 C 173.5625 141.652344 173.773438 142.566406 173.90625 143.5 C 174.042969 144.433594 174.105469 145.371094 174.089844 146.3125 C 174.074219 147.257812 173.984375 148.191406 173.816406 149.121094 C 173.652344 150.046875 173.410156 150.957031 173.097656 151.847656 C 172.785156 152.734375 172.40625 153.59375 171.953125 154.421875 C 171.5 155.25 170.988281 156.035156 170.410156 156.78125 C 169.832031 157.523438 169.195312 158.21875 168.507812 158.859375 C 167.820312 159.5 167.1875 160.1875 166.613281 160.925781 C 166.035156 161.664062 165.523438 162.445312 165.070312 163.265625 C 164.621094 164.089844 164.238281 164.941406 163.921875 165.824219 C 163.609375 166.707031 163.367188 167.609375 163.199219 168.53125 C 163.03125 169.453125 162.9375 170.382812 162.917969 171.320312 C 162.898438 172.257812 162.953125 173.191406 163.082031 174.117188 C 163.214844 175.046875 163.417969 175.957031 163.695312 176.855469 C 163.972656 177.75 164.316406 178.617188 164.734375 179.457031 C 169.472656 188.972656 177.679688 202.085938 190.207031 211.546875 C 190.90625 212.078125 191.640625 212.550781 192.410156 212.972656 C 193.175781 213.394531 193.972656 213.753906 194.796875 214.054688 C 195.621094 214.355469 196.460938 214.59375 197.320312 214.769531 C 198.179688 214.945312 199.046875 215.054688 199.921875 215.101562 C 200.796875 215.148438 201.667969 215.128906 202.542969 215.042969 C 203.414062 214.957031 204.277344 214.808594 205.125 214.59375 C 205.976562 214.382812 206.804688 214.105469 207.613281 213.769531 C 208.421875 213.429688 209.203125 213.035156 209.949219 212.578125 L 215.035156 209.488281 C 216.171875 208.792969 217.378906 208.238281 218.644531 207.816406 C 219.910156 207.398438 221.207031 207.128906 222.539062 207.007812 C 223.867188 206.882812 225.191406 206.914062 226.515625 207.09375 C 227.835938 207.273438 229.121094 207.601562 230.367188 208.074219 L 250.570312 215.753906 C 251.109375 215.960938 251.632812 216.1875 252.148438 216.445312 C 252.660156 216.699219 253.160156 216.980469 253.648438 217.285156 C 254.132812 217.589844 254.605469 217.917969 255.058594 218.269531 C 255.511719 218.621094 255.949219 218.992188 256.367188 219.386719 C 256.785156 219.78125 257.183594 220.195312 257.558594 220.625 C 257.9375 221.058594 258.292969 221.507812 258.625 221.976562 C 258.957031 222.445312 259.265625 222.929688 259.550781 223.425781 C 259.835938 223.925781 260.097656 224.433594 260.332031 224.957031 C 260.566406 225.484375 260.777344 226.015625 260.957031 226.5625 C 261.140625 227.105469 261.296875 227.65625 261.425781 228.214844 C 261.554688 228.777344 261.65625 229.339844 261.726562 229.910156 C 261.800781 230.480469 261.847656 231.050781 261.863281 231.625 C 261.878906 232.199219 261.867188 232.773438 261.828125 233.34375 C 261.789062 233.917969 261.722656 234.488281 261.625 235.050781 C 261.53125 235.617188 261.410156 236.179688 261.257812 236.734375 C 261.109375 237.285156 260.929688 237.832031 260.726562 238.367188 C 260.492188 238.984375 260.222656 239.585938 259.917969 240.175781 L 254.320312 251.027344 C 253.867188 251.902344 253.34375 252.738281 252.75 253.527344 C 252.15625 254.316406 251.5 255.050781 250.78125 255.726562 C 250.0625 256.40625 249.292969 257.019531 248.472656 257.566406 C 247.648438 258.117188 246.789062 258.589844 245.886719 258.992188 C 244.984375 259.394531 244.054688 259.71875 243.097656 259.964844 C 242.140625 260.210938 241.171875 260.375 240.1875 260.457031 C 239.203125 260.539062 238.21875 260.535156 237.234375 260.453125 C 236.25 260.367188 235.28125 260.199219 234.324219 259.953125 C 202.59375 251.742188 126.96875 223.207031 120.878906 136.917969 C 120.816406 136.066406 120.820312 135.214844 120.882812 134.363281 C 120.945312 133.511719 121.074219 132.671875 121.261719 131.835938 C 121.445312 131.003906 121.695312 130.1875 122 129.390625 C 122.304688 128.59375 122.667969 127.824219 123.085938 127.082031 C 123.503906 126.335938 123.976562 125.625 124.5 124.949219 C 125.019531 124.277344 125.589844 123.640625 126.203125 123.050781 C 126.820312 122.457031 127.472656 121.914062 128.167969 121.414062 C 128.863281 120.917969 129.589844 120.476562 130.351562 120.085938 L 140.65625 114.792969 C 141.164062 114.527344 141.6875 114.292969 142.222656 114.082031 C 142.753906 113.871094 143.296875 113.683594 143.851562 113.527344 C 144.402344 113.371094 144.960938 113.238281 145.523438 113.136719 C 146.089844 113.03125 146.660156 112.957031 147.230469 112.910156 C 147.804688 112.863281 148.375 112.84375 148.949219 112.855469 C 149.523438 112.863281 150.097656 112.898438 150.667969 112.964844 C 151.238281 113.03125 151.804688 113.125 152.363281 113.246094 C 152.925781 113.367188 153.480469 113.515625 154.027344 113.6875 C 154.574219 113.863281 155.109375 114.066406 155.636719 114.292969 C 156.164062 114.523438 156.679688 114.777344 157.179688 115.054688 C 157.683594 115.332031 158.167969 115.636719 158.640625 115.964844 C 159.113281 116.289062 159.570312 116.636719 160.007812 117.011719 C 160.445312 117.382812 160.863281 117.773438 161.261719 118.183594 C 161.664062 118.597656 162.039062 119.027344 162.398438 119.476562 C 162.753906 119.929688 163.089844 120.394531 163.402344 120.875 C 163.710938 121.359375 164 121.855469 164.261719 122.367188 Z M 164.261719 122.367188 " fill-opacity="1" fill-rule="nonzero"/></svg>