<svg xmlns="http://www.w3.org/2000/svg" xmlns:xlink="http://www.w3.org/1999/xlink" width="500" zoomAndPan="magnify" viewBox="0 0 375 374.999991" height="500" preserveAspectRatio="xMidYMid meet" version="1.0"><defs><clipPath id="d9bf87efed"><path d="M 57 56 L 318.738281 56 L 318.738281 318 L 57 318 Z M 57 56 " clip-rule="nonzero"/></clipPath></defs><g clip-path="url(#d9bf87efed)"><path fill="#252627" d="M 187.40625 56.148438 C 114.515625 56.394531 56.257812 115.664062 57.210938 188.550781 C 57.296875 195.886719 57.996094 203.164062 59.316406 210.382812 C 60.632812 217.601562 62.546875 224.65625 65.058594 231.550781 C 67.570312 238.445312 70.644531 245.078125 74.277344 251.453125 C 77.914062 257.828125 82.054688 263.851562 86.710938 269.523438 C 87.445312 270.421875 88.027344 271.410156 88.464844 272.484375 C 88.902344 273.5625 89.171875 274.675781 89.273438 275.832031 C 89.375 276.988281 89.304688 278.132812 89.058594 279.269531 C 88.816406 280.402344 88.410156 281.476562 87.84375 282.492188 L 76.589844 302.660156 C 73.46875 308.25 78.550781 314.863281 84.757812 313.28125 L 122.878906 303.578125 C 124.210938 303.238281 125.554688 303.140625 126.921875 303.28125 C 128.285156 303.421875 129.585938 303.792969 130.816406 304.390625 C 139.246094 308.488281 148.015625 311.632812 157.125 313.832031 C 166.238281 316.03125 175.476562 317.230469 184.847656 317.433594 C 258.132812 319.089844 318.289062 260.53125 318.515625 187.222656 C 318.742188 114.722656 259.914062 55.90625 187.40625 56.148438 Z M 187.855469 301.367188 C 185.984375 301.367188 184.109375 301.320312 182.234375 301.230469 C 180.363281 301.136719 178.496094 301 176.628906 300.816406 C 174.761719 300.632812 172.902344 300.402344 171.046875 300.128906 C 169.195312 299.851562 167.347656 299.53125 165.507812 299.167969 C 163.667969 298.800781 161.839844 298.390625 160.023438 297.933594 C 158.203125 297.480469 156.398438 296.980469 154.601562 296.433594 C 152.808594 295.890625 151.027344 295.300781 149.261719 294.671875 C 147.5 294.039062 145.75 293.363281 144.015625 292.648438 C 142.285156 291.929688 140.570312 291.171875 138.878906 290.367188 C 137.183594 289.566406 135.507812 288.722656 133.855469 287.839844 C 132.199219 286.957031 130.570312 286.03125 128.960938 285.070312 C 127.355469 284.105469 125.769531 283.101562 124.210938 282.0625 C 122.652344 281.019531 121.121094 279.941406 119.613281 278.824219 C 118.109375 277.707031 116.632812 276.554688 115.183594 275.363281 C 113.734375 274.175781 112.3125 272.949219 110.925781 271.691406 C 109.535156 270.433594 108.175781 269.140625 106.851562 267.8125 C 105.527344 266.488281 104.234375 265.132812 102.972656 263.742188 C 101.714844 262.351562 100.492188 260.933594 99.300781 259.484375 C 98.113281 258.035156 96.960938 256.558594 95.84375 255.050781 C 94.726562 253.546875 93.644531 252.011719 92.605469 250.453125 C 91.5625 248.894531 90.558594 247.3125 89.597656 245.703125 C 88.632812 244.09375 87.707031 242.464844 86.824219 240.8125 C 85.941406 239.15625 85.097656 237.484375 84.296875 235.789062 C 83.496094 234.09375 82.734375 232.378906 82.019531 230.648438 C 81.300781 228.914062 80.625 227.167969 79.996094 225.402344 C 79.363281 223.636719 78.773438 221.855469 78.230469 220.0625 C 77.6875 218.269531 77.1875 216.460938 76.730469 214.644531 C 76.277344 212.824219 75.863281 210.996094 75.5 209.15625 C 75.132812 207.320312 74.8125 205.472656 74.539062 203.617188 C 74.261719 201.761719 74.035156 199.902344 73.847656 198.035156 C 73.664062 196.171875 73.527344 194.300781 73.4375 192.429688 C 73.34375 190.554688 73.296875 188.683594 73.296875 186.808594 C 73.296875 123.539062 124.589844 72.246094 187.859375 72.246094 C 250.882812 72.246094 302.019531 123.140625 302.414062 186.070312 C 302.8125 249.214844 251.003906 301.367188 187.855469 301.367188 Z M 187.855469 301.367188 " fill-opacity="1" fill-rule="nonzero"/></g><path fill="#252627" d="M 167.382812 131.113281 L 167.433594 131.21875 L 174.269531 144.769531 C 174.636719 145.496094 174.941406 146.25 175.1875 147.027344 C 175.433594 147.808594 175.617188 148.601562 175.734375 149.40625 C 175.851562 150.214844 175.902344 151.027344 175.890625 151.84375 C 175.878906 152.660156 175.800781 153.46875 175.65625 154.273438 C 175.511719 155.078125 175.304688 155.863281 175.035156 156.632812 C 174.761719 157.402344 174.433594 158.144531 174.042969 158.863281 C 173.652344 159.578125 173.207031 160.261719 172.703125 160.90625 C 172.203125 161.550781 171.65625 162.148438 171.058594 162.707031 C 170.464844 163.257812 169.917969 163.855469 169.417969 164.492188 C 168.917969 165.132812 168.472656 165.808594 168.082031 166.519531 C 167.691406 167.230469 167.363281 167.96875 167.089844 168.734375 C 166.816406 169.5 166.609375 170.28125 166.464844 171.078125 C 166.316406 171.875 166.234375 172.679688 166.21875 173.492188 C 166.203125 174.304688 166.25 175.109375 166.363281 175.914062 C 166.476562 176.71875 166.652344 177.507812 166.890625 178.28125 C 167.132812 179.058594 167.429688 179.808594 167.792969 180.535156 C 171.894531 188.773438 179 200.125 189.84375 208.316406 C 190.449219 208.777344 191.082031 209.1875 191.75 209.550781 C 192.414062 209.914062 193.105469 210.226562 193.816406 210.488281 C 194.53125 210.75 195.257812 210.953125 196 211.105469 C 196.746094 211.257812 197.496094 211.355469 198.253906 211.394531 C 199.011719 211.433594 199.765625 211.417969 200.523438 211.34375 C 201.277344 211.269531 202.023438 211.140625 202.757812 210.957031 C 203.496094 210.769531 204.210938 210.53125 204.914062 210.238281 C 205.613281 209.945312 206.289062 209.605469 206.9375 209.210938 L 211.335938 206.53125 C 212.324219 205.933594 213.363281 205.449219 214.460938 205.089844 C 215.558594 204.726562 216.683594 204.492188 217.832031 204.386719 C 218.984375 204.277344 220.128906 204.304688 221.273438 204.460938 C 222.417969 204.617188 223.53125 204.898438 224.613281 205.308594 L 242.101562 211.960938 C 243.03125 212.3125 243.921875 212.753906 244.765625 213.285156 C 245.609375 213.8125 246.394531 214.417969 247.117188 215.101562 C 247.84375 215.785156 248.496094 216.535156 249.074219 217.347656 C 249.648438 218.15625 250.144531 219.019531 250.550781 219.925781 C 250.960938 220.835938 251.273438 221.777344 251.496094 222.746094 C 251.722656 223.71875 251.847656 224.703125 251.875 225.699219 C 251.90625 226.691406 251.835938 227.683594 251.671875 228.664062 C 251.507812 229.648438 251.246094 230.605469 250.890625 231.535156 C 250.6875 232.070312 250.453125 232.589844 250.191406 233.097656 L 245.347656 242.492188 C 244.953125 243.253906 244.5 243.976562 243.988281 244.65625 C 243.472656 245.339844 242.90625 245.976562 242.28125 246.5625 C 241.660156 247.152344 240.996094 247.679688 240.285156 248.15625 C 239.574219 248.628906 238.828125 249.042969 238.046875 249.390625 C 237.265625 249.738281 236.460938 250.019531 235.632812 250.234375 C 234.804688 250.445312 233.964844 250.585938 233.109375 250.65625 C 232.257812 250.726562 231.40625 250.726562 230.554688 250.652344 C 229.703125 250.582031 228.863281 250.4375 228.035156 250.222656 C 200.566406 243.113281 135.101562 218.410156 129.824219 143.710938 C 129.773438 142.972656 129.773438 142.234375 129.832031 141.5 C 129.886719 140.761719 129.996094 140.03125 130.15625 139.3125 C 130.316406 138.589844 130.53125 137.886719 130.796875 137.195312 C 131.0625 136.503906 131.375 135.835938 131.738281 135.195312 C 132.101562 134.550781 132.507812 133.933594 132.960938 133.351562 C 133.414062 132.765625 133.90625 132.214844 134.4375 131.703125 C 134.96875 131.191406 135.535156 130.71875 136.136719 130.289062 C 136.738281 129.859375 137.367188 129.476562 138.027344 129.136719 L 146.945312 124.554688 C 147.832031 124.097656 148.753906 123.734375 149.710938 123.460938 C 150.671875 123.1875 151.644531 123.007812 152.640625 122.925781 C 153.632812 122.84375 154.625 122.859375 155.613281 122.972656 C 156.605469 123.085938 157.574219 123.296875 158.523438 123.601562 C 159.472656 123.90625 160.382812 124.300781 161.253906 124.78125 C 162.125 125.265625 162.941406 125.832031 163.699219 126.476562 C 164.460938 127.121094 165.148438 127.832031 165.769531 128.613281 C 166.390625 129.394531 166.925781 130.226562 167.382812 131.113281 Z M 167.382812 131.113281 " fill-opacity="1" fill-rule="nonzero"/></svg>