<svg xmlns="http://www.w3.org/2000/svg" xmlns:xlink="http://www.w3.org/1999/xlink" width="500" zoomAndPan="magnify" viewBox="0 0 375 374.999991" height="500" preserveAspectRatio="xMidYMid meet" version="1.0"><defs><clipPath id="40ce904540"><path d="M 22.171875 68 L 178 68 L 178 352.921875 L 22.171875 352.921875 Z M 22.171875 68 " clip-rule="nonzero"/></clipPath><clipPath id="5b9cc91919"><path d="M 197 68 L 352.921875 68 L 352.921875 352.921875 L 197 352.921875 Z M 197 68 " clip-rule="nonzero"/></clipPath><clipPath id="7b84bf69c1"><path d="M 183 22.171875 L 192 22.171875 L 192 60 L 183 60 Z M 183 22.171875 " clip-rule="nonzero"/></clipPath></defs><g clip-path="url(#40ce904540)"><path fill="#000000" d="M 92.257812 249.304688 C 116.082031 249.304688 144.820312 215.242188 160.628906 166.40625 C 165.636719 150.933594 176.292969 112.070312 177.964844 96.019531 C 178.164062 94.082031 176.984375 92.265625 175.132812 91.667969 L 103.65625 68.53125 C 101.800781 67.929688 99.78125 68.707031 98.8125 70.394531 C 90.757812 84.390625 76.617188 122.125 71.613281 137.589844 C 63.464844 162.753906 60.125 187.886719 62.207031 208.351562 C 64.171875 227.699219 70.863281 241.03125 81.183594 246.527344 L 52.890625 333.925781 L 27.976562 325.863281 C 25.808594 325.160156 23.484375 326.347656 22.785156 328.515625 C 22.082031 330.679688 23.269531 333.007812 25.433594 333.707031 L 82.890625 352.308594 C 83.316406 352.445312 83.742188 352.511719 84.164062 352.511719 C 85.90625 352.511719 87.523438 351.398438 88.085938 349.65625 C 88.789062 347.488281 87.601562 345.164062 85.433594 344.460938 L 60.734375 336.46875 L 89.03125 249.058594 C 90.097656 249.203125 91.171875 249.304688 92.257812 249.304688 Z M 104.371094 77.429688 L 169.335938 98.460938 C 168.167969 106.339844 165.523438 117.878906 162.5625 129.410156 L 91.488281 107.082031 C 95.914062 95.796875 100.632812 84.628906 104.371094 77.429688 Z M 70.410156 207.515625 C 68.441406 188.164062 71.652344 164.230469 79.457031 140.128906 C 81.394531 134.144531 84.722656 124.769531 88.511719 114.792969 L 160.464844 137.398438 C 157.632812 147.945312 154.761719 157.753906 152.78125 163.867188 C 137.28125 211.742188 107.40625 246.726562 87.527344 240.324219 C 78.472656 237.394531 72.234375 225.4375 70.410156 207.515625 Z M 70.410156 207.515625 " fill-opacity="1" fill-rule="nonzero"/></g><g clip-path="url(#5b9cc91919)"><path fill="#000000" d="M 197.128906 96.019531 C 198.796875 112.070312 209.457031 150.933594 214.464844 166.40625 C 230.273438 215.242188 259.011719 249.304688 282.832031 249.304688 C 283.921875 249.304688 284.992188 249.203125 286.058594 249.058594 L 314.351562 336.46875 L 289.65625 344.460938 C 287.488281 345.164062 286.300781 347.488281 287.003906 349.65625 C 287.566406 351.398438 289.183594 352.511719 290.925781 352.511719 C 291.347656 352.511719 291.773438 352.445312 292.195312 352.308594 L 349.65625 333.707031 C 351.824219 333.007812 353.011719 330.679688 352.308594 328.515625 C 351.609375 326.347656 349.292969 325.15625 347.113281 325.863281 L 322.199219 333.925781 L 293.90625 246.527344 C 304.230469 241.03125 310.917969 227.699219 312.886719 208.351562 C 314.96875 187.886719 311.625 162.753906 303.480469 137.589844 C 298.472656 122.125 284.332031 84.386719 276.277344 70.394531 C 275.308594 68.710938 273.28125 67.929688 271.433594 68.53125 L 199.960938 91.667969 C 198.105469 92.265625 196.925781 94.082031 197.128906 96.019531 Z M 295.632812 140.128906 C 303.433594 164.230469 306.648438 188.164062 304.679688 207.515625 C 302.855469 225.4375 296.617188 237.394531 287.566406 240.324219 C 267.6875 246.753906 237.808594 211.742188 222.308594 163.867188 C 220.332031 157.753906 217.457031 147.945312 214.625 137.398438 L 286.582031 114.792969 C 290.367188 124.769531 293.695312 134.140625 295.632812 140.128906 Z M 270.71875 77.429688 C 274.457031 84.628906 279.175781 95.796875 283.601562 107.082031 L 212.527344 129.410156 C 209.570312 117.878906 206.921875 106.339844 205.753906 98.460938 Z M 270.71875 77.429688 " fill-opacity="1" fill-rule="nonzero"/></g><g clip-path="url(#7b84bf69c1)"><path fill="#000000" d="M 191.671875 54.960938 L 191.671875 26.707031 C 191.671875 24.429688 189.824219 22.582031 187.546875 22.582031 C 185.269531 22.582031 183.421875 24.429688 183.421875 26.707031 L 183.421875 54.960938 C 183.421875 57.238281 185.269531 59.085938 187.546875 59.085938 C 189.824219 59.085938 191.671875 57.238281 191.671875 54.960938 Z M 191.671875 54.960938 " fill-opacity="1" fill-rule="nonzero"/></g><path fill="#000000" d="M 162 64.9375 C 163.054688 64.9375 164.109375 64.535156 164.914062 63.726562 C 166.527344 62.117188 166.527344 59.507812 164.914062 57.894531 L 144.9375 37.917969 C 143.324219 36.308594 140.714844 36.308594 139.105469 37.917969 C 137.492188 39.527344 137.492188 42.140625 139.105469 43.75 L 159.082031 63.726562 C 159.886719 64.535156 160.945312 64.9375 162 64.9375 Z M 162 64.9375 " fill-opacity="1" fill-rule="nonzero"/><path fill="#000000" d="M 216.011719 63.726562 L 235.988281 43.75 C 237.597656 42.140625 237.597656 39.527344 235.988281 37.917969 C 234.378906 36.308594 231.765625 36.308594 230.15625 37.917969 L 210.179688 57.894531 C 208.566406 59.507812 208.566406 62.117188 210.179688 63.726562 C 210.984375 64.535156 212.039062 64.9375 213.09375 64.9375 C 214.148438 64.9375 215.203125 64.535156 216.011719 63.726562 Z M 216.011719 63.726562 " fill-opacity="1" fill-rule="nonzero"/></svg>