<svg xmlns="http://www.w3.org/2000/svg" xmlns:xlink="http://www.w3.org/1999/xlink" width="500" zoomAndPan="magnify" viewBox="0 0 375 374.999991" height="500" preserveAspectRatio="xMidYMid meet" version="1.0"><defs><clipPath id="b55d824714"><path d="M 50 17.199219 L 325 17.199219 L 325 357.699219 L 50 357.699219 Z M 50 17.199219 " clip-rule="nonzero"/></clipPath></defs><g clip-path="url(#b55d824714)"><path fill="#000000" d="M 281.464844 357.699219 C 305.371094 357.699219 324.785156 338.316406 324.785156 314.445312 C 324.785156 300.714844 319.316406 285.648438 312.410156 272.625 C 302.777344 254.457031 290.730469 240.359375 290.730469 240.359375 C 288.417969 237.648438 285.03125 236.09375 281.464844 236.09375 C 277.894531 236.09375 274.507812 237.648438 272.195312 240.359375 C 272.195312 240.359375 260.148438 254.457031 250.515625 272.625 C 243.609375 285.648438 238.140625 300.714844 238.140625 314.445312 C 238.140625 338.316406 257.554688 357.699219 281.464844 357.699219 Z M 164.097656 53.683594 L 155.488281 45.085938 C 153.195312 42.796875 150.101562 41.519531 146.875 41.519531 C 143.648438 41.519531 140.542969 42.796875 138.265625 45.085938 C 129.652344 53.683594 121.03125 62.28125 121.03125 62.28125 C 116.28125 67.023438 108.558594 67.023438 103.808594 62.28125 C 99.058594 57.535156 99.058594 49.828125 103.808594 45.085938 C 103.808594 45.085938 112.417969 36.488281 121.03125 27.890625 C 127.886719 21.042969 137.179688 17.199219 146.875 17.199219 C 156.558594 17.199219 165.851562 21.042969 172.710938 27.890625 L 284.667969 139.671875 C 291.523438 146.515625 295.371094 155.796875 295.371094 165.464844 C 295.371094 175.144531 291.523438 184.421875 284.667969 191.269531 L 189.929688 285.855469 C 183.085938 292.6875 173.792969 296.542969 164.097656 296.542969 C 154.402344 296.542969 145.109375 292.6875 138.265625 285.855469 C 117.207031 264.839844 81.800781 229.476562 60.753906 208.464844 C 53.894531 201.617188 50.046875 192.339844 50.046875 182.671875 C 50.046875 172.992188 53.894531 163.710938 60.753906 156.867188 Z M 131.90625 120.214844 C 151.394531 124.261719 166.011719 133.554688 179.820312 142.660156 C 191.464844 150.347656 202.269531 158.082031 216.59375 159.636719 C 228.117188 160.878906 241.636719 158.007812 259.417969 148.851562 L 181.320312 70.878906 Z M 131.90625 120.214844 " fill-opacity="1" fill-rule="evenodd"/></g></svg>