<svg xmlns="http://www.w3.org/2000/svg" xmlns:xlink="http://www.w3.org/1999/xlink" width="500" zoomAndPan="magnify" viewBox="0 0 375 374.999991" height="500" preserveAspectRatio="xMidYMid meet" version="1.0"><defs><clipPath id="eaa5f6e102"><path d="M 0 131.449219 L 375 131.449219 L 375 239.449219 L 0 239.449219 Z M 0 131.449219 " clip-rule="nonzero"/></clipPath><clipPath id="17cc0f4f48"><path d="M 0 145 L 375 145 L 375 239.449219 L 0 239.449219 Z M 0 145 " clip-rule="nonzero"/></clipPath><clipPath id="582e7f68e8"><path d="M 0 158 L 375 158 L 375 239.449219 L 0 239.449219 Z M 0 158 " clip-rule="nonzero"/></clipPath></defs><g clip-path="url(#eaa5f6e102)"><path fill="#9b9472" d="M 0.945312 131.449219 C 125.316406 202.207031 249.683594 205.078125 374.019531 131.449219 L 374.019531 239.222656 L 0.945312 239.222656 Z M 0.945312 131.449219 " fill-opacity="1" fill-rule="evenodd"/></g><g clip-path="url(#17cc0f4f48)"><path fill="#9b9472" d="M 0.945312 145.613281 C 125.316406 216.375 249.683594 219.242188 374.019531 145.613281 L 374.019531 239.222656 L 0.945312 239.222656 Z M 0.945312 145.613281 " fill-opacity="1" fill-rule="evenodd"/></g><g clip-path="url(#582e7f68e8)"><path fill="#9b9472" d="M 0.945312 158.234375 C 125.316406 228.996094 249.683594 231.863281 374.019531 158.234375 L 374.019531 239.222656 L 0.945312 239.222656 Z M 0.945312 158.234375 " fill-opacity="1" fill-rule="evenodd"/></g></svg>