<svg xmlns="http://www.w3.org/2000/svg" xmlns:xlink="http://www.w3.org/1999/xlink" width="500" zoomAndPan="magnify" viewBox="0 0 375 374.999991" height="500" preserveAspectRatio="xMidYMid meet" version="1.0"><defs><clipPath id="48433de835"><path d="M 42.496094 198 L 133 198 L 133 250 L 42.496094 250 Z M 42.496094 198 " clip-rule="nonzero"/></clipPath><clipPath id="4507155e74"><path d="M 47 24.113281 L 331 24.113281 L 331 351.113281 L 47 351.113281 Z M 47 24.113281 " clip-rule="nonzero"/></clipPath></defs><path fill="#000000" d="M 237.332031 241.605469 C 227.597656 229.375 213.808594 220.210938 197.601562 221.882812 C 189.410156 222.683594 181.59375 225.910156 174.964844 230.714844 C 174.679688 230.9375 174.089844 231.363281 173.832031 231.589844 C 173.765625 231.648438 173.679688 231.699219 173.625 231.78125 C 168.929688 256.128906 183.546875 270.015625 206.472656 273.988281 C 213.050781 275.136719 219.738281 275.4375 226.394531 275.226562 C 235.242188 274.890625 243.988281 273.886719 252.664062 272.09375 C 253.648438 271.910156 254.222656 270.808594 253.808594 269.898438 C 249.425781 259.917969 244.1875 250.164062 237.332031 241.605469 Z M 213.496094 270.695312 C 189.191406 268.363281 172.46875 258.777344 173.972656 231.972656 C 180.738281 227.066406 189.21875 223.679688 197.695312 223.117188 C 213.25 221.9375 226.363281 231.222656 235.398438 243.132812 C 241.488281 251.105469 246.144531 260.039062 250.066406 269.273438 C 238.019531 271.25 225.640625 271.800781 213.496094 270.695312 Z M 213.496094 270.695312 " fill-opacity="1" fill-rule="nonzero"/><g clip-path="url(#48433de835)"><path fill="#000000" d="M 84.011719 247.148438 C 106.320312 253.75 125.578125 247.785156 132.164062 223.867188 C 132.03125 223.457031 131.625 222.71875 131.433594 222.320312 C 127.621094 215.078125 122.042969 208.71875 115.054688 204.375 C 101.265625 195.691406 84.847656 197.796875 70.695312 204.449219 C 60.757812 209.082031 51.742188 215.503906 43.386719 222.507812 C 42.613281 223.140625 42.640625 224.382812 43.441406 224.984375 C 50.425781 230.433594 57.816406 235.210938 65.601562 239.433594 C 71.476562 242.570312 77.605469 245.265625 84.011719 247.148438 Z M 71.75 206.671875 C 85.128906 200 101 197.484375 114.417969 205.4375 C 121.773438 209.699219 127.871094 216.488281 131.761719 223.886719 C 121.234375 248.574219 102.007812 249.769531 79.171875 241.089844 C 67.796875 236.699219 56.941406 230.71875 47.015625 223.613281 C 54.625 217.070312 62.761719 211.121094 71.75 206.671875 Z M 71.75 206.671875 " fill-opacity="1" fill-rule="nonzero"/></g><g clip-path="url(#4507155e74)"><path fill="#000000" d="M 317.285156 111.871094 C 316.15625 111.214844 314.847656 110.640625 313.566406 110.132812 C 317.550781 108.207031 321.015625 105.367188 322.953125 101.277344 C 324.765625 97.457031 324.960938 93.027344 324.148438 88.921875 C 323.363281 84.691406 321.3125 80.808594 318.628906 77.460938 C 316.71875 75.117188 314.617188 72.96875 311.644531 71.792969 C 311.625 71.785156 311.601562 71.78125 311.582031 71.773438 C 311.289062 70.183594 310.882812 68.609375 310.464844 67.046875 C 307.195312 55.222656 300.351562 46.460938 289.738281 40.285156 C 282.144531 35.859375 274.03125 34.007812 265.785156 34.847656 C 265.707031 34.726562 265.625 34.605469 265.542969 34.488281 C 264.226562 32.722656 262.574219 31.230469 260.734375 30.027344 C 257.898438 28 254.25 28.070312 251.042969 27.007812 C 247.773438 25.980469 244.652344 24.351562 241.125 24.378906 C 237.074219 24.121094 232.929688 25.253906 229.699219 27.75 C 228.589844 28.589844 227.589844 29.558594 226.75 30.648438 C 219.503906 28.9375 211.714844 30.589844 206.554688 36.722656 C 203.238281 40.613281 201.445312 45.464844 202.03125 50.308594 C 198.4375 48.472656 194.570312 47.082031 190.507812 46.34375 C 183.539062 45.125 175.183594 45.777344 170.316406 51.679688 C 165.714844 57.644531 165.890625 66.125 168.71875 72.792969 C 170.40625 76.871094 173.886719 79.984375 177.453125 82.367188 C 175.183594 92.71875 174.074219 103.316406 174.203125 113.910156 C 174.269531 121.414062 174.789062 129.050781 177.867188 136.039062 C 178.347656 137.183594 178.890625 138.300781 179.488281 139.390625 C 175.039062 140.609375 170.804688 143.453125 167.207031 146.972656 C 165.421875 148.679688 163.765625 150.503906 162.195312 152.390625 C 161.34375 153.359375 162.074219 154.992188 163.371094 155.003906 C 167.976562 155.171875 172.699219 155.9375 177.109375 157.25 C 179.726562 158.054688 182.460938 159.082031 184.785156 160.515625 C 187.171875 161.910156 189.167969 163.78125 190.953125 165.898438 C 192.105469 167.234375 193.210938 168.808594 194.570312 170.085938 C 195.886719 171.429688 197.832031 172.175781 199.710938 172.054688 C 195.621094 184.0625 188.949219 195.09375 181.871094 205.574219 C 166.730469 227.609375 148.542969 247.28125 129.90625 266.417969 C 130.089844 266.121094 130.273438 265.820312 130.445312 265.519531 C 134.375 258.714844 136.355469 250.910156 136.761719 243.097656 C 137.472656 230.421875 136.050781 217.675781 132.976562 205.363281 C 133.300781 205.167969 133.636719 204.941406 133.863281 204.804688 C 140.691406 200.292969 146.46875 194.117188 150.101562 186.734375 C 157.375 172.15625 153.652344 156.023438 145.632812 142.601562 C 140.039062 133.175781 132.753906 124.839844 124.957031 117.222656 C 124.246094 116.511719 123.015625 116.664062 122.496094 117.523438 C 117.765625 125.007812 113.742188 132.835938 110.3125 141 C 107.769531 147.15625 105.695312 153.523438 104.457031 160.078125 C 100.128906 182.765625 107.832031 201.234375 131.882812 205.589844 C 132.433594 208.765625 132.890625 211.957031 133.265625 215.152344 C 134.191406 223.496094 134.628906 231.9375 133.796875 240.300781 C 133.269531 245.246094 132.351562 250.15625 131.210938 254.992188 C 129.8125 260.847656 127.71875 266.4375 124.753906 271.695312 C 122.027344 274.476562 119.292969 277.25 116.566406 280.019531 C 94.046875 302.6875 70.820312 324.695312 47.097656 346.101562 C 48.5 347.621094 50.316406 349.609375 51.753906 351.117188 C 51.894531 351.023438 52.039062 350.925781 52.179688 350.816406 C 52.179688 350.816406 52.398438 350.65625 52.398438 350.65625 C 52.398438 350.65625 52.59375 350.496094 52.59375 350.496094 C 54.277344 349.128906 55.976562 347.742188 57.644531 346.347656 C 78.144531 329.257812 98.136719 311.105469 117.238281 292.476562 C 135.496094 274.605469 153.171875 256.027344 169.316406 236.214844 C 182.609375 219.6875 195.5 202.464844 204.234375 183.015625 C 205.199219 180.785156 206.214844 178.289062 207.007812 176 C 207.132812 175.664062 207.257812 175.304688 207.378906 174.9375 C 207.4375 174.976562 207.488281 175.019531 207.546875 175.054688 C 209.058594 176.15625 210.808594 176.949219 212.332031 177.835938 C 214.511719 179.066406 216.5 180.496094 218.222656 182.300781 C 223.261719 187.734375 226.464844 195.769531 228.136719 202.925781 C 228.378906 204.183594 230.128906 204.613281 230.925781 203.59375 C 232.488281 201.707031 233.976562 199.742188 235.320312 197.671875 C 239.269531 191.746094 241.65625 184.855469 240.082031 178.617188 C 243.046875 179.351562 246.007812 179.902344 248.875 180.265625 C 258.761719 181.390625 268.988281 179.710938 277.839844 175.105469 C 289.011719 169.484375 299.050781 159.625 304.597656 148.339844 C 307.6875 148.714844 310.8125 148.726562 313.925781 148.042969 C 320.679688 146.574219 327.730469 141.066406 329.816406 134.304688 C 332.640625 124.925781 325.128906 115.988281 317.285156 111.871094 Z M 130 195.082031 C 130 195.082031 129.664062 195.1875 129.664062 195.1875 C 130.496094 198.464844 131.199219 201.777344 131.792969 205.109375 C 106.679688 196.980469 103.671875 178.074219 110.007812 154.664062 C 113.25 142.910156 118.121094 131.515625 124.214844 120.941406 C 131.480469 127.863281 138.203125 135.367188 143.523438 143.875 C 151.484375 156.523438 155.5625 172.0625 148.976562 186.203125 C 145.550781 193.746094 139.621094 200.335938 132.863281 204.929688 C 132.023438 201.609375 131.066406 198.328125 130 195.082031 Z M 313.152344 76.257812 C 313.355469 76.386719 313.5625 76.515625 313.761719 76.65625 C 316.929688 78.941406 319.765625 81.964844 321.628906 85.441406 C 324.128906 90.195312 324.898438 96.121094 322.589844 101.105469 C 320.378906 105.550781 316.601562 108.148438 312.101562 109.566406 C 311.945312 109.5 311.769531 109.488281 311.601562 109.558594 C 311.195312 109.726562 310.789062 109.886719 310.378906 110.042969 C 301.75 112.132812 291.019531 110.457031 283.535156 109.21875 C 280.023438 108.574219 276.4375 107.808594 272.71875 107.441406 C 262.996094 106.25 253.726562 109.816406 244.523438 112.539062 C 253.476562 107.15625 263.273438 103.164062 273.207031 100.058594 C 279.359375 98.320312 285.589844 97.835938 291.984375 97.078125 C 298.054688 96.402344 305.121094 95.164062 308.84375 89.671875 C 311.511719 85.78125 313.253906 81.015625 313.152344 76.257812 Z M 217.066406 161.945312 C 216.359375 161.765625 215.648438 161.59375 214.933594 161.433594 C 213.351562 161.167969 211.882812 161.160156 210.570312 161.410156 C 209.101562 160.742188 207.636719 160.0625 206.171875 159.371094 C 205.621094 158.132812 205.027344 156.914062 204.398438 155.714844 C 206.390625 152.851562 208.058594 149.769531 209.464844 146.570312 C 214.957031 134.144531 215.902344 119.695312 211.613281 106.761719 C 211.53125 106.488281 211.390625 106.238281 211.195312 106.011719 C 210.710938 105.457031 210.21875 104.910156 209.71875 104.363281 C 208.179688 97.933594 205.855469 91.574219 202.304688 85.976562 C 200.96875 83.820312 199.519531 81.824219 198.492188 79.78125 C 197.40625 77.71875 196.8125 75.449219 196.390625 73.171875 C 195.953125 70.832031 195.714844 68.46875 195.972656 66.195312 C 196.429688 61.261719 199.722656 58.15625 204.414062 57.199219 C 207.671875 63.539062 213.742188 71.875 217.117188 77.285156 C 219.882812 81.445312 222.804688 85.5 225.84375 89.421875 C 227.304688 91.339844 228.890625 93.164062 230.167969 95.210938 C 231.433594 97.199219 232.542969 99.335938 233.59375 101.515625 C 235.71875 105.953125 237.550781 110.617188 239.398438 115.316406 C 239.472656 115.480469 239.570312 115.601562 239.675781 115.6875 C 239.332031 118.152344 239.175781 120.59375 239.023438 123.015625 C 238.792969 127.328125 238.574219 131.433594 238.269531 135.675781 C 238.03125 139 237.265625 142.292969 235.871094 145.316406 C 234.929688 145.953125 234.011719 146.617188 233.113281 147.296875 C 230.5625 149.1875 228.121094 151.222656 225.820312 153.402344 C 225.566406 153.601562 225.316406 153.804688 225.074219 154.015625 C 222.222656 156.445312 219.425781 159.015625 217.066406 161.945312 Z M 221.308594 163.609375 C 227.984375 166.023438 234.46875 170.28125 237.207031 176.574219 C 233.882812 175.609375 230.65625 174.308594 227.605469 172.726562 C 224.425781 171.070312 221.402344 169.054688 218.789062 166.703125 C 218.925781 166.519531 219.0625 166.339844 219.207031 166.160156 C 219.902344 165.304688 220.601562 164.453125 221.308594 163.609375 Z M 216.816406 162.257812 C 216.457031 162.730469 216.105469 163.195312 215.765625 163.675781 C 214.367188 163.09375 212.976562 162.492188 211.59375 161.875 C 212.597656 161.699219 213.699219 161.6875 214.863281 161.832031 C 215.503906 161.953125 216.15625 162.097656 216.816406 162.257812 Z M 207.371094 162.796875 C 207.335938 162.820312 207.304688 162.84375 207.273438 162.871094 C 207.261719 162.8125 207.25 162.753906 207.238281 162.691406 C 207.285156 162.726562 207.328125 162.761719 207.371094 162.796875 Z M 202.933594 157.707031 L 203.191406 157.378906 C 203.523438 156.941406 203.851562 156.496094 204.171875 156.050781 C 204.71875 157.074219 205.214844 158.105469 205.660156 159.128906 C 204.726562 158.6875 203.796875 158.242188 202.863281 157.796875 C 202.886719 157.765625 202.910156 157.734375 202.933594 157.707031 Z M 202.5 157.625 C 202.480469 157.617188 202.460938 157.605469 202.441406 157.597656 C 202.378906 157.570312 202.320312 157.578125 202.269531 157.601562 C 201.992188 157.410156 201.6875 157.21875 201.390625 157.050781 C 194.515625 153.128906 188.429688 147.628906 184.277344 140.90625 C 185.226562 140.875 186.191406 140.941406 187.167969 141.125 C 194.316406 142.5625 200.007812 148.652344 203.6875 155.171875 C 203.304688 155.992188 202.910156 156.808594 202.5 157.625 Z M 239.34375 140.453125 C 239.941406 139.09375 240.558594 137.738281 241.058594 136.292969 C 243.183594 130.441406 242.320312 121.949219 240.691406 115.683594 C 240.953125 115.492188 241.117188 115.171875 241.027344 114.808594 C 244.425781 113.828125 247.800781 112.804688 251.207031 111.953125 C 256.410156 110.675781 261.738281 109.6875 267.0625 109.96875 C 272.445312 110.300781 277.480469 111.789062 282.871094 112.78125 C 290.140625 114.140625 297.691406 114.335938 305 112.902344 C 305.996094 112.703125 307 112.46875 308 112.195312 C 308.53125 112.722656 309.058594 113.25 309.597656 113.777344 C 310.089844 114.503906 310.574219 115.230469 311.023438 115.976562 C 312.582031 118.609375 315.277344 123.128906 313.839844 126.097656 C 312.957031 127.667969 311.101562 128.054688 309.144531 128.375 C 305.875 128.769531 302.382812 128.671875 298.917969 128.539062 C 295.886719 128.40625 291.441406 128.257812 288.480469 128.046875 C 283.148438 127.828125 277.789062 126.4375 272.402344 127.15625 C 268.707031 127.589844 265.101562 128.664062 261.71875 130.183594 C 257.082031 132.269531 252.84375 135.222656 249.042969 138.546875 C 245.085938 139.980469 241.28125 141.875 237.730469 144.109375 C 238.261719 142.890625 238.792969 141.675781 239.34375 140.453125 Z M 241.703125 95.84375 C 241.332031 86.863281 239.632812 77.820312 235.542969 69.742188 C 232.191406 62.585938 223.007812 53.460938 224.746094 45.351562 C 225.355469 42.328125 228.089844 40.457031 230.941406 39.457031 C 232.214844 38.988281 233.570312 38.652344 234.9375 38.429688 C 235.410156 38.359375 235.796875 38.132812 236.078125 37.820312 C 236.425781 38.109375 236.765625 38.410156 237.085938 38.722656 C 237.863281 39.472656 238.558594 40.261719 239.175781 41.066406 C 239.789062 41.855469 239.992188 42.90625 240.773438 43.566406 C 241.550781 44.222656 242.191406 44.710938 243.078125 45.160156 C 242.664062 45.695312 242.28125 46.257812 241.9375 46.859375 C 239.019531 52.289062 241.960938 58.511719 244.996094 63.207031 C 251.285156 72.585938 259.578125 80.625 269.019531 86.828125 C 273.5 89.703125 278.296875 92.261719 283.324219 94.132812 C 280.464844 94.585938 277.628906 95.113281 274.898438 95.859375 C 264.085938 99.023438 254.3125 104.753906 244.835938 110.679688 C 243.714844 111.398438 242.144531 112.464844 240.902344 113.304688 C 241.003906 112.304688 241.335938 111.277344 241.386719 110.230469 C 241.640625 105.433594 241.9375 100.644531 241.703125 95.84375 Z M 270.410156 59.996094 C 268.027344 61.261719 265.917969 62.980469 264.15625 64.957031 C 260.648438 62.546875 257.433594 59.492188 255.527344 55.691406 C 254.640625 53.890625 253.890625 51.285156 255.1875 49.667969 C 257.671875 47.09375 264.46875 47.808594 267.839844 48.375 C 274.789062 49.59375 281.085938 52.78125 286.730469 56.882812 C 287.054688 57.121094 287.425781 57.382812 287.824219 57.671875 C 281.992188 56.433594 275.699219 57.296875 270.410156 59.996094 Z M 294.644531 63.996094 C 296.636719 65.960938 299.214844 68.714844 298.824219 71.574219 C 298.75 72.046875 298.605469 72.515625 298.382812 72.976562 C 298.027344 73.417969 297.613281 73.785156 297.152344 74.089844 C 294.035156 76.046875 288.753906 74.476562 285.511719 73.847656 C 283.71875 73.425781 281.84375 73.054688 279.96875 72.652344 C 279.300781 72.421875 278.695312 72.203125 278.160156 72.011719 C 273.769531 70.414062 269.550781 68.378906 265.59375 65.898438 C 267.410156 64.507812 269.535156 63.578125 271.65625 62.875 C 279.148438 60.316406 287.367188 61.160156 294.644531 63.996094 Z M 258.851562 62.292969 C 264.746094 68.8125 270.996094 74.128906 279.261719 76.011719 C 282.667969 77.175781 286.277344 77.636719 289.945312 77.011719 C 292.625 76.53125 296.601562 75.71875 298.449219 73.535156 C 298.460938 73.519531 298.476562 73.507812 298.488281 73.492188 C 298.253906 74.636719 298.03125 75.785156 297.808594 76.933594 C 297.546875 78.320312 297.074219 81.125 296.867188 82.519531 C 296.582031 84.375 295.949219 86.214844 296.128906 88.121094 C 296.230469 89.445312 296.421875 90.726562 296.824219 91.980469 C 296.785156 91.988281 296.742188 92 296.703125 92.007812 C 293.890625 92.585938 290.980469 93.007812 288.050781 93.429688 C 278.789062 89.160156 270.238281 83.476562 261.929688 77.585938 C 255.386719 72.738281 246.363281 65.535156 243.203125 57.246094 C 244.972656 57.371094 246.691406 56.945312 247.957031 55.710938 C 248.65625 54.914062 249.738281 53.910156 250.539062 53.199219 C 251.234375 52.523438 251.960938 51.808594 252.664062 51.082031 C 252.597656 55.15625 256.472656 59.566406 258.851562 62.292969 Z M 267.484375 38.355469 C 274.566406 38.140625 281.496094 40.40625 287.550781 44.015625 C 291.71875 46.503906 295.640625 49.535156 298.953125 53.089844 C 302.777344 57.496094 305.878906 62.457031 308.242188 67.839844 C 308.839844 69.246094 309.421875 70.679688 309.898438 72.144531 C 309.519531 72.496094 309.292969 73.003906 309.378906 73.5625 C 309.925781 78.082031 308.300781 82.925781 305.753906 86.683594 C 304.253906 89.050781 301.898438 90.441406 299.332031 91.300781 C 300.0625 89.476562 300.40625 87.527344 300.296875 85.546875 C 300.117188 83.898438 300.027344 81.5625 299.980469 79.886719 C 299.828125 77.144531 299.644531 74.125 299.355469 71.402344 C 299.75 69.117188 298.8125 66.628906 298 64.515625 C 297.566406 63.558594 297.148438 62.566406 296.558594 61.699219 C 296.160156 61.378906 295.75 61.070312 295.332031 60.78125 C 294.976562 60.257812 294.632812 59.777344 294.324219 59.355469 C 288.902344 52.261719 280.949219 47.042969 272.183594 45.230469 C 266.851562 44.078125 256.828125 43.277344 253.347656 48.453125 C 253.179688 48.757812 253.046875 49.066406 252.945312 49.382812 C 252.191406 49.664062 251.449219 49.964844 250.707031 50.265625 C 249.878906 50.601562 248.234375 51.339844 247.425781 51.730469 C 246.890625 51.992188 246.304688 52.175781 245.742188 52.398438 C 244.566406 52.84375 243.773438 53.773438 243.113281 54.839844 C 242.957031 55.105469 242.8125 55.382812 242.683594 55.6875 C 242.394531 54.664062 242.195312 53.628906 242.105469 52.578125 C 241.839844 44.820312 250.640625 41.679688 256.90625 39.988281 C 260.371094 39.113281 263.917969 38.429688 267.484375 38.355469 Z M 237.453125 28.898438 C 238.710938 28.625 239.972656 28.332031 241.253906 28.183594 C 242.539062 28.042969 243.945312 27.949219 245.226562 27.820312 C 247.492188 27.613281 249.890625 27.6875 251.992188 28.636719 C 253.707031 29.339844 255.105469 30.660156 256.59375 31.703125 C 258.0625 32.757812 259.679688 33.519531 261.269531 34.382812 C 261.84375 34.664062 262.410156 34.953125 262.992188 35.242188 C 260.675781 35.644531 258.355469 36.257812 256.035156 37.085938 C 251.96875 38.566406 247.699219 40.429688 244.570312 43.492188 C 244.578125 42.753906 244.421875 42.011719 244.121094 41.328125 C 243.652344 40.085938 242.398438 39.425781 241.378906 38.71875 C 239.9375 37.6875 238.3125 36.941406 236.601562 36.546875 C 236.644531 35.898438 236.390625 35.234375 235.777344 34.8125 C 233.714844 33.308594 231.4375 32.132812 229.058594 31.320312 C 231.824219 30.304688 234.53125 29.460938 237.453125 28.898438 Z M 203.558594 47.578125 C 204.648438 40.699219 210.53125 34.902344 217.363281 33.804688 C 221.425781 33.0625 225.617188 33.824219 229.324219 35.59375 C 225.835938 36.796875 222.675781 38.890625 221.148438 42.449219 C 219.890625 45.453125 219.976562 49.015625 220.941406 52.027344 C 222.78125 57.964844 226.90625 62.871094 230.625 67.625 C 237.085938 75.597656 240.929688 85.582031 241.304688 95.855469 C 241.546875 100.628906 241.015625 105.390625 240.238281 110.089844 C 240.1875 110.402344 240.109375 110.714844 240.023438 111.023438 C 239.074219 107.394531 238.054688 103.746094 236.636719 100.195312 C 235.703125 97.835938 234.597656 95.515625 233.238281 93.296875 C 231.910156 91.109375 230.226562 89.175781 228.597656 87.21875 C 223.804688 81.523438 218.9375 75.964844 214.425781 70.046875 C 210.195312 64.394531 202.445312 54.867188 203.558594 47.578125 Z M 172.429688 71.222656 C 170.421875 65.882812 170.265625 59.019531 173.621094 54.273438 C 178.601562 47.953125 189.308594 48.617188 196.453125 50.3125 C 198.449219 50.792969 200.414062 51.398438 202.347656 52.09375 C 202.585938 53.070312 202.925781 54.039062 203.371094 54.992188 C 203.605469 55.535156 203.871094 56.101562 204.160156 56.6875 C 203.140625 56.699219 202.109375 56.828125 201.097656 57.101562 C 197.019531 58.09375 194.167969 61.726562 193.398438 65.765625 C 192.425781 70.59375 193.230469 76.898438 195.320312 81.335938 C 196.441406 83.683594 197.882812 85.777344 199.257812 87.914062 C 201.921875 92.03125 204.351562 96.289062 206.300781 100.777344 C 205.5625 100.027344 204.8125 99.285156 204.058594 98.550781 C 199.078125 93.804688 193.75 89.402344 187.964844 85.679688 C 187.5625 85.421875 187.160156 85.164062 186.753906 84.910156 C 184.660156 83.296875 182.523438 81.734375 180.414062 80.203125 C 177.050781 77.742188 173.90625 75.132812 172.429688 71.222656 Z M 176.273438 111.027344 C 175.28125 101.75 176.320312 92.289062 179.039062 83.375 C 181.046875 84.585938 183.042969 85.816406 185.007812 87.078125 C 185.429688 87.40625 185.851562 87.730469 186.269531 88.0625 C 191.535156 92.183594 196.589844 96.582031 201.230469 101.394531 C 203.453125 103.679688 205.574219 106.054688 207.644531 108.476562 C 212.464844 124.351562 210.648438 139.941406 203.882812 154.75 C 203.136719 153.386719 202.34375 152.046875 201.503906 150.738281 C 199.511719 147.664062 197.25 144.777344 194.324219 142.484375 C 190.65625 139.59375 186.820312 138.542969 183.058594 138.785156 C 182.347656 137.457031 181.707031 136.089844 181.15625 134.683594 C 178.195312 127.144531 177.269531 119.0625 176.273438 111.027344 Z M 195.898438 166.652344 C 194.015625 163.476562 191.667969 160.261719 188.601562 158.046875 C 188.15625 157.699219 187.46875 157.257812 186.976562 156.960938 C 186.496094 156.652344 185.785156 156.238281 185.28125 155.996094 C 179.488281 153.113281 173.125 152.160156 166.75 151.875 C 167.566406 150.914062 168.40625 149.976562 169.28125 149.074219 C 172.421875 145.839844 176.339844 142.730469 180.710938 141.476562 C 185.65625 149.304688 193.4375 155.332031 202.296875 158.027344 C 203.191406 159.074219 204.171875 160.027344 205.179688 160.953125 C 205.65625 161.378906 206.140625 161.796875 206.632812 162.203125 C 206.699219 162.585938 206.738281 162.964844 206.761719 163.332031 C 205.539062 164.550781 204.78125 166.304688 204.640625 168.597656 C 203.957031 169.101562 203.109375 169.460938 202.082031 169.648438 L 200.441406 169.789062 C 200.429688 169.789062 200.417969 169.789062 200.40625 169.789062 C 198.210938 169.867188 197.015625 168.511719 195.898438 166.652344 Z M 205.835938 173.601562 C 205.734375 173.894531 205.636719 174.183594 205.527344 174.472656 C 204.589844 176.980469 203.421875 179.707031 202.292969 182.128906 C 193.105469 201.09375 180.238281 218.003906 166.894531 234.222656 C 156.582031 246.613281 145.679688 258.578125 134.613281 270.304688 C 108.183594 298.230469 80.167969 324.902344 51.773438 350.808594 C 50.703125 349.4375 49.15625 347.582031 48.039062 346.175781 C 53.5625 341.6875 59.316406 336.824219 64.695312 332.175781 C 103.625 298.441406 140.53125 262.03125 171.808594 220.996094 C 179.960938 210.246094 187.839844 199.199219 194.355469 187.351562 C 197.121094 182.332031 199.59375 177.148438 201.523438 171.726562 C 201.804688 171.652344 202.078125 171.574219 202.339844 171.484375 C 203.386719 171.820312 204.070312 172.042969 205.277344 172.433594 C 205.453125 172.789062 205.65625 173.128906 205.890625 173.449219 C 205.882812 173.472656 205.835938 173.601562 205.835938 173.601562 Z M 232.867188 196.015625 C 232.144531 197.039062 231.378906 198.039062 230.582031 199.019531 C 229.125 192.808594 227.011719 186.730469 223.105469 181.570312 C 222.773438 181.117188 222.242188 180.496094 221.84375 180.085938 C 221.464844 179.65625 220.898438 179.058594 220.476562 178.6875 C 217.734375 176.085938 214.140625 174.371094 210.671875 173.109375 C 209.78125 172.773438 208.980469 172.414062 208.335938 171.925781 L 207.648438 171.28125 C 207.195312 170.753906 206.882812 170.101562 206.753906 169.261719 C 206.671875 168.847656 206.625 168.453125 206.597656 168.078125 C 207.167969 167 207.4375 165.757812 207.410156 164.402344 C 207.636719 164.046875 207.898438 163.726562 208.199219 163.441406 C 210.558594 165.21875 213.089844 166.769531 215.722656 168.109375 C 216.191406 168.347656 216.722656 168.375 217.199219 168.226562 C 223.042969 172.664062 230.332031 175.910156 237.726562 177.992188 C 239.609375 184.285156 236.496094 190.871094 232.867188 196.015625 Z M 301.789062 151.066406 C 297.769531 155.996094 293.257812 160.535156 288.222656 164.421875 C 277.945312 172.3125 265.179688 177.707031 252.164062 178.414062 C 247.976562 178.617188 243.757812 178.179688 239.652344 177.210938 C 238.757812 174.703125 237.167969 172.324219 234.71875 170.191406 C 231.921875 167.734375 228.667969 166.046875 225.28125 164.660156 C 224.058594 164.164062 222.824219 163.707031 221.578125 163.285156 C 223.144531 161.421875 224.746094 159.589844 226.414062 157.804688 C 227.003906 157.210938 227.597656 156.597656 228.1875 155.980469 C 230.484375 154.007812 232.875 152.148438 235.363281 150.4375 C 246.804688 142.589844 260.925781 137.492188 274.738281 140.546875 C 278.695312 141.402344 282.351562 143.421875 286.296875 144.625 C 288.324219 145.277344 290.394531 145.777344 292.46875 146.152344 C 294.160156 146.460938 295.863281 146.761719 297.570312 147.007812 C 298 147.109375 298.429688 147.210938 298.855469 147.3125 C 300.578125 147.699219 302.320312 148.035156 304.070312 148.269531 C 303.285156 149.191406 302.5 150.140625 301.789062 151.066406 Z M 326.410156 133.234375 C 326.339844 133.5 326.246094 133.742188 326.140625 133.976562 L 325.828125 134.714844 C 325.828125 134.714844 325.445312 135.425781 325.445312 135.425781 C 324.511719 137.121094 323.226562 138.636719 321.820312 139.964844 C 317.617188 144.09375 312.238281 146.320312 306.308594 146.34375 C 303.472656 146.394531 300.605469 146.0625 297.75 145.554688 C 296.140625 145.117188 294.539062 144.640625 292.9375 144.175781 C 290.976562 143.605469 289.0625 142.917969 287.195312 142.152344 C 283.339844 140.554688 279.757812 138.28125 275.636719 137.105469 C 270.207031 135.527344 264.632812 135.265625 259.164062 136.015625 C 264.863281 132.863281 271.1875 130.9375 277.757812 131.3125 C 281.136719 131.582031 284.828125 132.011719 288.289062 132.074219 C 291.859375 132.148438 295.332031 132.113281 298.890625 132.066406 C 303.414062 131.863281 308.085938 131.972656 312.402344 130.246094 C 320.46875 126.640625 313.984375 117.691406 309.914062 113.519531 C 309.546875 112.996094 309.175781 112.476562 308.804688 111.960938 C 309.484375 111.757812 310.15625 111.535156 310.820312 111.289062 C 311.136719 111.214844 311.449219 111.132812 311.761719 111.050781 C 317.808594 114.160156 323.679688 118.890625 326.097656 125.386719 C 327.054688 127.988281 327.261719 130.6875 326.410156 133.234375 Z M 326.410156 133.234375 " fill-opacity="1" fill-rule="nonzero"/></g></svg>