<svg xmlns="http://www.w3.org/2000/svg" xmlns:xlink="http://www.w3.org/1999/xlink" width="500" zoomAndPan="magnify" viewBox="0 0 375 374.999991" height="500" preserveAspectRatio="xMidYMid meet" version="1.0"><defs><clipPath id="d5f5457ca9"><path d="M 16 67 L 350 67 L 350 311 L 16 311 Z M 16 67 " clip-rule="nonzero"/></clipPath><clipPath id="a612667737"><path d="M 85 9.722656 L 388.488281 144.941406 L 290.207031 365.535156 L -13.285156 230.320312 Z M 85 9.722656 " clip-rule="nonzero"/></clipPath><clipPath id="d230c68fbd"><path d="M 85 9.722656 L 388.488281 144.941406 L 290.207031 365.535156 L -13.285156 230.320312 Z M 85 9.722656 " clip-rule="nonzero"/></clipPath><clipPath id="b014bd0cc1"><path d="M 85 9.722656 L 388.488281 144.941406 L 290.207031 365.535156 L -13.285156 230.320312 Z M 85 9.722656 " clip-rule="nonzero"/></clipPath></defs><g clip-path="url(#d5f5457ca9)"><g clip-path="url(#a612667737)"><g clip-path="url(#d230c68fbd)"><g clip-path="url(#b014bd0cc1)"><path fill="#dfb0b0" d="M 157.40625 293.671875 C 143.554688 287.363281 128.890625 279.128906 114.425781 273.3125 C 99.050781 267.164062 82.355469 265.765625 66.457031 261.515625 C 38.679688 253.488281 22.542969 225.386719 17.824219 198.417969 C 14.097656 179.140625 18.460938 159.078125 28.417969 142.21875 C 31.441406 136.445312 36.210938 132.3125 40.777344 128 C 46.882812 122.230469 53.261719 116.734375 60.761719 112.78125 C 85.003906 100.714844 112.589844 98.648438 138.371094 91.304688 C 140.855469 90.671875 142.972656 89.34375 144.972656 87.753906 C 156.207031 78.300781 168.136719 67.863281 183.660156 67.648438 C 209.800781 65.347656 235.789062 80.949219 246.589844 104.882812 C 249.238281 110.9375 250.847656 117.363281 253.601562 123.355469 C 261.265625 141.269531 267.597656 161.746094 284.039062 173.679688 C 302.515625 183.898438 318.867188 174.074219 336.574219 189.738281 C 354.167969 203.863281 350.589844 230.042969 341.484375 248.128906 C 332.550781 264.199219 318.738281 277.125 303.496094 287.164062 C 255.691406 315.976562 207.722656 317.191406 157.40625 293.671875 Z M 157.40625 293.671875 " fill-opacity="1" fill-rule="nonzero"/></g></g></g></g></svg>